<svg width="18" height="21" viewBox="0 0 18 21" fill="none" xmlns="http://www.w3.org/2000/svg">
<path d="M1 5.25H17M2 5.25L3 17.25C3 17.7804 3.21071 18.2891 3.58579 18.6642C3.96086 19.0393 4.46957 19.25 5 19.25H13C13.5304 19.25 14.0391 19.0393 14.4142 18.6642C14.7893 18.2891 15 17.7804 15 17.25L16 5.25M6 5.25V2.25C6 1.98478 6.10536 1.73043 6.29289 1.54289C6.48043 1.35536 6.73478 1.25 7 1.25H11C11.2652 1.25 11.5196 1.35536 11.7071 1.54289C11.8946 1.73043 12 1.98478 12 2.25V5.25M7 10.25L11 14.25M11 10.25L7 14.25" stroke="#FF7735" stroke-width="1.7" stroke-linecap="round" stroke-linejoin="round"/>
</svg>
