<svg width="35" height="41" viewBox="0 0 35 41" fill="none" xmlns="http://www.w3.org/2000/svg">
<path d="M17.5 21.5C20.3125 21.5 23.0469 19.3125 23.5938 16.5H27.3438C26.7188 21.5 22.5781 25.25 17.5 25.25C12.3438 25.25 8.20312 21.5 7.57812 16.5H11.3281C11.875 19.3125 14.6094 21.5 17.5 21.5ZM24.4531 27.75C30.2344 27.75 35 32.5156 35 38.2969C35 39.3906 34.0625 40.25 32.9688 40.25H1.95312C0.859375 40.25 0 39.3906 0 38.2969C0 32.5156 4.6875 27.75 10.4688 27.75C12.7344 27.75 13.75 29 17.5 29C21.1719 29 22.1875 27.75 24.4531 27.75ZM3.90625 36.5H31.0156C30.2344 33.7656 27.3438 31.5781 24.4531 31.5C23.3594 31.5 21.4844 32.75 17.5 32.75C13.4375 32.75 11.5625 31.5 10.4688 31.5C7.57812 31.5781 4.6875 33.7656 3.90625 36.5ZM6.875 14C6.48438 14 6.25 13.7656 6.25 13.375V10.875C6.25 10.5625 6.48438 10.25 6.875 10.25H7.5C7.5 6.65625 9.6875 3.60938 12.8125 2.28125L15 6.5V1.5C15 0.875 15.5469 0.25 16.25 0.25H18.75C19.375 0.25 20 0.875 20 1.5V6.5L22.1094 2.28125C25.2344 3.60938 27.5 6.65625 27.5 10.25H28.125C28.4375 10.25 28.75 10.5625 28.75 10.875V13.375C28.75 13.7656 28.4375 14 28.125 14H6.875Z" fill="#FF7735"/>
</svg>
