<svg width="24" height="23" viewBox="0 0 24 23" fill="none" xmlns="http://www.w3.org/2000/svg">
<path d="M14.5703 11.345L23.2891 20.0637C23.5 20.2747 23.5 20.6262 23.2891 20.9075L21.7422 22.4543C21.4609 22.6653 21.1094 22.6653 20.8984 22.4543L19.4219 20.9778L12.25 13.7356L3.53125 22.4543C3.32031 22.6653 2.96875 22.6653 2.6875 22.4543L1.14062 20.9075C0.929688 20.6262 0.929688 20.2747 1.14062 20.0637L9.85938 11.345L1.14062 2.69653C0.929688 2.4856 0.929688 2.13403 1.14062 1.85278L2.6875 0.305908C2.96875 0.0949707 3.32031 0.0949707 3.53125 0.305908L12.25 9.02466L20.8984 0.305908C21.1094 0.0949707 21.4609 0.0949707 21.7422 0.305908L23.2891 1.85278C23.5 2.13403 23.5 2.4856 23.2891 2.69653L21.8125 4.1731L14.5703 11.345Z" fill="#595959"/>
</svg>
