<svg width="21" height="22" viewBox="0 0 21 22" fill="none" xmlns="http://www.w3.org/2000/svg">
<g clip-path="url(#clip0_2471_2845)">
<path d="M12 3.56299C7.02823 3.56299 3 7.59121 3 12.563C3 17.5348 7.02823 21.563 12 21.563C16.9718 21.563 21 17.5348 21 12.563C21 7.59121 16.9718 3.56299 12 3.56299ZM12 19.8211C7.98992 19.8211 4.74194 16.5731 4.74194 12.563C4.74194 8.55291 7.98992 5.30492 12 5.30492C16.0101 5.30492 19.2581 8.55291 19.2581 12.563C19.2581 16.5731 16.0101 19.8211 12 19.8211ZM14.2427 16.0323L11.1617 13.7932C11.0492 13.7098 10.9839 13.5791 10.9839 13.4412V7.48234C10.9839 7.24283 11.1798 7.04686 11.4194 7.04686H12.5806C12.8202 7.04686 13.0161 7.24283 13.0161 7.48234V12.6247L15.4403 14.3884C15.6363 14.5299 15.6762 14.8021 15.5347 14.9981L14.8524 15.938C14.7109 16.1303 14.4387 16.1739 14.2427 16.0323Z" fill="#858D9D"/>
</g>
<defs>
<clipPath id="clip0_2471_2845">
<rect width="21" height="21" fill="white" transform="translate(0 0.853027)"/>
</clipPath>
</defs>
</svg>
