<svg width="22" height="25" viewBox="0 0 22 25" fill="none" xmlns="http://www.w3.org/2000/svg">
<path d="M3.10433 9.05294L7.60342 5.72294C7.75034 5.61541 7.9224 5.55811 8.09832 5.55811C8.27424 5.55811 8.4463 5.61541 8.59322 5.72294L13.0023 8.98294C13.1492 9.09047 13.3213 9.14778 13.4972 9.14778C13.6731 9.14778 13.8452 9.09047 13.9921 8.98294L17.5014 6.39294C17.6367 6.29389 17.7936 6.23729 17.9555 6.22913C18.1174 6.22096 18.2782 6.26152 18.4211 6.34653C18.5639 6.43154 18.6835 6.55785 18.7671 6.71211C18.8507 6.86637 18.8953 7.04286 18.8961 7.22294V15.8529C18.8969 16.0193 18.8602 16.1833 18.7895 16.33C18.7188 16.4767 18.6163 16.6014 18.4912 16.6929L13.9921 20.0229C13.8452 20.1305 13.6731 20.1878 13.4972 20.1878C13.3213 20.1878 13.1492 20.1305 13.0023 20.0229L8.59322 16.7629C8.4463 16.6554 8.27424 16.5981 8.09832 16.5981C7.9224 16.5981 7.75034 16.6554 7.60342 16.7629L4.09413 19.3529C3.95624 19.454 3.79597 19.511 3.63089 19.5175C3.46581 19.5241 3.30229 19.4801 3.15825 19.3902C3.0142 19.3004 2.89519 19.1682 2.81426 19.0081C2.73332 18.8481 2.69359 18.6664 2.69941 18.4829V9.85294C2.70452 9.69335 2.74395 9.53744 2.8144 9.39826C2.88485 9.25908 2.98426 9.14067 3.10433 9.05294Z" stroke="#858D9D" stroke-width="1.5" stroke-linecap="round" stroke-linejoin="round"/>
<path d="M8.09839 5.55322V16.5532" stroke="#858D9D" stroke-width="1.5" stroke-linecap="round" stroke-linejoin="round"/>
<path d="M13.4973 9.15283V20.1528" stroke="#858D9D" stroke-width="1.5" stroke-linecap="round" stroke-linejoin="round"/>
</svg>
