<svg width="24" height="25" viewBox="0 0 24 25" fill="none" xmlns="http://www.w3.org/2000/svg">
<path d="M6.47003 4.90305L5.00003 6.39305C4.60335 6.78548 4.28843 7.25269 4.07351 7.76764C3.85859 8.28259 3.74792 8.83505 3.74792 9.39305C3.74792 9.95105 3.85859 10.5035 4.07351 11.0185C4.28843 11.5334 4.60335 12.0006 5.00003 12.393L12.47 19.853C12.8625 20.2497 13.3297 20.5646 13.8446 20.7796C14.3596 20.9945 14.912 21.1052 15.47 21.1052C16.028 21.1052 16.5805 20.9945 17.0954 20.7796C17.6104 20.5646 18.0776 20.2497 18.47 19.853L20 18.383C20.1045 18.2849 20.1877 18.1663 20.2446 18.0348C20.3015 17.9032 20.3308 17.7614 20.3308 17.618C20.3308 17.4747 20.3015 17.3329 20.2446 17.2013C20.1877 17.0698 20.1045 16.9512 20 16.853L17.76 14.603C17.5599 14.4064 17.2906 14.2962 17.01 14.2962C16.7295 14.2962 16.4601 14.4064 16.26 14.603L15.51 15.353C15.3099 15.5497 15.0406 15.6599 14.76 15.6599C14.4795 15.6599 14.2101 15.5497 14.01 15.353L9.47003 10.853C9.27338 10.6529 9.16318 10.3836 9.16318 10.103C9.16318 9.82249 9.27338 9.55315 9.47003 9.35305L10.22 8.60305C10.4167 8.40294 10.5269 8.13361 10.5269 7.85305C10.5269 7.57249 10.4167 7.30315 10.22 7.10305L8.00003 4.90305C7.90185 4.79862 7.78332 4.71539 7.65176 4.6585C7.52019 4.60161 7.37837 4.57227 7.23503 4.57227C7.09169 4.57227 6.94987 4.60161 6.8183 4.6585C6.68674 4.71539 6.56821 4.79862 6.47003 4.90305Z" stroke="#858D9D" stroke-width="1.5" stroke-linecap="round" stroke-linejoin="round"/>
</svg>
