<svg width="45" height="46" viewBox="0 0 45 46" fill="none" xmlns="http://www.w3.org/2000/svg">
<g clip-path="url(#clip0_2071_9190)">
<path d="M44.7822 26.125L39.5615 20.166C39.3945 19.9727 39.1484 19.8584 38.8848 19.8584H34.543V16.1758C34.543 15.6836 34.1387 15.2793 33.6465 15.2793H22.3877C22.0889 11.5527 18.96 8.6084 15.1543 8.6084C11.1465 8.6084 7.89453 11.8691 7.89453 15.8682C7.89453 19.5596 10.6631 22.6182 14.2402 23.0664V30.8008H9.05469C8.5625 30.8008 8.1582 31.2051 8.1582 31.6973C8.1582 32.1895 8.5625 32.5938 9.05469 32.5938H14.2402V33.5078C14.2402 34 14.6445 34.4043 15.1367 34.4043H17.0088C17.4043 35.8369 18.7227 36.9004 20.2783 36.9004C21.834 36.9004 23.1523 35.8457 23.5479 34.4043H35.5098C35.9053 35.8369 37.2236 36.9004 38.7793 36.9004C40.335 36.9004 41.6533 35.8457 42.0488 34.4043H44.1143C44.6065 34.4043 45.0107 34 45.0107 33.5078V26.7139C45.002 26.4941 44.9229 26.2832 44.7822 26.125ZM9.6875 15.8682C9.6875 12.8535 12.1396 10.4014 15.1543 10.4014C18.1689 10.4014 20.6211 12.8535 20.6211 15.8682C20.6211 18.8828 18.1689 21.335 15.1543 21.335C12.1396 21.335 9.6875 18.8828 9.6875 15.8682ZM20.2695 35.0986C19.3906 35.0986 18.6699 34.3779 18.6699 33.499C18.6699 32.6201 19.3906 31.8994 20.2695 31.8994C21.1484 31.8994 21.8691 32.6201 21.8691 33.499C21.8691 34.3779 21.1484 35.0986 20.2695 35.0986ZM23.5391 32.6025C23.1436 31.1699 21.8252 30.1064 20.2695 30.1064C18.7139 30.1064 17.3955 31.1611 17 32.6025H16.0244V23.0752C19.2236 22.6885 21.7813 20.2275 22.3086 17.0723H32.7412V32.6025H23.5391ZM38.7705 35.0986C37.8916 35.0986 37.1709 34.3779 37.1709 33.499C37.1709 32.6201 37.8916 31.8994 38.7705 31.8994C39.6494 31.8994 40.3701 32.6201 40.3701 33.499C40.3701 34.3779 39.6494 35.0986 38.7705 35.0986ZM43.209 32.6025H42.04C41.6445 31.1699 40.3262 30.1064 38.7705 30.1064C37.2148 30.1064 35.8965 31.1611 35.501 32.6025H34.543V21.6514H38.4805L43.209 27.0479V32.6025Z" fill="black"/>
<path d="M6.08984 30.8008H5.61523C5.12305 30.8008 4.71875 31.2051 4.71875 31.6973C4.71875 32.1895 5.11426 32.5937 5.60644 32.5937H6.08105C6.57324 32.5937 6.97754 32.1895 6.97754 31.6973C6.97754 31.2051 6.58203 30.8008 6.08984 30.8008Z" fill="black"/>
<path d="M5.60645 17.3887H2.0293C1.53711 17.3887 1.13281 17.793 1.13281 18.2852C1.13281 18.7773 1.53711 19.1816 2.0293 19.1816H5.60645C6.09863 19.1816 6.50293 18.7773 6.50293 18.2852C6.50293 17.7842 6.10742 17.3887 5.60645 17.3887Z" fill="black"/>
<path d="M10.5029 23.998H0.896484C0.404297 23.998 0 24.4023 0 24.8945C0 25.3867 0.404297 25.791 0.896484 25.791H10.5029C10.9951 25.791 11.3994 25.3867 11.3994 24.8945C11.3994 24.4023 10.9951 23.998 10.5029 23.998Z" fill="black"/>
<path d="M17.3252 16.7734L16.0508 15.499V11.6758C16.0508 11.1836 15.6465 10.7793 15.1543 10.7793C14.6621 10.7793 14.2578 11.1836 14.2578 11.6758V15.8682C14.2578 16.1055 14.3545 16.334 14.5215 16.501L16.0596 18.0391C16.2354 18.2148 16.4639 18.3027 16.6924 18.3027C16.9209 18.3027 17.1494 18.2148 17.3252 18.0391C17.6768 17.6875 17.6768 17.125 17.3252 16.7734Z" fill="black"/>
<path d="M25.0146 21.5283L26.5264 23.4004C26.623 23.5234 26.6846 23.6816 26.6846 23.8398V24.8594C26.6846 25.0352 26.623 25.1934 26.5088 25.3164L26.0869 25.7998C25.9551 25.9492 25.7705 26.0459 25.5596 26.0459H24.4522C24.2588 26.0459 24.0566 25.958 23.9248 25.7998L23.5029 25.3164C23.3887 25.1934 23.3271 25.0352 23.3271 24.8594V23.8398C23.3271 23.6816 23.3799 23.5234 23.4854 23.4004L25.0146 21.5283ZM25.0146 19.1816L22.0967 22.7764C21.9473 22.9697 21.8594 23.1982 21.8594 23.4443V25.29C21.8594 25.5361 21.9473 25.7822 22.1143 25.9756L23.1514 27.1533C23.3447 27.3906 23.6436 27.5137 23.9424 27.5137H26.0869C26.3945 27.5137 26.6758 27.3818 26.8779 27.1533L27.915 25.9756C28.0732 25.791 28.1699 25.5449 28.1699 25.29V23.4443C28.1699 23.1982 28.082 22.9785 27.9326 22.7764L25.0146 19.1816Z" fill="#FF5A0A"/>
</g>
<defs>
<clipPath id="clip0_2071_9190">
<rect width="45" height="45" fill="white" transform="translate(0 0.25)"/>
</clipPath>
</defs>
</svg>
