<svg width="14" height="13" viewBox="0 0 14 13" fill="none" xmlns="http://www.w3.org/2000/svg">
<path d="M0 1C0 0.58525 0.3136 0.25 0.7 0.25H9.8C10.1864 0.25 10.5 0.58525 10.5 1C10.5 1.41475 10.1864 1.75 9.8 1.75H0.7C0.3136 1.75 0 1.41475 0 1ZM13.3 5.5H0.7C0.3136 5.5 0 5.83525 0 6.25C0 6.66475 0.3136 7 0.7 7H13.3C13.6864 7 14 6.66475 14 6.25C14 5.83525 13.6864 5.5 13.3 5.5ZM7 10.75H0.7C0.3136 10.75 0 11.0852 0 11.5C0 11.9148 0.3136 12.25 0.7 12.25H7C7.3864 12.25 7.7 11.9148 7.7 11.5C7.7 11.0852 7.3864 10.75 7 10.75Z" fill="white"/>
</svg>
