<svg width="38" height="39" viewBox="0 0 38 39" fill="none" xmlns="http://www.w3.org/2000/svg">
<g clip-path="url(#clip0_2071_9311)">
<path d="M30.9937 26.9613V36.7359H7.00625V3.65664H13.6785V4.79219C13.6785 5.20781 14.0199 5.54922 14.4355 5.54922H23.5645C23.9801 5.54922 24.3215 5.20781 24.3215 4.79219V3.65664H30.9937V21.8625L32.5078 21.3504V2.89961C32.5078 2.48398 32.1664 2.14258 31.7508 2.14258H24.3215V1.00703C24.3215 0.591406 23.9801 0.25 23.5645 0.25H14.4355C14.0199 0.25 13.6785 0.591406 13.6785 1.00703V2.14258H6.24922C5.83359 2.14258 5.49219 2.48398 5.49219 2.89961V37.493C5.49219 37.9086 5.83359 38.25 6.24922 38.25H31.7582C32.1738 38.25 32.5152 37.9086 32.5152 37.493V25.9445L30.9937 26.9613ZM15.1926 1.76406H22.8074V4.04258H15.1926V1.76406Z" fill="black"/>
<path d="M12.1281 7.23398C10.6883 7.23398 9.51562 8.40664 9.51562 9.84648C9.51562 11.2863 10.6883 12.459 12.1281 12.459C13.568 12.459 14.7406 11.2863 14.7406 9.84648C14.7406 8.40664 13.568 7.23398 12.1281 7.23398ZM12.1281 10.9449C11.5195 10.9449 11.0297 10.4551 11.0297 9.84648C11.0297 9.23788 11.5195 8.74804 12.1281 8.74804C12.7367 8.74804 13.2266 9.23788 13.2266 9.84648C13.2266 10.4477 12.7367 10.9449 12.1281 10.9449Z" fill="black"/>
<path d="M27.7277 9.04492H17.3C16.8844 9.04492 16.543 9.38633 16.543 9.80195C16.543 10.2176 16.8844 10.559 17.3 10.559H27.7277C28.1434 10.559 28.4848 10.2176 28.4848 9.80195C28.4848 9.38633 28.1434 9.04492 27.7277 9.04492Z" fill="black"/>
<path d="M12.1281 14.2773C10.6883 14.2773 9.51562 15.45 9.51562 16.8898C9.51562 18.3297 10.6883 19.5023 12.1281 19.5023C13.568 19.5023 14.7406 18.3297 14.7406 16.8898C14.7406 15.45 13.568 14.2773 12.1281 14.2773ZM12.1281 17.9883C11.5195 17.9883 11.0297 17.4984 11.0297 16.8898C11.0297 16.2812 11.5195 15.7914 12.1281 15.7914C12.7367 15.7914 13.2266 16.2812 13.2266 16.8898C13.2266 17.4984 12.7367 17.9883 12.1281 17.9883Z" fill="black"/>
<path d="M27.727 16.0957H27.5266C27.1109 16.0957 26.7695 16.4371 26.7695 16.8527C26.7695 17.2684 27.1109 17.6098 27.5266 17.6098H27.727C28.1426 17.6098 28.484 17.2684 28.484 16.8527C28.484 16.4371 28.1426 16.0957 27.727 16.0957Z" fill="black"/>
<path d="M24.7664 16.0957H17.3C16.8844 16.0957 16.543 16.4371 16.543 16.8527C16.543 17.2684 16.8844 17.6098 17.3 17.6098H24.7664C25.182 17.6098 25.5234 17.2684 25.5234 16.8527C25.5234 16.4371 25.182 16.0957 24.7664 16.0957Z" fill="black"/>
<path d="M34.8021 21.5285C34.1416 20.7789 33.392 20.4078 32.5756 20.4375C30.8389 20.5043 29.399 22.4191 28.3525 23.8145C28.0185 24.2598 27.6994 24.6902 27.4916 24.8758C26.8607 25.4547 25.5842 25.2246 25.0201 25.0539C22.9865 23.5473 21.6506 23.9109 21.4576 23.9777L21.3685 24.0074L17.3014 26.6422C17.2271 26.6867 17.1826 26.7164 17.1678 26.7313L17.1158 26.7684L17.0713 26.8129C17.0045 26.8871 16.3885 27.5996 16.4775 29.0023C16.574 30.6574 17.5686 32.5871 19.424 34.7395C21.0197 36.5875 22.6006 37.723 24.1221 38.0941C24.5228 38.1906 24.8717 38.2277 25.1611 38.2277C25.7697 38.2277 26.1482 38.0793 26.2373 38.0348L26.2967 38.0051L26.3486 37.968C26.408 37.9309 26.5787 37.7973 26.7643 37.5523L29.9779 34.0418L30.0076 33.9973C30.208 33.7004 30.6014 32.7355 29.4955 30.5609C29.5252 30.1156 29.7033 28.8465 30.7127 28.0746C31.017 27.8445 31.5217 27.5699 32.0486 27.2879C33.5256 26.4863 35.3588 25.4992 35.6408 23.9332C35.7818 23.1391 35.4998 22.3301 34.8021 21.5285ZM20.6041 33.7449C17.4498 30.0859 17.999 28.3344 18.192 27.9484C18.5779 27.7926 20.2478 27.4363 23.1795 31.0656C25.1166 33.4629 25.6064 34.9324 25.6732 35.7488C25.7103 36.2164 25.6139 36.4836 25.5322 36.6246L25.4877 36.6766C25.0201 36.7434 23.2463 36.8027 20.6041 33.7449ZM28.6791 33.1734L27.1057 34.8879C26.7865 33.5297 25.8736 31.9191 24.3893 30.0785C22.942 28.2898 21.5541 27.1246 20.2404 26.6051L22.0068 25.4621C22.3631 25.4398 23.9662 25.5289 26.3857 28.6461C28.6865 31.6297 28.7162 32.8988 28.6791 33.1734ZM34.1045 23.666C33.956 24.4973 32.4271 25.3211 31.3064 25.9297C30.7201 26.2488 30.1709 26.5457 29.7701 26.85C29.0576 27.3918 28.6271 28.0672 28.36 28.7055C28.1373 28.3863 27.8924 28.0523 27.6178 27.6961C27.358 27.3621 27.1057 27.0578 26.8607 26.7758C27.4545 26.7016 28.0557 26.4863 28.5529 26.0262C28.8572 25.7441 29.206 25.284 29.5994 24.757C30.4084 23.6734 31.6404 22.0406 32.635 22.0035C32.7537 21.9961 33.1248 21.9813 33.6295 22.5602C34.0006 22.9832 34.1639 23.3543 34.1045 23.666Z" fill="#FF4800"/>
</g>
<defs>
<clipPath id="clip0_2071_9311">
<rect width="38" height="38" fill="white" transform="translate(0 0.25)"/>
</clipPath>
</defs>
</svg>
