<svg width="135" height="180" viewBox="0 0 135 180" fill="none" xmlns="http://www.w3.org/2000/svg">
<path d="M67.5 50.7507L99.9316 90.9398C102.041 93.5838 103.359 97.021 103.359 100.458V122.404C103.359 126.105 102.041 129.542 99.668 132.186L90.7031 142.498C87.8027 145.671 83.8476 147.786 79.3652 147.786H55.6348C51.416 147.786 47.1973 145.935 44.2969 142.498L35.332 132.186C32.959 129.542 31.6406 126.105 31.6406 122.404V100.458C31.6406 97.021 32.6953 93.5838 35.0684 90.9398L67.5 50.7507ZM67.5 0.25L5.00977 77.4553C1.8457 81.6857 0 86.445 0 91.733L0 131.393C0 136.681 1.8457 141.969 5.53711 146.2L27.6855 171.582C31.9043 176.606 38.2324 179.25 44.5605 179.25H90.4394C97.0312 179.25 103.096 176.342 107.314 171.582L129.463 146.2C132.891 142.234 135 136.946 135 131.393V91.733C135 86.445 133.154 81.6857 129.99 77.4553L67.5 0.25Z" fill="#FF7735"/>
</svg>
