<svg width="40" height="41" viewBox="0 0 40 41" fill="none" xmlns="http://www.w3.org/2000/svg">
<g clip-path="url(#clip0_2071_9213)">
<path d="M36.1538 30.7082H35.1433V14.0879C35.1433 13.6278 34.7653 13.2499 34.3053 13.2499H16.7976C16.3375 13.2499 15.9596 13.6278 15.9596 14.0879V30.7164H14.9902V6.20902C14.9902 5.94612 14.8669 5.69143 14.6533 5.53534L8.34367 0.827746C7.97397 0.548412 7.44816 0.630569 7.16883 1.00027C6.8895 1.36998 6.96344 1.89579 7.34136 2.17512L13.3142 6.62802V31.5462C13.3142 32.0063 13.6921 32.3842 14.1522 32.3842H16.0089C15.6885 32.8936 15.5078 33.4933 15.5078 34.1341C15.5078 35.9745 17.003 37.4697 18.8433 37.4697C20.6836 37.4697 22.1789 35.9745 22.1789 34.1341C22.1789 33.4933 21.9982 32.8936 21.6777 32.3842H29.343C29.0226 32.8936 28.8418 33.4933 28.8418 34.1341C28.8418 35.9745 30.3371 37.4697 32.1774 37.4697C34.0177 37.4697 35.513 35.9745 35.513 34.1341C35.513 33.4933 35.3322 32.8936 35.0118 32.3842H36.162C36.6221 32.3842 37 32.0063 37 31.5462C36.9918 31.0861 36.6221 30.7082 36.1538 30.7082ZM18.8433 35.7937C17.9314 35.7937 17.1838 35.0543 17.1838 34.1341C17.1838 33.214 17.9232 32.4746 18.8433 32.4746C19.7635 32.4746 20.5029 33.214 20.5029 34.1341C20.5029 35.0543 19.7553 35.7937 18.8433 35.7937ZM17.6356 30.7082V14.9177H30.0742H33.4673V30.7082H17.6356ZM32.1774 35.7937C31.2654 35.7937 30.5178 35.0543 30.5178 34.1341C30.5178 33.214 31.2572 32.4746 32.1774 32.4746C33.0975 32.4746 33.837 33.214 33.837 34.1341C33.837 35.0543 33.0893 35.7937 32.1774 35.7937Z" fill="black"/>
<path d="M21 13.25L21.0081 14.9206V21.4147C21.0081 21.7177 21.171 21.9961 21.4317 22.1435C21.6923 22.2909 22.0181 22.2828 22.2706 22.1272L25.5611 20.0962L28.6968 22.119C28.8353 22.2091 28.99 22.25 29.1448 22.25C29.2833 22.25 29.4217 22.2172 29.5439 22.1517C29.8127 22.0043 29.9756 21.7259 29.9756 21.4147V14.9206L30 13.25H21ZM28.314 19.8915L26.0172 18.4092C25.7484 18.2373 25.4063 18.2291 25.1376 18.401L22.6697 19.9242V14.9206H28.314V19.8915Z" fill="#FF5A0A"/>
<path d="M28.1941 28.112H27.7833C27.3232 28.112 26.9453 28.49 26.9453 28.95C26.9453 29.4101 27.3232 29.788 27.7833 29.788H28.1941C28.6542 29.788 29.0321 29.4101 29.0321 28.95C29.0321 28.49 28.6542 28.112 28.1941 28.112Z" fill="black"/>
<path d="M24.8903 28.1121H19.5255C19.0654 28.1121 18.6875 28.49 18.6875 28.9501C18.6875 29.4101 19.0654 29.7881 19.5255 29.7881H24.8903C25.3504 29.7881 25.7283 29.4101 25.7283 28.9501C25.7283 28.49 25.3504 28.1121 24.8903 28.1121Z" fill="black"/>
</g>
<defs>
<clipPath id="clip0_2071_9213">
<rect width="40" height="40" fill="white" transform="translate(0 0.25)"/>
</clipPath>
</defs>
</svg>
