<svg width="10" height="10" viewBox="0 0 10 10" fill="none" xmlns="http://www.w3.org/2000/svg">
<path d="M4.68359 0.462891C4.76953 0.355469 4.94141 0.355469 5.04883 0.462891L9.53906 4.95312C9.64648 5.06055 9.64648 5.21094 9.53906 5.31836L5.04883 9.80859C4.94141 9.91602 4.76953 9.91602 4.68359 9.80859L4.25391 9.40039C4.14648 9.29297 4.14648 9.12109 4.25391 9.03516L7.58398 5.68359H0.257812C0.107422 5.68359 0 5.57617 0 5.42578V4.82422C0 4.69531 0.107422 4.56641 0.257812 4.56641H7.58398L4.25391 1.23633C4.14648 1.15039 4.14648 0.978516 4.25391 0.871094L4.68359 0.462891Z" fill="#797979"/>
</svg>
