<svg width="13" height="13" viewBox="0 0 13 13" fill="none" xmlns="http://www.w3.org/2000/svg">
<path d="M10.0215 1.67187H9.57368V1.21875C9.57368 0.95986 9.36378 0.75 9.10488 0.75C8.84603 0.75 8.63617 0.95986 8.63617 1.21875V1.67187H4.0371V1.21875C4.0371 0.95986 3.82724 0.75 3.56835 0.75C3.30946 0.75 3.0996 0.95986 3.0996 1.21875V1.67187H2.65183C1.37376 1.67187 0.333984 2.71165 0.333984 3.9897V10.4321C0.333984 11.7102 1.37376 12.75 2.65183 12.75H10.0215C11.2996 12.75 12.3393 11.7102 12.3393 10.4321V3.9897C12.3393 2.71165 11.2996 1.67187 10.0215 1.67187ZM2.65183 2.60937H3.0996V3.52343C3.0996 3.78232 3.30946 3.99218 3.56835 3.99218C3.82724 3.99218 4.0371 3.78232 4.0371 3.52343V2.60937H8.63619V3.52343C8.63619 3.78232 8.84605 3.99218 9.10498 3.99218C9.36388 3.99218 9.57368 3.78232 9.57368 3.52343V2.60937H10.0215C10.7826 2.60937 11.4018 3.22859 11.4018 3.9897V4.43749H1.27148V3.9897C1.27148 3.22859 1.89069 2.60937 2.65183 2.60937ZM10.0215 11.8125H2.65183C1.89069 11.8125 1.27148 11.1933 1.27148 10.4321V5.37499H11.4018V10.4321C11.4018 11.1933 10.7826 11.8125 10.0215 11.8125ZM4.49805 7.21875C4.49805 7.47764 4.28819 7.6875 4.0293 7.6875H3.10743C2.84854 7.6875 2.63868 7.47764 2.63868 7.21875C2.63868 6.95986 2.84854 6.75 3.10743 6.75H4.0293C4.28816 6.75 4.49805 6.95986 4.49805 7.21875ZM10.0347 7.21875C10.0347 7.47764 9.82478 7.6875 9.56588 7.6875H8.64402C8.38513 7.6875 8.17527 7.47764 8.17527 7.21875C8.17527 6.95986 8.38513 6.75 8.64402 6.75H9.56588C9.82478 6.75 10.0347 6.95986 10.0347 7.21875ZM7.26367 7.21875C7.26367 7.47764 7.05381 7.6875 6.79492 7.6875H5.87305C5.61416 7.6875 5.4043 7.47764 5.4043 7.21875C5.4043 6.95986 5.61416 6.75 5.87305 6.75H6.79492C7.05379 6.75 7.26367 6.95986 7.26367 7.21875ZM4.49805 9.9844C4.49805 10.2433 4.28819 10.4531 4.0293 10.4531H3.10743C2.84854 10.4531 2.63868 10.2433 2.63868 9.9844C2.63868 9.7255 2.84854 9.5156 3.10743 9.5156H4.0293C4.28816 9.5156 4.49805 9.7255 4.49805 9.9844ZM10.0347 9.9844C10.0347 10.2433 9.82478 10.4531 9.56588 10.4531H8.64402C8.38513 10.4531 8.17527 10.2433 8.17527 9.9844C8.17527 9.7255 8.38513 9.5156 8.64402 9.5156H9.56588C9.82478 9.5156 10.0347 9.7255 10.0347 9.9844ZM7.26367 9.9844C7.26367 10.2433 7.05381 10.4531 6.79492 10.4531H5.87305C5.61416 10.4531 5.4043 10.2433 5.4043 9.9844C5.4043 9.7255 5.61416 9.5156 5.87305 9.5156H6.79492C7.05379 9.5156 7.26367 9.7255 7.26367 9.9844Z" fill="#9DA0A3"/>
</svg>
