<svg width="40" height="41" viewBox="0 0 40 41" fill="none" xmlns="http://www.w3.org/2000/svg">
<path d="M37.4219 10.1428H12.3047C10.8828 10.1428 9.72656 11.2991 9.72656 12.7209V13.6506H2.57812C1.15625 13.6506 0 14.8069 0 16.2288V29.8225C0 31.2444 1.15625 32.4006 2.57812 32.4006H27.6953C29.1172 32.4006 30.2734 31.2444 30.2734 29.8225V28.8928H37.4219C38.8438 28.8928 40 27.7366 40 26.3147V12.7209C40 11.2991 38.8438 10.1428 37.4219 10.1428ZM28.6797 29.8303C28.6797 30.3772 28.2344 30.8147 27.6953 30.8147H2.57812C2.03125 30.8147 1.59375 30.3694 1.59375 29.8303V16.2366C1.59375 15.6897 2.03906 15.2522 2.57812 15.2522H27.6953C28.2422 15.2522 28.6797 15.6975 28.6797 16.2366V29.8303ZM38.4062 26.3147C38.4062 26.8616 37.9609 27.2991 37.4219 27.2991H30.2812V25.0491H38.4141V26.3147H38.4062ZM38.4062 23.4631H30.2734V21.135H38.4062V23.4631ZM38.4062 19.5413H30.2734V16.2366C30.2734 14.8147 29.1172 13.6584 27.6953 13.6584H11.3203V12.7288C11.3203 12.1819 11.7656 11.7444 12.3047 11.7444H37.4219C37.9688 11.7444 38.4062 12.1897 38.4062 12.7288V19.5413Z" fill="black"/>
<path d="M7.32031 27.2991H4.10937C3.67187 27.2991 3.3125 27.6584 3.3125 28.0959C3.3125 28.5334 3.67187 28.8928 4.10937 28.8928H7.32031C7.75781 28.8928 8.11719 28.5334 8.11719 28.0959C8.11719 27.6584 7.75781 27.2991 7.32031 27.2991Z" fill="#FF5A0A"/>
<path d="M13.293 27.2991H10.082C9.64453 27.2991 9.28516 27.6584 9.28516 28.0959C9.28516 28.5334 9.64453 28.8928 10.082 28.8928H13.293C13.7305 28.8928 14.0898 28.5334 14.0898 28.0959C14.0898 27.6584 13.7383 27.2991 13.293 27.2991Z" fill="#FF5A0A"/>
<path d="M19.3125 27.2991H16.1016C15.6641 27.2991 15.3047 27.6584 15.3047 28.0959C15.3047 28.5334 15.6641 28.8928 16.1016 28.8928H19.3125C19.75 28.8928 20.1094 28.5334 20.1094 28.0959C20.1094 27.6584 19.75 27.2991 19.3125 27.2991Z" fill="#FF5A0A"/>
<path d="M26.0117 27.2991H25.8945C25.457 27.2991 25.0977 27.6584 25.0977 28.0959C25.0977 28.5334 25.457 28.8928 25.8945 28.8928H26.0117C26.4492 28.8928 26.8086 28.5334 26.8086 28.0959C26.8086 27.6584 26.4492 27.2991 26.0117 27.2991Z" fill="#FF5A0A"/>
<path d="M23.5156 27.2991H22.0781C21.6406 27.2991 21.2812 27.6584 21.2812 28.0959C21.2812 28.5334 21.6406 28.8928 22.0781 28.8928H23.5156C23.9531 28.8928 24.3125 28.5334 24.3125 28.0959C24.3125 27.6584 23.9531 27.2991 23.5156 27.2991Z" fill="#FF5A0A"/>
<path d="M6.58203 16.8459H5.07422C4.05859 16.8459 3.23828 17.6741 3.23828 18.6819V20.1975C3.23828 21.2131 4.06641 22.0334 5.07422 22.0334H6.58203C7.59766 22.0334 8.41797 21.2053 8.41797 20.1975V18.6819C8.41797 17.6663 7.59766 16.8459 6.58203 16.8459ZM6.82422 20.1897C6.82422 20.3225 6.71484 20.4319 6.58203 20.4319H5.07422C4.94141 20.4319 4.83203 20.3225 4.83203 20.1897V18.6741C4.83203 18.5413 4.94141 18.4319 5.07422 18.4319H6.58203C6.71484 18.4319 6.82422 18.5413 6.82422 18.6741V20.1897Z" fill="#FF5A0A"/>
</svg>
