<svg width="250" height="90" viewBox="0 0 250 90" fill="none" xmlns="http://www.w3.org/2000/svg">
<path d="M63.8393 71.5231C61.6451 71.4418 59.6135 72.5799 58.6383 74.5311C58.7195 71.8482 59.5322 69.8971 62.214 68.6776L65.871 67.0516C67.7401 66.2386 68.3903 65.7508 68.3903 64.2061V63.1493H66.5211V63.9622C66.5211 64.6939 66.1961 64.9378 64.8958 65.5069L61.4826 67.0516C59.8573 67.6207 58.557 68.8402 57.8256 70.3849C57.1755 72.2547 56.8504 74.2059 56.9317 76.1571C56.8504 78.2709 57.4193 80.3846 58.4757 82.2545C59.5322 83.7992 61.1575 84.5309 63.433 84.5309C65.1396 84.6122 66.8462 83.9618 68.0652 82.7423C70.4219 80.0594 70.5032 75.9945 68.2277 73.2303C67.09 72.0921 65.4647 71.4418 63.8393 71.5231ZM66.6024 81.6041C65.7897 82.4984 64.652 82.9049 63.433 82.9049C60.8325 82.9049 58.9633 81.035 58.9633 77.9457C58.8821 76.6449 59.3697 75.4254 60.2636 74.5311C61.1575 73.6368 62.2953 73.149 63.5955 73.149C64.7333 73.149 65.871 73.6368 66.6837 74.4498C68.309 76.5636 68.309 79.4903 66.6024 81.6041ZM78.4673 69.8158C76.5982 69.7345 74.8103 70.4662 73.51 71.8482C72.1285 73.3116 71.3971 75.2628 71.5597 77.214C71.4784 79.1652 72.2098 81.1163 73.6726 82.4984C75.0541 83.8805 77.0045 84.6122 78.9549 84.5309C80.9053 84.5309 82.6932 83.7992 84.156 82.5797L83.262 81.1163C82.1243 82.2545 80.5802 82.8236 78.9549 82.8236C77.4921 82.8236 76.1106 82.3358 75.1354 81.2789C74.0789 80.222 73.51 78.6774 73.51 77.1327H84.3185C84.3185 76.7262 84.3998 76.401 84.3998 76.2384C84.481 74.5311 83.9122 72.9051 82.8557 71.6044C81.718 70.4662 80.0926 69.7345 78.4673 69.8158ZM73.5913 75.8319C74.0789 73.0677 76.0293 71.4417 78.386 71.4417C80.5802 71.4417 82.2868 73.0677 82.3681 75.8319H73.5913ZM94.0705 69.8158C92.4451 69.7345 90.9011 70.3849 89.8446 71.6044C89.6008 71.8482 89.357 72.1734 89.1945 72.5799H89.1132V71.6044C89.1132 70.6288 88.5444 70.141 87.4066 70.141H85.5375V71.7669H86.6752C87.0003 71.6856 87.2441 71.9295 87.3254 72.1734C87.3254 72.2547 87.3254 72.2547 87.3254 72.336V89.734H89.1945V83.0675C89.1945 82.5797 89.1945 82.1732 89.1132 81.848H89.1945L89.357 82.0919C90.3322 83.6366 92.0388 84.5309 93.8267 84.4496C95.5333 84.5309 97.2399 83.7179 98.3776 82.4171C99.5966 80.9537 100.247 79.0026 100.165 77.0514C100.247 75.1002 99.6779 73.2303 98.4589 71.6856C97.4024 70.5475 95.7771 69.8158 94.0705 69.8158ZM96.9148 81.3602C96.1021 82.3358 94.9644 82.9049 93.6641 82.9049C92.3639 82.9862 91.1449 82.3358 90.4135 81.1976C89.6008 80.0594 89.1945 78.6774 89.2758 77.214C89.2758 73.4742 91.2262 71.5231 93.8267 71.5231C96.4272 71.5231 98.2963 73.7994 98.2963 77.1327C98.2963 78.7587 97.8087 80.222 96.9148 81.3602ZM108.698 69.8158C106.829 69.7345 105.041 70.4662 103.741 71.8482C102.36 73.3116 101.628 75.2628 101.791 77.214C101.71 79.1652 102.441 81.1163 103.904 82.4984C105.285 83.8805 107.236 84.6122 109.186 84.5309C111.136 84.5309 112.924 83.7992 114.387 82.5797L113.493 81.1163C112.355 82.2545 110.811 82.8236 109.186 82.8236C107.723 82.8236 106.342 82.3358 105.367 81.2789C104.31 80.222 103.741 78.6774 103.741 77.1327H114.55C114.55 76.7262 114.631 76.401 114.631 76.2384C114.712 74.5311 114.143 72.9051 113.087 71.6044C111.949 70.4662 110.324 69.7345 108.698 69.8158ZM103.822 75.8319C104.31 73.0677 106.26 71.4417 108.617 71.4417C110.811 71.4417 112.518 73.0677 112.599 75.8319H103.822ZM130.965 78.4335L134.541 84.287H132.266L129.259 79.1652C128.771 78.3522 127.877 77.8644 126.983 77.9457H126.008V84.287H124.139V77.9457H123.083C122.189 77.8644 121.295 78.3522 120.807 79.1652L117.8 84.287H115.525L119.101 78.4335C119.426 77.8644 119.913 77.4579 120.482 77.214L120.726 77.1327V77.0514C120.238 76.8888 119.832 76.4823 119.588 75.9945L117.882 72.4986C117.557 72.0108 117.313 71.8482 116.5 71.8482H115.931V70.2223H116.988C118.45 70.2223 118.938 70.3849 119.507 71.6044L121.295 75.3441C121.62 75.9945 122.351 76.401 123.083 76.3197H124.139V70.2223H126.008V76.3197H127.065C127.796 76.401 128.527 75.9945 128.853 75.3441L130.722 71.6044C131.372 70.3849 131.778 70.2223 133.241 70.2223H134.297V71.8482H133.647C132.916 71.8482 132.591 72.0108 132.347 72.4986L130.64 75.9945C130.397 76.401 130.072 76.7262 129.665 76.9701L129.503 77.1327C130.153 77.2953 130.722 77.7018 130.965 78.4335ZM145.025 66.9703H143.399V64.5313H145.025V66.9703ZM139.173 66.9703V64.5313H140.799V66.9703H139.173ZM142.262 69.8158C140.392 69.7345 138.605 70.4662 137.304 71.8482C135.923 73.3116 135.191 75.2628 135.354 77.214C135.273 79.1652 136.004 81.1163 137.467 82.4984C138.848 83.8805 140.799 84.6122 142.749 84.5309C144.618 84.4496 146.487 83.7992 147.95 82.5797L147.056 81.1163C145.837 82.1732 144.374 82.7423 142.749 82.8236C141.286 82.8236 139.905 82.3358 138.93 81.3602C137.873 80.3033 137.304 78.84 137.304 77.2953H148.113C148.113 77.2953 148.194 76.6449 148.194 76.3197C148.275 74.6124 147.706 72.9864 146.65 71.6856C145.593 70.4662 143.968 69.7345 142.262 69.8158ZM137.386 75.7506C137.629 73.2303 139.742 71.3605 142.18 71.3605C144.456 71.3605 146.081 72.9051 146.162 75.7506H137.386ZM167.373 82.5797H168.186V84.2057H166.641C165.504 84.2057 165.179 83.7179 165.097 82.661L164.447 75.2628L164.366 72.7425H164.285C164.041 73.4742 163.797 74.2059 163.472 74.8563L159.653 82.5797H157.783L153.964 74.8563C153.72 74.2059 153.476 73.6368 153.233 72.9864L153.151 72.7425H153.07C153.07 73.8807 152.989 74.775 152.989 75.2628L152.339 82.661C152.257 83.7179 151.932 84.2057 150.795 84.2057H149.25V82.5797H150.063H150.144C150.469 82.5797 150.632 82.3358 150.632 82.0106L151.607 70.141H153.639L157.865 78.9213L158.677 80.7098L159.49 78.9213L163.716 70.141H165.748L166.723 82.0106C166.723 82.4171 166.967 82.5797 167.373 82.5797ZM189.071 71.7669V73.4742H187.446V72.4173C187.446 72.336 187.446 72.336 187.446 72.2547C187.364 72.0108 187.121 71.7669 186.796 71.8482H183.301V84.287H181.432V71.8482H177.938C177.856 71.8482 177.856 71.8482 177.775 71.8482C177.531 71.9295 177.287 72.1734 177.369 72.4986V73.5555H175.743V71.8482C175.743 70.7101 176.231 70.2223 177.45 70.2223H187.364C188.583 70.2223 189.071 70.6288 189.071 71.7669ZM196.873 69.8158C195.003 69.7345 193.216 70.4662 191.915 71.8482C190.534 73.3116 189.884 75.2628 189.965 77.214C189.884 79.1652 190.615 81.1163 192.078 82.4984C193.459 83.8805 195.41 84.6122 197.36 84.5309C199.311 84.5309 201.098 83.7992 202.561 82.5797L201.667 81.1163C200.53 82.2545 198.986 82.8236 197.36 82.8236C195.897 82.8236 194.516 82.3358 193.541 81.2789C192.484 80.222 191.915 78.6774 191.915 77.1327H202.724C202.724 76.7262 202.805 76.401 202.805 76.2384C202.886 74.5311 202.317 72.9051 201.261 71.6044C200.205 70.4662 198.579 69.7345 196.873 69.8158ZM192.078 75.8319C192.565 73.0677 194.516 71.4417 196.873 71.4417C199.067 71.4417 200.773 73.0677 200.855 75.8319H192.078ZM218.002 82.5797H219.14V84.2057H217.189C215.97 84.2057 215.483 83.7179 215.483 82.4984V72.4173C215.483 72.336 215.483 72.336 215.483 72.2547C215.401 72.0108 215.158 71.7669 214.833 71.8482H207.681V84.287H205.812V71.8482H204.024V70.2223H215.726C216.945 70.2223 217.433 70.7101 217.433 71.9295V82.0106C217.352 82.0106 217.352 82.0919 217.352 82.1732C217.433 82.4171 217.677 82.661 218.002 82.5797ZM232.142 82.5797H233.28V84.2057H231.33C230.111 84.2057 229.623 83.7179 229.623 82.4984V72.4173C229.623 72.336 229.623 72.336 229.623 72.2547C229.542 72.0108 229.298 71.7669 228.973 71.8482H225.153V72.9864C225.153 73.5555 225.153 74.2059 225.072 74.8563C224.991 76.5636 224.747 78.1896 224.259 79.8155C223.447 82.1732 222.146 84.3683 219.627 84.3683V82.661C221.09 82.661 222.147 81.035 222.634 78.9213C223.122 76.8888 223.366 74.9376 223.366 72.9051V71.8482H221.578V70.2223H229.786C231.005 70.2223 231.492 70.7101 231.492 71.9295V82.0106C231.492 82.0106 231.492 82.0919 231.492 82.1732C231.573 82.4171 231.817 82.661 232.142 82.5797ZM241.813 69.8158C239.863 69.7345 237.912 70.5475 236.531 71.9295C235.149 73.3116 234.336 75.1815 234.418 77.1327C234.336 79.0839 235.149 81.035 236.531 82.4171C239.456 85.2626 244.088 85.2626 247.014 82.4171C248.396 81.035 249.208 79.0839 249.127 77.1327C249.208 75.1815 248.396 73.3116 247.014 71.9295C245.714 70.5475 243.845 69.8158 241.813 69.8158ZM245.714 81.1976C243.682 83.3114 240.188 83.3927 238.075 81.3602C237.993 81.2789 237.993 81.2789 237.912 81.1976C236.856 80.1407 236.287 78.5961 236.287 77.1327C236.206 75.6693 236.856 74.2059 237.912 73.149C240.025 71.0353 243.52 70.954 245.633 73.149C246.689 74.2059 247.258 75.6693 247.258 77.1327C247.339 78.6774 246.77 80.1407 245.714 81.1976ZM74.4852 52.8243C73.4288 53.7186 72.2098 54.4503 70.9095 54.8568C69.3655 55.3446 67.7401 55.5884 66.1148 55.5884C62.3765 55.5884 58.8008 54.4503 55.7939 52.2552L59.0446 46.0765C60.1011 47.052 61.2388 47.7837 62.4578 48.3528C63.5143 48.8406 64.652 49.0845 65.7897 49.0845C66.7649 49.1658 67.7401 48.8406 68.5528 48.1902C69.1217 47.7024 69.4467 46.9708 69.4467 46.2391C69.4467 45.8326 69.3655 45.4261 69.2029 45.1009C68.9591 44.7757 68.7153 44.4505 68.3903 44.2066C67.9839 43.8814 67.4963 43.6375 67.0087 43.4749C66.4399 43.231 65.7085 42.9871 64.8958 42.6619C63.9206 42.3367 62.9454 42.0115 61.9702 41.605C61.0763 41.2798 60.1823 40.792 59.4509 40.1416C58.7195 39.4912 58.0694 38.6783 57.6631 37.784C57.1755 36.6458 56.9317 35.4263 57.0129 34.2068C57.0129 32.8247 57.2567 31.4426 57.7443 30.2232C58.2319 29.085 58.8821 28.1094 59.776 27.2151C60.6699 26.3208 61.7264 25.6704 62.9454 25.2639C64.3269 24.7761 65.7085 24.5322 67.1713 24.5322C68.7153 24.5322 70.2594 24.6948 71.7222 25.1013C73.2663 25.5078 74.8103 26.0769 76.2731 26.8899L73.2662 32.8247C72.4536 32.2556 71.6409 31.7678 70.747 31.3613C69.9343 31.0361 69.1217 30.8735 68.309 30.8735C67.4151 30.8735 66.6024 31.1174 65.871 31.6052C65.2209 32.093 64.8958 32.7434 64.8958 33.4751C64.8958 33.9629 65.0583 34.4507 65.3834 34.7759C65.7085 35.1824 66.1148 35.4263 66.6024 35.6702C67.1713 35.9141 67.7401 36.158 68.309 36.3206C68.9591 36.4832 69.528 36.6458 70.1781 36.8897C72.2098 37.4588 74.1602 38.597 75.623 40.2229C76.842 41.7676 77.4108 43.7188 77.3296 45.67C77.4108 47.0521 77.0858 48.4341 76.5982 49.7349C76.1106 50.9544 75.2979 52.0113 74.4852 52.8243ZM88.3006 50.2227H99.9217L101.791 55.6697H109.755L98.3776 25.6704H89.8446L78.4673 55.6697H86.4314L88.3006 50.2227ZM94.1517 34.9385L97.5649 44.6944H90.7385L94.1517 34.9385ZM141.449 55.6697H134.785L119.669 37.2962V55.6697H111.543V25.6704H118.125L133.322 43.9627V25.6704H141.449V55.6697ZM155.102 55.6697H146.894V25.6704H155.102V38.0279L165.097 25.6704H175.174L162.659 39.8164L176.312 55.6697H165.748L155.102 42.6619V55.6697ZM180.619 51.1983C182.082 52.6617 183.87 53.7186 185.739 54.5316C189.965 56.0762 194.597 56.0762 198.823 54.5316C200.773 53.7999 202.48 52.6617 204.024 51.1983C205.487 49.8162 206.625 48.1089 207.356 46.2391C208.981 42.3367 208.981 37.9466 207.356 34.0442C206.543 32.1743 205.406 30.5484 204.024 29.085C202.561 27.6216 200.773 26.5647 198.823 25.833C194.597 24.207 189.965 24.207 185.739 25.833C177.775 29.0037 173.955 38.0279 177.125 45.9139C177.938 47.865 179.075 49.6536 180.619 51.1983ZM184.683 36.8897C185.577 34.9385 187.121 33.3938 189.071 32.6621C192.159 31.4426 195.654 32.093 198.092 34.3694C198.823 35.1011 199.473 35.9954 199.879 36.971C200.773 39.0034 200.773 41.3611 199.879 43.4749C199.473 44.4505 198.823 45.3448 198.092 46.0765C197.36 46.8082 196.385 47.3772 195.41 47.7837C193.378 48.5967 191.103 48.5967 189.071 47.7837C188.096 47.3772 187.202 46.8082 186.471 46.0765C185.739 45.3448 185.089 44.4505 184.683 43.4749C183.789 41.2798 183.789 39.0034 184.683 36.8897ZM222.065 38.3531L219.465 55.6697H211.663L216.783 25.6704H224.503L230.517 41.605L236.449 25.6704H244.17L249.29 55.6697H241.488L238.887 38.3531L231.817 55.6697H228.729L222.065 38.3531Z" fill="white"/>
<path d="M21.1743 16.0774L31.1701 28.4349C31.8203 29.2479 32.2266 30.3048 32.2266 31.3616V38.1095C32.2266 39.2476 31.8203 40.3045 31.0889 41.1175L28.3258 44.2882C27.4319 45.2638 26.2129 45.9142 24.8313 45.9142H17.5174C16.2171 45.9142 14.9168 45.3451 14.0229 44.2882L11.2598 41.1175C10.5284 40.3045 10.1221 39.2476 10.1221 38.1095V31.3616C10.1221 30.3048 10.4472 29.2479 11.1786 28.4349L21.1743 16.0774ZM21.1743 0.549316L1.91418 24.2886C0.938983 25.5894 0.370117 27.0528 0.370117 28.6788V40.8736C0.370117 42.4996 0.938983 44.1256 2.07671 45.4264L8.9031 53.2311C10.2034 54.7758 12.1538 55.5887 14.1042 55.5887H28.2445C30.2762 55.5887 32.1453 54.6945 33.4456 53.2311L40.272 45.4264C41.3284 44.2069 41.9786 42.5809 41.9786 40.8736V28.6788C41.9786 27.0528 41.4097 25.5894 40.4345 24.2886L21.1743 0.549316Z" fill="#FF792D"/>
</svg>
