<svg width="22" height="19" viewBox="0 0 22 19" fill="none" xmlns="http://www.w3.org/2000/svg">
<path d="M7.99467 16.9381L8.45484 12.3641C8.47198 12.1937 8.54968 12.0351 8.67382 11.9171L17.1274 3.88225C17.2528 3.763 17.0982 3.56494 16.9521 3.65772L5.97923 10.6235C5.79648 10.7395 5.57103 10.7666 5.36603 10.6971L0.678641 9.10791C0.0421941 8.89213 0.027399 7.99734 0.656363 7.76064L20.0562 0.459827C20.7973 0.180936 21.5537 0.831572 21.3888 1.60602L18.0746 17.1655C17.9003 17.984 16.9353 18.3449 16.2666 17.8418L11.6084 14.3365C11.5523 14.2943 11.4739 14.2989 11.4233 14.3475L8.47756 17.1733C8.28553 17.3575 7.96803 17.2029 7.99467 16.9381Z" fill="white"/>
</svg>
