<svg width="21" height="14" viewBox="0 0 21 14" fill="none" xmlns="http://www.w3.org/2000/svg">
<path d="M11.6556 13.1755C4.65521 13.1755 0.663752 8.28986 0.5 0.147158H4.02067C4.13325 6.11848 6.71235 8.6448 8.75925 9.16677V0.147158H12.065V5.29377C14.0812 5.07454 16.21 2.72568 16.9264 0.136719H20.2219C19.9532 1.47689 19.4164 2.74614 18.6451 3.86517C17.8738 4.9842 16.8846 5.92897 15.7392 6.64044C17.0174 7.28938 18.1462 8.20734 19.0512 9.33379C19.9562 10.4602 20.6168 11.7696 20.9895 13.1755H17.3562C16.5784 10.7014 14.6339 8.78051 12.065 8.51953V13.1755H11.6659H11.6556Z" fill="white"/>
</svg>
