<svg width="21" height="21" viewBox="0 0 21 21" fill="none" xmlns="http://www.w3.org/2000/svg">
<path fill-rule="evenodd" clip-rule="evenodd" d="M17.4525 3.67946C15.6162 1.84314 13.1678 0.86377 10.5969 0.86377C5.2104 0.86377 0.803223 5.27094 0.803223 10.6575C0.803223 12.3714 1.29292 14.0853 2.14987 15.5543L0.803223 20.4512L5.94494 19.1046C7.414 19.8391 9.00546 20.3288 10.5969 20.3288C15.9835 20.3288 20.3907 15.9216 20.3907 10.5351C20.3907 7.96421 19.2889 5.51579 17.4525 3.67946ZM10.5969 18.7373C9.12788 18.7373 7.65883 18.37 6.43462 17.6355L6.18976 17.5131L3.12922 18.37L3.98619 15.4319L3.74133 15.0647C2.88438 13.718 2.51712 12.249 2.51712 10.7799C2.51712 6.37274 6.18977 2.70009 10.5969 2.70009C12.8005 2.70009 14.7593 3.55704 16.3508 5.0261C17.9422 6.61758 18.6768 8.57632 18.6768 10.7799C18.6768 15.0647 15.1265 18.7373 10.5969 18.7373ZM15.0041 12.6162C14.7593 12.4938 13.5351 11.8817 13.2902 11.8817C13.0454 11.7593 12.9229 11.7593 12.8005 12.0041C12.6781 12.249 12.1884 12.7387 12.066 12.9835C11.9436 13.1059 11.8211 13.1059 11.5763 13.1059C11.3315 12.9835 10.597 12.7387 9.61758 11.8817C8.88305 11.2696 8.39336 10.4126 8.27094 10.1678C8.14852 9.92296 8.27095 9.80054 8.39337 9.67811C8.51579 9.55569 8.6382 9.43327 8.76062 9.31085C8.88304 9.18843 8.88305 9.06601 9.00548 8.94359C9.1279 8.82117 9.00548 8.69874 9.00548 8.57632C9.00548 8.4539 8.51578 7.22969 8.27094 6.74C8.14852 6.37274 7.90368 6.37274 7.78126 6.37274C7.65884 6.37274 7.53639 6.37274 7.29155 6.37274C7.16912 6.37274 6.92428 6.37274 6.67944 6.61758C6.4346 6.86242 5.82251 7.47453 5.82251 8.69874C5.82251 9.92296 6.67945 11.0248 6.80187 11.2696C6.92429 11.392 8.51576 13.9629 10.9642 14.9422C13.0454 15.7992 13.4126 15.5543 13.9023 15.5543C14.392 15.5543 15.3714 14.9422 15.4938 14.4526C15.7386 13.8404 15.7386 13.3508 15.6162 13.3508C15.4938 12.7387 15.249 12.7387 15.0041 12.6162Z" fill="white"/>
</svg>
