<svg width="21" height="19" viewBox="0 0 21 19" fill="none" xmlns="http://www.w3.org/2000/svg">
<path fill-rule="evenodd" clip-rule="evenodd" d="M5.40839 1.25475C5.02946 0.436233 4.63075 0.41985 4.27035 0.405448C3.97539 0.393257 3.63805 0.394054 3.3011 0.394054C2.96374 0.394054 2.41581 0.517068 1.95248 1.00891C1.48873 1.50077 0.182129 2.68972 0.182129 5.1078C0.182129 7.52611 1.99472 9.86277 2.24724 10.191C2.50021 10.5186 5.74622 15.6397 10.8866 17.6096C15.1591 19.2468 16.0285 18.9212 16.9558 18.8392C17.8831 18.7574 19.9482 17.6506 20.3695 16.5029C20.7911 15.3553 20.7911 14.3717 20.6647 14.1662C20.5383 13.9614 20.2009 13.8384 19.6952 13.5928C19.1893 13.3469 16.7028 12.1578 16.2393 11.9938C15.7755 11.83 15.4384 11.7481 15.101 12.2402C14.7638 12.7317 13.7952 13.8384 13.5 14.1662C13.2051 14.4947 12.9099 14.5357 12.4042 14.2899C11.8982 14.0432 10.2693 13.5247 8.3369 11.8506C6.83332 10.5478 5.81832 8.93903 5.52315 8.44693C5.22819 7.95547 5.49166 7.68925 5.74524 7.4442C5.97249 7.22397 6.25118 6.87033 6.50416 6.58349C6.7565 6.29646 6.84069 6.09163 7.00927 5.76378C7.17806 5.43574 7.09366 5.1487 6.96728 4.90285C6.84069 4.65702 5.85813 2.22665 5.40839 1.25475Z" fill="white"/>
</svg>
