<svg width="25" height="21" viewBox="0 0 25 21" fill="none" xmlns="http://www.w3.org/2000/svg">
<path d="M9.04494 19.3164L9.57171 14.0804C9.59134 13.8853 9.68028 13.7038 9.82238 13.5687L19.4994 4.37098C19.643 4.23447 19.466 4.00775 19.2988 4.11395L6.73782 12.0879C6.52862 12.2207 6.27054 12.2517 6.03587 12.1721L0.670087 10.3529C-0.0584704 10.1059 -0.0754068 9.08164 0.644586 8.81068L22.8522 0.453235C23.7005 0.13398 24.5664 0.878781 24.3775 1.76531L20.5837 19.5767C20.3842 20.5137 19.2795 20.9268 18.514 20.3508L13.1816 16.3382C13.1175 16.2899 13.0277 16.2953 12.9697 16.3509L9.59772 19.5856C9.3779 19.7965 9.01445 19.6194 9.04494 19.3164Z" fill="#1B1B1B"/>
</svg>
