<svg width="33" height="26" viewBox="0 0 33 26" fill="none" xmlns="http://www.w3.org/2000/svg">
<path d="M3 3.125H6.56175C7.4082 3.125 8.16299 3.65786 8.44635 4.45547L9.26555 6.76136M9.26555 6.76136L13.0402 17.3862C13.3891 18.3683 14.4337 18.9178 15.4407 18.649L28.516 15.1576C29.3912 14.9239 30 14.1312 30 13.2253V8.76136C30 7.65679 29.1046 6.76136 28 6.76136H9.26555Z" stroke="#0B1219" stroke-width="1.6"/>
<path d="M8.86667 22.125C8.86667 23.3032 9.82179 24.2583 11 24.2583C12.1782 24.2583 13.1333 23.3032 13.1333 22.125C13.1333 20.9468 12.1782 19.9917 11 19.9917C9.82179 19.9917 8.86667 20.9468 8.86667 22.125ZM10 22.525H11V21.725H10V22.525Z" fill="#0B1219"/>
<path d="M21.8667 22.125C21.8667 23.3032 22.8218 24.2583 24 24.2583C25.1782 24.2583 26.1333 23.3032 26.1333 22.125C26.1333 20.9468 25.1782 19.9917 24 19.9917C22.8218 19.9917 21.8667 20.9468 21.8667 22.125ZM23 22.525H24V21.725H23V22.525Z" fill="#0B1219"/>
</svg>
