<svg width="217" height="84" viewBox="0 0 217 84" fill="none" xmlns="http://www.w3.org/2000/svg">
<g clip-path="url(#clip0_2423_2969)">
<path d="M62.681 64.3191C61.0327 64.258 59.5064 65.1131 58.7738 66.5789C58.8348 64.5634 59.4453 63.0976 61.46 62.1814L64.2073 60.9599C65.6115 60.3492 66.0999 59.9827 66.0999 58.8223V58.0283H64.6957V58.639C64.6957 59.1887 64.4515 59.3719 63.4747 59.7995L60.9106 60.9599C59.6895 61.3874 58.7127 62.3036 58.1632 63.464C57.6748 64.8687 57.4306 66.3346 57.4917 67.8004C57.4306 69.3883 57.858 70.9763 58.6517 72.3811C59.4453 73.5415 60.6663 74.0912 62.3758 74.0912C63.6579 74.1523 64.9399 73.6636 65.8557 72.7475C67.6262 70.732 67.6872 67.6782 65.9778 65.6017C65.1231 64.7466 63.9021 64.258 62.681 64.3191ZM64.7568 71.8924C64.1463 72.5643 63.2916 72.8697 62.3758 72.8697C60.4221 72.8697 59.018 71.4649 59.018 69.144C58.9569 68.1668 59.3232 67.2507 59.9948 66.5789C60.6663 65.907 61.5211 65.5406 62.4979 65.5406C63.3526 65.5406 64.2073 65.907 64.8178 66.5178C66.0389 68.1058 66.0389 70.3045 64.7568 71.8924ZM73.6703 63.0365C72.2661 62.9754 70.923 63.5251 69.9461 64.5634C68.9083 65.6627 68.3588 67.1286 68.4809 68.5944C68.4199 70.0602 68.9693 71.526 70.0682 72.5643C71.1061 73.6026 72.5713 74.1523 74.0366 74.0912C75.5018 74.0912 76.8449 73.5415 77.9439 72.6254L77.2723 71.526C76.4176 72.3811 75.2576 72.8086 74.0366 72.8086C72.9376 72.8086 71.8998 72.4421 71.1672 71.6481C70.3735 70.8542 69.9461 69.6937 69.9461 68.5333H78.066C78.066 68.2279 78.127 67.9836 78.127 67.8615C78.1881 66.5789 77.7607 65.3574 76.967 64.3801C76.1123 63.5251 74.8913 62.9754 73.6703 63.0365ZM70.0072 67.5561C70.3735 65.4795 71.8387 64.258 73.6092 64.258C75.2576 64.258 76.5397 65.4795 76.6007 67.5561H70.0072ZM85.3921 63.0365C84.1711 62.9754 83.0111 63.464 82.2174 64.3801C82.0343 64.5634 81.8511 64.8077 81.729 65.113H81.668V64.3801C81.668 63.6472 81.2406 63.2808 80.3859 63.2808H78.9817V64.5023H79.8364C80.0806 64.4412 80.2638 64.6244 80.3249 64.8077C80.3249 64.8687 80.3249 64.8688 80.3249 64.9298V78H81.729V72.9918C81.729 72.6254 81.729 72.32 81.668 72.0757H81.729L81.8511 72.2589C82.5837 73.4193 83.8658 74.0912 85.209 74.0301C86.491 74.0912 87.7731 73.4804 88.6278 72.5032C89.5436 71.4038 90.032 69.938 89.971 68.4722C90.032 67.0064 89.6046 65.6017 88.6889 64.4412C87.8952 63.5862 86.6742 63.0365 85.3921 63.0365ZM87.5289 71.7092C86.9184 72.4421 86.0637 72.8697 85.0869 72.8697C84.11 72.9307 83.1943 72.4421 82.6448 71.5871C82.0343 70.732 81.729 69.6937 81.7901 68.5944C81.7901 65.7849 83.2553 64.3191 85.209 64.3191C87.1626 64.3191 88.5668 66.0292 88.5668 68.5333C88.5668 69.7548 88.2005 70.8542 87.5289 71.7092ZM96.3813 63.0365C94.9772 62.9754 93.634 63.5251 92.6572 64.5634C91.6193 65.6627 91.0699 67.1286 91.192 68.5944C91.1309 70.0602 91.6804 71.526 92.7793 72.5643C93.8172 73.6026 95.2824 74.1523 96.7476 74.0912C98.2129 74.0912 99.556 73.5415 100.655 72.6254L99.9834 71.526C99.1286 72.3811 97.9687 72.8086 96.7476 72.8086C95.6487 72.8086 94.6108 72.4421 93.8782 71.6481C93.0846 70.8542 92.6572 69.6937 92.6572 68.5333H100.777C100.777 68.2279 100.838 67.9836 100.838 67.8615C100.899 66.5789 100.472 65.3574 99.6781 64.3801C98.8234 63.5251 97.6024 62.9754 96.3813 63.0365ZM92.7183 67.5561C93.0846 65.4795 94.5498 64.258 96.3203 64.258C97.9687 64.258 99.2507 65.4795 99.3118 67.5561H92.7183ZM113.109 69.5105L115.796 73.9079H114.086L111.827 70.0602C111.461 69.4494 110.789 69.083 110.118 69.144H109.385V73.9079H107.981V69.144H107.187C106.516 69.083 105.844 69.4494 105.478 70.0602L103.219 73.9079H101.51L104.196 69.5105C104.44 69.083 104.806 68.7776 105.234 68.5944L105.417 68.5333V68.4722C105.051 68.3501 104.745 68.0447 104.562 67.6782L103.28 65.052C103.036 64.6855 102.853 64.5634 102.242 64.5634H101.815V63.3419H102.609C103.707 63.3419 104.074 63.464 104.501 64.3801L105.844 67.1896C106.088 67.6782 106.638 67.9836 107.187 67.9225H107.981V63.3419H109.385V67.9225H110.179C110.728 67.9836 111.278 67.6782 111.522 67.1896L112.926 64.3801C113.415 63.464 113.72 63.3419 114.819 63.3419H115.612V64.5634H115.124C114.575 64.5634 114.33 64.6855 114.147 65.052L112.865 67.6782C112.682 67.9836 112.438 68.2279 112.133 68.4111L112.01 68.5333C112.499 68.6554 112.926 68.9608 113.109 69.5105ZM123.671 60.8988H122.45V59.0666H123.671V60.8988ZM119.276 60.8988V59.0666H120.497V60.8988H119.276ZM121.596 63.0365C120.191 62.9754 118.848 63.5251 117.871 64.5634C116.834 65.6627 116.284 67.1286 116.406 68.5944C116.345 70.0602 116.895 71.526 117.993 72.5643C119.031 73.6026 120.497 74.1523 121.962 74.0912C123.366 74.0301 124.77 73.5415 125.869 72.6254L125.198 71.526C124.282 72.32 123.183 72.7475 121.962 72.8086C120.863 72.8086 119.825 72.4421 119.092 71.7092C118.299 70.9152 117.871 69.8159 117.871 68.6554H125.991C125.991 68.6554 126.052 68.1668 126.052 67.9225C126.113 66.6399 125.686 65.4184 124.892 64.4412C124.099 63.5251 122.878 62.9754 121.596 63.0365ZM117.932 67.495C118.116 65.6017 119.703 64.1969 121.534 64.1969C123.244 64.1969 124.465 65.3574 124.526 67.495H117.932ZM140.46 72.6254H141.071V73.8469H139.911C139.056 73.8469 138.812 73.4804 138.751 72.6864L138.262 67.1285L138.201 65.2352H138.14C137.957 65.7849 137.774 66.3346 137.53 66.8232L134.66 72.6254H133.256L130.387 66.8232C130.204 66.3346 130.021 65.907 129.837 65.4184L129.776 65.2352H129.715C129.715 66.0903 129.654 66.7621 129.654 67.1285L129.166 72.6864C129.105 73.4804 128.861 73.8469 128.006 73.8469H126.846V72.6254H127.456H127.517C127.762 72.6254 127.884 72.4421 127.884 72.1978L128.616 63.2808H130.143L133.317 69.877L133.928 71.2206L134.538 69.877L137.713 63.2808H139.239L139.972 72.1978C139.972 72.5032 140.155 72.6254 140.46 72.6254ZM156.761 64.5023V65.7849H155.54V64.9909C155.54 64.9298 155.54 64.9298 155.54 64.8687C155.479 64.6855 155.296 64.5023 155.052 64.5634H152.426V73.9079H151.022V64.5634H148.397C148.336 64.5634 148.336 64.5634 148.275 64.5634C148.092 64.6244 147.909 64.8077 147.97 65.052V65.846H146.749V64.5634C146.749 63.7083 147.115 63.3419 148.031 63.3419H155.479C156.395 63.3419 156.761 63.6472 156.761 64.5023ZM162.622 63.0365C161.218 62.9754 159.875 63.5251 158.898 64.5634C157.86 65.6627 157.372 67.1286 157.433 68.5944C157.372 70.0602 157.921 71.526 159.02 72.5643C160.058 73.6026 161.523 74.1523 162.988 74.0912C164.453 74.0912 165.797 73.5415 166.896 72.6254L166.224 71.526C165.369 72.3811 164.209 72.8086 162.988 72.8086C161.889 72.8086 160.851 72.4421 160.119 71.6481C159.325 70.8542 158.898 69.6937 158.898 68.5333H167.018C167.018 68.2279 167.079 67.9836 167.079 67.8615C167.14 66.5789 166.712 65.3574 165.919 64.3801C165.125 63.5251 163.904 62.9754 162.622 63.0365ZM159.02 67.5561C159.386 65.4795 160.851 64.258 162.622 64.258C164.27 64.258 165.552 65.4795 165.613 67.5561H159.02ZM178.495 72.6254H179.35V73.8469H177.885C176.969 73.8469 176.603 73.4804 176.603 72.5643V64.9909C176.603 64.9298 176.603 64.9298 176.603 64.8687C176.542 64.6855 176.358 64.5023 176.114 64.5634H170.742V73.9079H169.338V64.5634H167.994V63.3419H176.786C177.702 63.3419 178.068 63.7083 178.068 64.6244V72.1978C178.007 72.1978 178.007 72.2589 178.007 72.32C178.068 72.5032 178.251 72.6864 178.495 72.6254ZM189.118 72.6254H189.973V73.8469H188.508C187.592 73.8469 187.226 73.4804 187.226 72.5643V64.9909C187.226 64.9298 187.226 64.9298 187.226 64.8687C187.165 64.6855 186.981 64.5023 186.737 64.5634H183.868V65.4184C183.868 65.846 183.868 66.3346 183.807 66.8232C183.746 68.1058 183.563 69.3273 183.196 70.5488C182.586 72.32 181.609 73.969 179.716 73.969V72.6864C180.815 72.6864 181.609 71.4649 181.975 69.877C182.341 68.3501 182.525 66.8842 182.525 65.3574V64.5634H181.182V63.3419H187.348C188.263 63.3419 188.63 63.7083 188.63 64.6244V72.1978C188.63 72.1978 188.63 72.2589 188.63 72.32C188.691 72.5032 188.874 72.6864 189.118 72.6254ZM196.383 63.0365C194.918 62.9754 193.453 63.5862 192.415 64.6244C191.377 65.6627 190.767 67.0675 190.828 68.5333C190.767 69.9991 191.377 71.4649 192.415 72.5032C194.613 74.6409 198.093 74.6409 200.291 72.5032C201.328 71.4649 201.939 69.9991 201.878 68.5333C201.939 67.0675 201.328 65.6627 200.291 64.6244C199.314 63.5862 197.91 63.0365 196.383 63.0365ZM199.314 71.5871C197.787 73.175 195.162 73.2361 193.575 71.7092C193.514 71.6481 193.514 71.6481 193.453 71.5871C192.659 70.7931 192.232 69.6326 192.232 68.5333C192.171 67.4339 192.659 66.3346 193.453 65.5406C195.04 63.9526 197.665 63.8915 199.253 65.5406C200.046 66.3346 200.474 67.4339 200.474 68.5333C200.535 69.6937 200.107 70.7931 199.314 71.5871ZM70.6788 50.2717C69.8851 50.9435 68.9693 51.4932 67.9925 51.7986C66.8325 52.165 65.6115 52.3482 64.3905 52.3482C61.5821 52.3482 58.8959 51.4932 56.637 49.8441L59.079 45.2024C59.8727 45.9353 60.7274 46.485 61.6432 46.9125C62.4368 47.279 63.2916 47.4622 64.1463 47.4622C64.8789 47.5233 65.6115 47.279 66.222 46.7904C66.6494 46.4239 66.8936 45.8742 66.8936 45.3245C66.8936 45.0192 66.8325 44.7138 66.7104 44.4695C66.5273 44.2252 66.3441 43.9809 66.0999 43.7976C65.7947 43.5533 65.4283 43.3701 65.062 43.248C64.6347 43.0647 64.0852 42.8815 63.4747 42.6372C62.7421 42.3929 62.0095 42.1486 61.2769 41.8432C60.6053 41.5989 59.9337 41.2325 59.3843 40.7439C58.8348 40.2553 58.3464 39.6445 58.0411 38.9727C57.6748 38.1176 57.4917 37.2015 57.5527 36.2853C57.5527 35.2471 57.7359 34.2088 58.1022 33.2926C58.4685 32.4376 58.9569 31.7047 59.6285 31.0328C60.3 30.361 61.0937 29.8724 62.0095 29.567C63.0473 29.2006 64.0852 29.0173 65.1841 29.0173C66.3441 29.0173 67.5041 29.1395 68.603 29.4449C69.763 29.7502 70.923 30.1778 72.0219 30.7885L69.763 35.2471C69.1525 34.8195 68.542 34.4531 67.8704 34.1477C67.2599 33.9034 66.6494 33.7812 66.0389 33.7812C65.3673 33.7812 64.7568 33.9645 64.2073 34.3309C63.7189 34.6974 63.4747 35.186 63.4747 35.7357C63.4747 36.1021 63.5968 36.4686 63.841 36.7129C64.0852 37.0182 64.3905 37.2015 64.7568 37.3847C65.1841 37.5679 65.6115 37.7512 66.0389 37.8733C66.5273 37.9955 66.9546 38.1176 67.443 38.3008C68.9693 38.7284 70.4345 39.5834 71.5335 40.8049C72.4492 41.9654 72.8766 43.4312 72.8155 44.897C72.8766 45.9353 72.6324 46.9736 72.2661 47.9508C71.8998 48.8669 71.2893 49.6609 70.6788 50.2717ZM81.0575 48.3172H89.7878L91.192 52.4093H97.175L88.6278 29.8724H82.2174L73.6703 52.4093H79.6533L81.0575 48.3172ZM85.4532 36.835L88.0173 44.1641H82.889L85.4532 36.835ZM120.985 52.4093H115.979L104.623 38.6062V52.4093H98.5181V29.8724H103.463L114.88 43.6144V29.8724H120.985V52.4093ZM131.242 52.4093H125.075V29.8724H131.242V39.1559L138.751 29.8724H146.321L136.919 40.4996L147.176 52.4093H139.239L131.242 42.6372V52.4093ZM150.412 49.0502C151.511 50.1495 152.854 50.9435 154.258 51.5543C157.433 52.7147 160.913 52.7147 164.087 51.5543C165.552 51.0046 166.834 50.1495 167.994 49.0502C169.093 48.0119 169.948 46.7293 170.498 45.3245C171.719 42.3929 171.719 39.0948 170.498 36.1632C169.887 34.7584 169.032 33.5369 167.994 32.4376C166.896 31.3382 165.552 30.5442 164.087 29.9945C160.913 28.773 157.433 28.773 154.258 29.9945C148.275 32.3765 145.405 39.1559 147.786 45.0802C148.397 46.546 149.252 47.8897 150.412 49.0502ZM153.464 38.3008C154.136 36.835 155.296 35.6746 156.761 35.1249C159.081 34.2088 161.706 34.6974 163.538 36.4075C164.087 36.9572 164.576 37.629 164.881 38.3619C165.552 39.8888 165.552 41.66 164.881 43.248C164.576 43.9809 164.087 44.6527 163.538 45.2024C162.988 45.7521 162.256 46.1796 161.523 46.485C159.997 47.0957 158.287 47.0957 156.761 46.485C156.028 46.1796 155.357 45.7521 154.807 45.2024C154.258 44.6527 153.77 43.9809 153.464 43.248C152.793 41.5989 152.793 39.8888 153.464 38.3008ZM181.548 39.4002L179.594 52.4093H173.733L177.579 29.8724H183.379L187.897 41.8432L192.354 29.8724H198.154L202 52.4093H196.139L194.185 39.4002L188.874 52.4093H186.554L181.548 39.4002Z" fill="black"/>
<path d="M30.6291 22.6655L38.1384 31.949C38.6268 32.5597 38.9321 33.3537 38.9321 34.1477V39.217C38.9321 40.072 38.6268 40.866 38.0774 41.4768L36.0016 43.8587C35.3301 44.5916 34.4143 45.0802 33.3764 45.0802H27.8818C26.905 45.0802 25.9282 44.6527 25.2566 43.8587L23.1809 41.4768C22.6314 40.866 22.3262 40.072 22.3262 39.217V34.1477C22.3262 33.3537 22.5704 32.5597 23.1198 31.949L30.6291 22.6655ZM30.6291 11L16.16 28.8341C15.4274 29.8113 15 30.9107 15 32.1322V41.2935C15 42.515 15.4274 43.7366 16.2821 44.7138L21.4104 50.577C22.3872 51.7375 23.8524 52.3482 25.3177 52.3482H35.9406C37.4669 52.3482 38.871 51.6764 39.8479 50.577L44.9762 44.7138C45.7698 43.7976 46.2582 42.5761 46.2582 41.2935V32.1322C46.2582 30.9107 45.8309 29.8113 45.0983 28.8341L30.6291 11Z" fill="#FF7735"/>
</g>
<defs>
<clipPath id="clip0_2423_2969">
<rect width="187" height="67" fill="white" transform="translate(15 11)"/>
</clipPath>
</defs>
</svg>
