<svg width="30" height="25" viewBox="0 0 30 25" fill="none" xmlns="http://www.w3.org/2000/svg">
<path d="M2.06777 10.9581C9.83597 7.57366 15.016 5.3424 17.6078 4.26437C25.008 1.18636 26.5457 0.651682 27.548 0.633838C27.7684 0.630143 28.2613 0.684773 28.5806 0.943836C28.8502 1.16258 28.9243 1.45808 28.9598 1.66548C28.9953 1.87287 29.0395 2.34533 29.0044 2.71449C28.6034 6.92804 26.8682 17.1532 25.9854 21.8725C25.6118 23.8694 24.8763 24.5389 24.1643 24.6045C22.6168 24.7468 21.4418 23.5818 19.943 22.5993C17.5977 21.0619 16.2727 20.1049 13.9962 18.6047C11.3653 16.871 13.0708 15.9181 14.5702 14.3608C14.9626 13.9533 21.7807 7.75166 21.9126 7.18907C21.9291 7.11871 21.9445 6.85644 21.7886 6.71795C21.6328 6.57946 21.4029 6.62682 21.2369 6.66449C21.0017 6.71788 17.255 9.19427 9.99697 14.0937C8.9335 14.8239 7.97024 15.1797 7.10719 15.1611C6.15574 15.1405 4.32555 14.6231 2.96499 14.1809C1.2962 13.6384 -0.0301125 13.3516 0.0853799 12.4304C0.145535 11.9505 0.806331 11.4598 2.06777 10.9581Z" fill="#363B41"/>
</svg>
