<svg width="24" height="25" viewBox="0 0 24 25" fill="none" xmlns="http://www.w3.org/2000/svg">
<path d="M14.3213 14.9376C12.4369 16.8819 12.2999 19.3059 12.1371 24.6163C17.0879 24.6163 20.5054 24.5992 22.2698 22.8862C23.9829 21.1217 24 17.5414 24 12.7535C18.6896 12.9248 16.2656 13.0533 14.3213 14.9376ZM0.017334 12.7535C0.017334 17.5414 0.0344644 21.1217 1.74751 22.8862C3.51195 24.5992 6.92948 24.6163 11.8802 24.6163C11.7089 19.3059 11.5804 16.8819 9.69605 14.9376C7.75174 13.0533 5.32778 12.9162 0.017334 12.7535ZM11.8802 0.633667C6.93805 0.633667 3.51195 0.650797 1.74751 2.36385C0.0344644 4.12828 0.017334 7.70855 0.017334 12.4965C5.32778 12.3252 7.75174 12.1967 9.69605 10.3124C11.5804 8.36808 11.7174 5.94411 11.8802 0.633667ZM14.3213 10.3124C12.4369 8.36808 12.2999 5.94411 12.1371 0.633667C17.0879 0.633667 20.5054 0.650797 22.2698 2.36385C23.9829 4.12828 24 7.70855 24 12.4965C18.6896 12.3252 16.2656 12.1967 14.3213 10.3124Z" fill="#363B41"/>
</svg>
