<svg width="34" height="25" viewBox="0 0 34 25" fill="none" xmlns="http://www.w3.org/2000/svg">
<path fill-rule="evenodd" clip-rule="evenodd" d="M31.9451 2.45406C32.4572 2.98598 32.8248 3.64739 33.0114 4.3721C33.7014 7.04694 33.7014 12.625 33.7014 12.625C33.7014 12.625 33.7014 18.2031 33.0114 20.8779C32.8248 21.6026 32.4572 22.264 31.9451 22.7959C31.4331 23.3279 30.7948 23.7116 30.0939 23.9089C27.5139 24.625 17.2014 24.625 17.2014 24.625C17.2014 24.625 6.88892 24.625 4.30892 23.9089C3.60807 23.7116 2.9697 23.3279 2.45769 22.7959C1.94568 22.264 1.57799 21.6026 1.39142 20.8779C0.701416 18.2031 0.701416 12.625 0.701416 12.625C0.701416 12.625 0.701416 7.04694 1.39142 4.3721C1.57799 3.64739 1.94568 2.98598 2.45769 2.45406C2.9697 1.92214 3.60807 1.53836 4.30892 1.34113C6.88892 0.625 17.2014 0.625 17.2014 0.625C17.2014 0.625 27.5139 0.625 30.0939 1.34113C30.7948 1.53836 31.4331 1.92214 31.9451 2.45406ZM23.136 13.1801L13.9886 7.84415V18.5161L23.136 13.1801Z" fill="#363B41"/>
</svg>
