<svg width="35" height="22" viewBox="0 0 35 22" fill="none" xmlns="http://www.w3.org/2000/svg">
<path d="M18.8736 21.2449C7.47015 21.2449 0.968164 13.2863 0.701416 0.0220718H6.4365C6.61989 9.7492 10.8212 13.8645 14.1555 14.7148V0.0220718H19.5405V8.40577C22.8249 8.04865 26.2926 4.22242 27.4596 0.00506592H32.8279C32.3902 2.18817 31.5158 4.25575 30.2594 6.07862C29.003 7.90149 27.3915 9.4405 25.5257 10.5995C27.6079 11.6566 29.4467 13.1519 30.9209 14.9869C32.3952 16.8218 33.4713 18.9547 34.0783 21.2449H28.1598C26.8928 17.2146 23.7251 14.0856 19.5405 13.6605V21.2449H18.8903H18.8736Z" fill="#363B41"/>
</svg>
