<svg width="26" height="27" viewBox="0 0 26 27" fill="none" xmlns="http://www.w3.org/2000/svg">
<path fill-rule="evenodd" clip-rule="evenodd" d="M21.8975 4.59133C19.5203 2.21405 16.3505 0.946167 13.0223 0.946167C6.04898 0.946167 0.343506 6.65164 0.343506 13.625C0.343506 15.8438 0.977457 18.0626 2.08686 19.9644L0.343506 26.3038L6.99991 24.5605C8.90174 25.5114 10.962 26.1453 13.0223 26.1453C19.9957 26.1453 25.7012 20.4399 25.7012 13.4665C25.7012 10.1383 24.2748 6.96861 21.8975 4.59133ZM13.0223 24.085C11.1205 24.085 9.2187 23.6096 7.63384 22.6587L7.31685 22.5002L3.35472 23.6096L4.46414 19.8059L4.14715 19.3305C3.03775 17.5871 2.56229 15.6853 2.56229 13.7835C2.56229 8.07801 7.31686 3.32345 13.0223 3.32345C15.8751 3.32345 18.4109 4.43285 20.4712 6.33467C22.5315 8.39498 23.4824 10.9307 23.4824 13.7835C23.4824 19.3305 18.8863 24.085 13.0223 24.085ZM18.7278 16.1608C18.4109 16.0023 16.826 15.2099 16.509 15.2099C16.1921 15.0514 16.0335 15.0514 15.8751 15.3683C15.7166 15.6853 15.0827 16.3193 14.9242 16.6362C14.7657 16.7947 14.6072 16.7947 14.2902 16.7947C13.9732 16.6362 13.0224 16.3193 11.7545 15.2099C10.8036 14.4174 10.1696 13.308 10.0111 12.9911C9.85264 12.6741 10.0111 12.5156 10.1696 12.3571C10.3281 12.1986 10.4866 12.0401 10.6451 11.8817C10.8035 11.7232 10.8036 11.5647 10.962 11.4062C11.1205 11.2477 10.962 11.0892 10.962 10.9307C10.962 10.7723 10.3281 9.18741 10.0111 8.55347C9.85264 8.07801 9.53568 8.07801 9.37719 8.07801C9.21871 8.07801 9.06018 8.07801 8.74321 8.07801C8.58473 8.07801 8.26776 8.07801 7.95079 8.39498C7.63382 8.71195 6.84142 9.50438 6.84142 11.0892C6.84142 12.6741 7.9508 14.1005 8.10928 14.4174C8.26777 14.5759 10.3281 17.9041 13.4978 19.172C16.192 20.2814 16.6675 19.9644 17.3015 19.9644C17.9354 19.9644 19.2033 19.172 19.3618 18.538C19.6787 17.7456 19.6787 17.1117 19.5203 17.1117C19.3618 16.3193 19.0448 16.3193 18.7278 16.1608Z" fill="#363B41"/>
</svg>
