<svg width="15" height="15" viewBox="0 0 15 15" fill="none" xmlns="http://www.w3.org/2000/svg">
<path d="M14.0156 1.53394C14.5898 1.67065 15 2.19019 15 2.7644C15 9.49097 9.53125 14.905 2.83203 14.905C2.25781 14.905 1.73828 14.5222 1.60156 13.948L1.02734 11.3777C0.890625 10.7761 1.19141 10.1746 1.73828 9.92847L4.52734 8.75269C5.01953 8.53394 5.62109 8.67065 5.97656 9.10815L6.87891 10.2019C8.30078 9.40894 9.50391 8.23315 10.2695 6.81128L9.17578 5.90894C8.73828 5.55347 8.60156 4.9519 8.82031 4.45972L10.0234 1.67065C10.2422 1.12378 10.8438 0.822998 11.4453 0.959717L14.0156 1.53394ZM2.88672 13.5925C8.82031 13.5652 13.6602 8.75269 13.6875 2.81909L11.1992 2.24487L10.0508 4.92456L11.9102 6.45581C10.625 9.16284 9.23047 10.5574 6.52344 11.8425L4.99219 9.98315L2.3125 11.1316L2.88672 13.5925Z" fill="#788094"/>
</svg>
