<svg width="13" height="15" viewBox="0 0 13 15" fill="none" xmlns="http://www.w3.org/2000/svg">
<path d="M9.30859 9.21753C11.332 9.21753 13 10.8855 13 12.9089V13.5925C13 14.3308 12.3984 14.905 11.6875 14.905H2.0625C1.32422 14.905 0.75 14.3308 0.75 13.5925V12.9089C0.75 10.8855 2.39062 9.21753 4.41406 9.21753C5.20703 9.21753 5.5625 9.65503 6.875 9.65503C8.16016 9.65503 8.51562 9.21753 9.30859 9.21753ZM11.6875 13.5925V12.9089C11.6875 11.5964 10.6211 10.53 9.30859 10.53C8.89844 10.53 8.26953 10.9675 6.875 10.9675C5.45312 10.9675 4.82422 10.53 4.41406 10.53C3.10156 10.53 2.0625 11.5964 2.0625 12.9089V13.5925H11.6875ZM6.875 8.78003C4.6875 8.78003 2.9375 7.03003 2.9375 4.84253C2.9375 2.68237 4.6875 0.905029 6.875 0.905029C9.03516 0.905029 10.8125 2.68237 10.8125 4.84253C10.8125 7.03003 9.03516 8.78003 6.875 8.78003ZM6.875 2.21753C5.42578 2.21753 4.25 3.42065 4.25 4.84253C4.25 6.29175 5.42578 7.46753 6.875 7.46753C8.29688 7.46753 9.5 6.29175 9.5 4.84253C9.5 3.42065 8.29688 2.21753 6.875 2.21753Z" fill="#788094"/>
</svg>
