<svg width="14" height="11" viewBox="0 0 14 11" fill="none" xmlns="http://www.w3.org/2000/svg">
<path d="M12.6875 0.155029C13.3984 0.155029 14 0.756592 14 1.46753V9.34253C14 10.0808 13.3984 10.655 12.6875 10.655H1.3125C0.574219 10.655 0 10.0808 0 9.34253V1.46753C0 0.756592 0.574219 0.155029 1.3125 0.155029H12.6875ZM12.6875 1.46753H1.3125V2.58862C1.91406 3.10815 2.89844 3.87378 4.97656 5.5144C5.44141 5.86987 6.34375 6.74487 7 6.71753C7.62891 6.74487 8.53125 5.86987 8.99609 5.5144C11.0742 3.87378 12.0586 3.10815 12.6875 2.58862V1.46753ZM1.3125 9.34253H12.6875V4.28394C12.0586 4.77612 11.1562 5.48706 9.81641 6.55347C9.1875 7.01831 8.14844 8.05737 7 8.03003C5.82422 8.05737 4.75781 7.01831 4.15625 6.55347C2.81641 5.48706 1.91406 4.77612 1.3125 4.28394V9.34253Z" fill="#788094"/>
</svg>
