<svg width="50" height="75" viewBox="0 0 50 75" fill="none" xmlns="http://www.w3.org/2000/svg">
<g clip-path="url(#clip0_2021_7457)">
<path d="M50 25.3299C50 37.8241 40.7427 48.1734 28.6868 49.9429V74.4487H22.4973V50.1574C9.8493 48.8705 0 38.2531 0 25.3299C0 11.6024 11.1948 0.44873 24.9731 0.44873C38.8052 0.44873 50 11.6024 50 25.3299Z" fill="url(#paint0_linear_2021_7457)"/>
<path d="M24.9731 16.2137L31.5931 24.3644C32.0237 24.9007 32.2928 25.5978 32.2928 26.2949V30.7456C32.2928 31.4963 32.0237 32.1934 31.5393 32.7297L29.7094 34.821C29.1173 35.4644 28.31 35.8934 27.395 35.8934H22.5511C21.69 35.8934 20.8288 35.5181 20.2368 34.821L18.4069 32.7297C17.9225 32.1934 17.6534 31.4963 17.6534 30.7456V26.2949C17.6534 25.5978 17.8687 24.9007 18.3531 24.3644L24.9731 16.2137ZM24.9731 5.97168L12.2174 21.6297C11.5716 22.4876 11.1948 23.4528 11.1948 24.5253V32.5688C11.1948 33.6412 11.5716 34.7137 12.3251 35.5717L16.8461 40.7195C17.7072 41.7383 18.9989 42.2746 20.2906 42.2746H29.6555C31.0011 42.2746 32.239 41.6847 33.1001 40.7195L37.6211 35.5717C38.3208 34.7673 38.7513 33.6949 38.7513 32.5688V24.5253C38.7513 23.4528 38.3746 22.4876 37.7287 21.6297L24.9731 5.97168Z" fill="white"/>
</g>
<defs>
<linearGradient id="paint0_linear_2021_7457" x1="0.86648" y1="0.44873" x2="68.0264" y2="47.4563" gradientUnits="userSpaceOnUse">
<stop stop-color="#FF9924"/>
<stop offset="1" stop-color="#FF5A0A"/>
</linearGradient>
<clipPath id="clip0_2021_7457">
<rect width="50" height="74" fill="white" transform="translate(0 0.44873)"/>
</clipPath>
</defs>
</svg>
