<svg width="141" height="114" viewBox="0 0 141 114" fill="none" xmlns="http://www.w3.org/2000/svg">
<path d="M6.17289 99.9485C4.58166 99.8895 3.1083 100.715 2.40108 102.13C2.46002 100.184 3.04936 98.7693 4.9942 97.8849L7.64625 96.7058C9.00174 96.1162 9.47322 95.7624 9.47322 94.6422V93.8758H8.11773V94.4654C8.11773 94.996 7.88199 95.1729 6.93904 95.5856L4.46379 96.7058C3.2851 97.1185 2.34215 98.0028 1.81174 99.123C1.34026 100.479 1.10453 101.894 1.16346 103.309C1.10453 104.842 1.51707 106.375 2.28322 107.731C3.04936 108.851 4.22805 109.382 5.87822 109.382C7.11584 109.441 8.35347 108.969 9.23748 108.085C10.9466 106.139 11.0055 103.191 9.35535 101.187C8.53027 100.361 7.35158 99.8895 6.17289 99.9485ZM8.17666 107.259C7.58732 107.908 6.76223 108.203 5.87822 108.203C3.99232 108.203 2.63682 106.847 2.63682 104.606C2.57789 103.663 2.93149 102.778 3.57977 102.13C4.22805 101.481 5.05314 101.128 5.99609 101.128C6.82117 101.128 7.64625 101.481 8.23559 102.071C9.41428 103.604 9.41428 105.726 8.17666 107.259ZM16.7811 98.7103C15.4256 98.6514 14.129 99.182 13.1861 100.184C12.1842 101.246 11.6538 102.661 11.7717 104.076C11.7127 105.491 12.2431 106.905 13.304 107.908C14.3058 108.91 15.7203 109.441 17.1347 109.382C18.5491 109.382 19.8457 108.851 20.9065 107.967L20.2582 106.905C19.4331 107.731 18.3134 108.144 17.1347 108.144C16.0739 108.144 15.072 107.79 14.3648 107.023C13.5986 106.257 13.1861 105.137 13.1861 104.017H21.0244C21.0244 103.722 21.0833 103.486 21.0833 103.368C21.1422 102.13 20.7297 100.951 19.9635 100.007C19.1385 99.182 17.9598 98.6514 16.7811 98.7103ZM13.245 103.073C13.5986 101.069 15.0131 99.8895 16.7222 99.8895C18.3134 99.8895 19.551 101.069 19.6099 103.073H13.245ZM28.0965 98.7103C26.9178 98.6514 25.7981 99.123 25.0319 100.007C24.8551 100.184 24.6783 100.42 24.5604 100.715H24.5015V100.007C24.5015 99.2999 24.089 98.9462 23.2639 98.9462H21.9084V100.125H22.7335C22.9692 100.066 23.146 100.243 23.2049 100.42C23.2049 100.479 23.2049 100.479 23.2049 100.538V113.155H24.5604V108.32C24.5604 107.967 24.5604 107.672 24.5015 107.436H24.5604L24.6783 107.613C25.3855 108.733 26.6231 109.382 27.9197 109.323C29.1573 109.382 30.3949 108.792 31.22 107.849C32.104 106.788 32.5755 105.373 32.5166 103.958C32.5755 102.543 32.163 101.187 31.279 100.066C30.5128 99.241 29.3341 98.7103 28.0965 98.7103ZM30.1592 107.082C29.5699 107.79 28.7448 108.203 27.8018 108.203C26.8589 108.262 25.9749 107.79 25.4445 106.964C24.8551 106.139 24.5604 105.137 24.6194 104.076C24.6194 101.363 26.0338 99.9485 27.9197 99.9485C29.8056 99.9485 31.1611 101.599 31.1611 104.017C31.1611 105.196 30.8075 106.257 30.1592 107.082ZM38.7047 98.7103C37.3492 98.6514 36.0526 99.182 35.1097 100.184C34.1078 101.246 33.5774 102.661 33.6953 104.076C33.6363 105.491 34.1667 106.905 35.2276 107.908C36.2295 108.91 37.6439 109.441 39.0583 109.382C40.4727 109.382 41.7693 108.851 42.8301 107.967L42.1818 106.905C41.3567 107.731 40.237 108.144 39.0583 108.144C37.9975 108.144 36.9956 107.79 36.2884 107.023C35.5222 106.257 35.1097 105.137 35.1097 104.017H42.948C42.948 103.722 43.0069 103.486 43.0069 103.368C43.0659 102.13 42.6533 100.951 41.8872 100.007C41.0621 99.182 39.8834 98.6514 38.7047 98.7103ZM35.1686 103.073C35.5222 101.069 36.9367 99.8895 38.6458 99.8895C40.237 99.8895 41.4746 101.069 41.5336 103.073H35.1686ZM54.8527 104.96L57.4459 109.205H55.7957L53.6151 105.491C53.2615 104.901 52.6132 104.547 51.965 104.606H51.2577V109.205H49.9022V104.606H49.1361C48.4878 104.547 47.8395 104.901 47.4859 105.491L45.3054 109.205H43.6552L46.2483 104.96C46.4841 104.547 46.8377 104.252 47.2502 104.076L47.427 104.017V103.958C47.0734 103.84 46.7787 103.545 46.6019 103.191L45.3643 100.656C45.1286 100.302 44.9517 100.184 44.3624 100.184H43.9499V99.0051H44.716C45.7768 99.0051 46.1304 99.123 46.543 100.007L47.8395 102.719C48.0753 103.191 48.6057 103.486 49.1361 103.427H49.9022V99.0051H51.2577V103.427H52.0239C52.5543 103.486 53.0847 103.191 53.3204 102.719L54.6759 100.007C55.1474 99.123 55.4421 99.0051 56.5029 99.0051H57.2691V100.184H56.7976C56.2672 100.184 56.0314 100.302 55.8546 100.656L54.617 103.191C54.4402 103.486 54.2045 103.722 53.9098 103.899L53.7919 104.017C54.2634 104.134 54.6759 104.429 54.8527 104.96ZM65.0484 96.6468H63.8697V94.8781H65.0484V96.6468ZM60.8051 96.6468V94.8781H61.9838V96.6468H60.8051ZM63.0446 98.7103C61.6891 98.6514 60.3926 99.182 59.4496 100.184C58.4477 101.246 57.9173 102.661 58.0352 104.076C57.9763 105.491 58.5067 106.905 59.5675 107.908C60.5694 108.91 61.9838 109.441 63.3982 109.382C64.7537 109.323 66.1092 108.851 67.17 107.967L66.5218 106.905C65.6377 107.672 64.5769 108.085 63.3982 108.144C62.3374 108.144 61.3355 107.79 60.6283 107.082C59.8622 106.316 59.4496 105.255 59.4496 104.134H67.2879C67.2879 104.134 67.3468 103.663 67.3468 103.427C67.4058 102.189 66.9932 101.01 66.2271 100.066C65.4609 99.182 64.2822 98.6514 63.0446 98.7103ZM59.5086 103.014C59.6854 101.187 61.2177 99.8305 62.9857 99.8305C64.6358 99.8305 65.8145 100.951 65.8735 103.014H59.5086ZM81.2554 107.967H81.8447V109.146H80.725C79.8999 109.146 79.6641 108.792 79.6052 108.026L79.1337 102.661L79.0748 100.833H79.0159C78.8391 101.363 78.6622 101.894 78.4265 102.366L75.6566 107.967H74.3011L71.5312 102.366C71.3544 101.894 71.1776 101.481 71.0008 101.01L70.9418 100.833H70.8829C70.8829 101.658 70.824 102.307 70.824 102.661L70.3525 108.026C70.2936 108.792 70.0578 109.146 69.2327 109.146H68.113V107.967H68.7023H68.7613C68.997 107.967 69.1149 107.79 69.1149 107.554L69.8221 98.9462H71.2954L74.36 105.314L74.9494 106.611L75.5387 105.314L78.6033 98.9462H80.0767L80.7839 107.554C80.7839 107.849 80.9607 107.967 81.2554 107.967ZM96.9909 100.125V101.363H95.8122V100.597C95.8122 100.538 95.8122 100.538 95.8122 100.479C95.7532 100.302 95.5764 100.125 95.3407 100.184H92.8065V109.205H91.451V100.184H88.9168C88.8579 100.184 88.8579 100.184 88.799 100.184C88.6222 100.243 88.4454 100.42 88.5043 100.656V101.422H87.3256V100.184C87.3256 99.3589 87.6792 99.0051 88.5632 99.0051H95.7532C96.6373 99.0051 96.9909 99.2999 96.9909 100.125ZM102.649 98.7103C101.293 98.6514 99.9965 99.182 99.0536 100.184C98.0517 101.246 97.5802 102.661 97.6391 104.076C97.5802 105.491 98.1106 106.905 99.1714 107.908C100.173 108.91 101.588 109.441 103.002 109.382C104.417 109.382 105.713 108.851 106.774 107.967L106.126 106.905C105.301 107.731 104.181 108.144 103.002 108.144C101.941 108.144 100.939 107.79 100.232 107.023C99.4661 106.257 99.0536 105.137 99.0536 104.017H106.892C106.892 103.722 106.951 103.486 106.951 103.368C107.01 102.13 106.597 100.951 105.831 100.007C105.065 99.182 103.886 98.6514 102.649 98.7103ZM99.1714 103.073C99.525 101.069 100.939 99.8895 102.649 99.8895C104.24 99.8895 105.477 101.069 105.536 103.073H99.1714ZM117.972 107.967H118.797V109.146H117.382C116.498 109.146 116.145 108.792 116.145 107.908V100.597C116.145 100.538 116.145 100.538 116.145 100.479C116.086 100.302 115.909 100.125 115.673 100.184H110.487V109.205H109.131V100.184H107.835V99.0051H116.321C117.205 99.0051 117.559 99.3589 117.559 100.243V107.554C117.5 107.554 117.5 107.613 117.5 107.672C117.559 107.849 117.736 108.026 117.972 107.967ZM128.226 107.967H129.051V109.146H127.637C126.753 109.146 126.399 108.792 126.399 107.908V100.597C126.399 100.538 126.399 100.538 126.399 100.479C126.34 100.302 126.163 100.125 125.928 100.184H123.158V101.01C123.158 101.422 123.158 101.894 123.099 102.366C123.04 103.604 122.863 104.783 122.509 105.962C121.92 107.672 120.977 109.264 119.15 109.264V108.026C120.211 108.026 120.977 106.847 121.331 105.314C121.684 103.84 121.861 102.425 121.861 100.951V100.184H120.565V99.0051H126.517C127.401 99.0051 127.755 99.3589 127.755 100.243V107.554C127.755 107.554 127.755 107.613 127.755 107.672C127.814 107.849 127.99 108.026 128.226 107.967ZM135.239 98.7103C133.825 98.6514 132.41 99.241 131.409 100.243C130.407 101.246 129.817 102.602 129.876 104.017C129.817 105.432 130.407 106.847 131.409 107.849C133.53 109.912 136.889 109.912 139.011 107.849C140.013 106.847 140.602 105.432 140.543 104.017C140.602 102.602 140.013 101.246 139.011 100.243C138.068 99.241 136.713 98.7103 135.239 98.7103ZM138.068 106.964C136.595 108.497 134.061 108.556 132.528 107.082C132.469 107.023 132.469 107.023 132.41 106.964C131.644 106.198 131.232 105.078 131.232 104.017C131.173 102.955 131.644 101.894 132.41 101.128C133.943 99.5947 136.477 99.5357 138.009 101.128C138.775 101.894 139.188 102.955 139.188 104.017C139.247 105.137 138.834 106.198 138.068 106.964ZM13.8933 86.3881C13.1272 87.0367 12.2431 87.5673 11.3002 87.8621C10.1804 88.2158 9.00174 88.3927 7.82306 88.3927C5.11207 88.3927 2.51895 87.5673 0.338379 85.9754L2.69576 81.4946C3.4619 82.2021 4.28699 82.7327 5.17101 83.1454C5.93715 83.4992 6.76223 83.676 7.58732 83.676C8.29453 83.735 9.00174 83.4992 9.59109 83.0275C10.0036 82.6738 10.2394 82.1431 10.2394 81.6125C10.2394 81.3177 10.1804 81.0229 10.0626 80.7871C9.88576 80.5513 9.70895 80.3154 9.47322 80.1386C9.17854 79.9027 8.82494 79.7259 8.47133 79.6079C8.05879 79.4311 7.52838 79.2542 6.93904 79.0184C6.23183 78.7825 5.52461 78.5467 4.8174 78.2519C4.16912 78.0161 3.52084 77.6623 2.99043 77.1907C2.46002 76.719 1.98854 76.1294 1.69387 75.4809C1.34027 74.6555 1.16346 73.7711 1.2224 72.8867C1.2224 71.8844 1.3992 70.8822 1.75281 69.9978C2.10641 69.1724 2.57789 68.4649 3.22617 67.8163C3.87445 67.1678 4.64059 66.6961 5.52461 66.4013C6.5265 66.0476 7.52838 65.8707 8.5892 65.8707C9.70895 65.8707 10.8287 65.9886 11.8895 66.2834C13.0093 66.5782 14.129 66.9909 15.1899 67.5805L13.0093 71.8844C12.4199 71.4717 11.8306 71.118 11.1823 70.8232C10.593 70.5874 10.0036 70.4695 9.41428 70.4695C8.766 70.4695 8.17666 70.6463 7.64625 71.0001C7.17477 71.3538 6.93904 71.8255 6.93904 72.3561C6.93904 72.7099 7.05691 73.0636 7.29264 73.2994C7.52838 73.5942 7.82305 73.7711 8.17666 73.948C8.5892 74.1248 9.00174 74.3017 9.41428 74.4196C9.88576 74.5376 10.2983 74.6555 10.7698 74.8323C12.2431 75.2451 13.6576 76.0705 14.7184 77.2496C15.6024 78.3698 16.0149 79.7848 15.956 81.1998C16.0149 82.2021 15.7792 83.2044 15.4256 84.1477C15.072 85.0321 14.4826 85.7985 13.8933 86.3881ZM23.9122 84.5015H32.3398L33.6953 88.4516H39.4709L31.22 66.6961H25.0319L16.7811 88.4516H22.5567L23.9122 84.5015ZM28.1554 73.4174L30.6307 80.4923H25.6802L28.1554 73.4174ZM62.4553 88.4516H57.6227L46.6609 75.1271V88.4516H40.7674V66.6961H45.5411L56.5618 79.9617V66.6961H62.4553V88.4516ZM72.3563 88.4516H66.4039V66.6961H72.3563V75.6578L79.6052 66.6961H86.9131L77.8372 76.9548L87.7382 88.4516H80.0767L72.3563 79.0184V88.4516ZM90.8617 85.209C91.9225 86.2702 93.2191 87.0366 94.5746 87.6262C97.6391 88.7464 100.998 88.7464 104.063 87.6262C105.477 87.0956 106.715 86.2702 107.835 85.209C108.896 84.2067 109.721 82.9685 110.251 81.6125C111.43 78.7825 111.43 75.5988 110.251 72.7688C109.662 71.4128 108.837 70.2336 107.835 69.1724C106.774 68.1111 105.477 67.3447 104.063 66.8141C100.998 65.6349 97.6391 65.6349 94.5746 66.8141C88.799 69.1134 86.0291 75.6578 88.3275 81.3767C88.9168 82.7917 89.7419 84.0887 90.8617 85.209ZM93.8084 74.8323C94.4567 73.4174 95.5764 72.2971 96.9909 71.7665C99.2304 70.8822 101.765 71.3538 103.533 73.0046C104.063 73.5353 104.534 74.1838 104.829 74.8913C105.477 76.3653 105.477 78.075 104.829 79.6079C104.534 80.3154 104.063 80.964 103.533 81.4946C103.002 82.0252 102.295 82.4379 101.588 82.7327C100.114 83.3223 98.4642 83.3223 96.9909 82.7327C96.2836 82.4379 95.6354 82.0252 95.105 81.4946C94.5745 80.964 94.1031 80.3154 93.8084 79.6079C93.1601 78.0161 93.1601 76.3653 93.8084 74.8323ZM120.918 75.8936L119.032 88.4516H113.375L117.087 66.6961H122.686L127.047 78.2519L131.35 66.6961H136.948L140.661 88.4516H135.004L133.118 75.8936L127.99 88.4516H125.751L120.918 75.8936Z" fill="black"/>
<path d="M70.4997 15.9719L80.2372 28.0101C80.8706 28.8021 81.2664 29.8317 81.2664 30.8613V37.4348C81.2664 38.5436 80.8706 39.5732 80.1581 40.3651L77.4664 43.4539C76.5956 44.4043 75.4081 45.0379 74.0622 45.0379H66.9372C65.6705 45.0379 64.4038 44.4835 63.533 43.4539L60.8413 40.3651C60.1288 39.5732 59.733 38.5436 59.733 37.4348V30.8613C59.733 29.8317 60.0496 28.8021 60.7621 28.0101L70.4997 15.9719ZM70.4997 0.844971L51.7371 23.971C50.7871 25.2382 50.2329 26.6638 50.2329 28.2477V40.1276C50.2329 41.7115 50.7871 43.2955 51.8954 44.5627L58.5455 52.1658C59.8121 53.6705 61.7121 54.4625 63.6122 54.4625H77.3872C79.3664 54.4625 81.1873 53.5913 82.4539 52.1658L89.104 44.5627C90.1331 43.3747 90.7665 41.7907 90.7665 40.1276V28.2477C90.7665 26.6638 90.2123 25.2382 89.2623 23.971L70.4997 0.844971Z" fill="#FF792D"/>
</svg>
