<svg width="15" height="13" viewBox="0 0 15 13" fill="none" xmlns="http://www.w3.org/2000/svg">
<path d="M14.2188 6.96875L9.21875 11.9688C9.01042 12.1562 8.77083 12.25 8.5 12.25C8.22917 12.25 7.98958 12.1562 7.78125 11.9688C7.59375 11.7604 7.5 11.5208 7.5 11.25C7.5 10.9792 7.59375 10.7396 7.78125 10.5312L11.0938 7.25H1.5C1.20833 7.25 0.96875 7.15625 0.78125 6.96875C0.59375 6.78125 0.5 6.54167 0.5 6.25C0.5 5.95833 0.59375 5.71875 0.78125 5.53125C0.96875 5.34375 1.20833 5.25 1.5 5.25H11.0938L7.78125 1.96875C7.59375 1.76042 7.5 1.52083 7.5 1.25C7.5 0.979167 7.59375 0.739583 7.78125 0.53125C7.98958 0.34375 8.22917 0.25 8.5 0.25C8.77083 0.25 9.01042 0.34375 9.21875 0.53125L14.2188 5.53125C14.4062 5.73958 14.5 5.97917 14.5 6.25C14.5 6.52083 14.4062 6.76042 14.2188 6.96875Z" fill="url(#paint0_linear_2506_5410)"/>
<defs>
<linearGradient id="paint0_linear_2506_5410" x1="0.742614" y1="-0.75" x2="13.2251" y2="13.1753" gradientUnits="userSpaceOnUse">
<stop stop-color="#FF9924"/>
<stop offset="1" stop-color="#FF5A0A"/>
</linearGradient>
</defs>
</svg>
