<svg width="330" height="80" viewBox="0 0 330 80" fill="none" xmlns="http://www.w3.org/2000/svg">
<g style="mix-blend-mode:plus-darker" opacity="0.7">
<path fill-rule="evenodd" clip-rule="evenodd" d="M267.076 58.1898L269.082 18.4062L251.484 9.45487L251.936 0.503985H329.438L329.013 8.95783L308.444 18.4062L306.411 58.6873L325.527 68.6327L324.973 79.5722H245.078L245.579 69.6268L267.076 58.1898Z" fill="#595959"/>
<path fill-rule="evenodd" clip-rule="evenodd" d="M183.163 59.2568H171.441L172.153 44.5881L183.895 44.5862C190.115 44.3377 192.886 49.932 191.31 53.5376C191.31 53.5376 190.713 59.0083 183.163 59.2568ZM184.605 30.783H172.883L173.597 17.0034H185.926C190.591 16.8798 193.941 20.3423 192.925 24.7442C192.925 24.7442 192.627 30.7867 184.605 30.783ZM218.182 0.36788C218.182 0.36788 233.133 -1.24866 236.027 17.8455C236.027 17.8455 237.222 31.012 223.934 38.7309C238.418 42.9442 235.786 60.5979 235.786 60.5979C231.411 80.6559 211.025 79.509 211.025 79.509H112.356L112.959 69.5636L131.35 58.1429L133.105 17.82L115.863 9.38612L116.466 0.433378L218.182 0.36788Z" fill="#595959"/>
<path fill-rule="evenodd" clip-rule="evenodd" d="M55.4463 11.2549H57.7436C63.0278 11.2549 67.0868 15.7078 66.81 21.2003L64.9962 57.2008C64.7185 62.6933 60.2111 67.1462 54.926 67.1462H52.6292C47.345 67.1462 43.286 62.6933 43.5618 57.2008L45.3775 21.2003C45.6538 15.7078 50.1621 11.2549 55.4463 11.2549ZM36.0159 0.431055H78.4782C96.9754 0.431055 111.183 16.0162 110.213 35.2414L109.737 44.6898C108.767 63.9169 92.9884 79.5002 74.4934 79.5002H32.0307C13.5362 79.5002 -0.672346 63.9169 0.297309 44.6898L0.771988 35.2414C1.74257 16.0162 17.5214 0.431055 36.0159 0.431055Z" fill="#595959"/>
</g>
</svg>
