<svg width="433" height="96" viewBox="0 0 433 96" fill="none" xmlns="http://www.w3.org/2000/svg">
<g style="mix-blend-mode:plus-darker" opacity="0.7">
<path fill-rule="evenodd" clip-rule="evenodd" d="M77.9939 29.5846C78.5171 32.17 79.1293 34.1584 79.8462 35.5567C80.5539 36.9344 81.7604 37.625 83.4581 37.625L78.9564 48.5712C77.1834 52.8517 75.3042 59.3544 73.27 68.0331C71.2687 76.7485 70.6327 82.9418 71.3689 86.6529C72.0949 90.3158 73.8018 92.7105 76.4625 93.8594C79.1115 94.98 81.6532 95.5499 84.112 95.5499C87.8597 95.5499 92.1769 95.1329 97.0585 94.2537C101.926 93.3971 105.595 92.4993 108.064 91.5687C109.223 91.1407 109.944 90.4531 110.294 89.5482C110.614 88.6534 110.497 86.7867 109.937 83.9629C109.636 82.468 108.969 81.7201 107.879 81.7201C106.378 81.7201 104.654 82.051 102.728 82.7225C100.796 83.3764 98.838 83.9101 96.8592 84.3004C94.8717 84.7235 91.7427 84.9171 87.4596 84.9171C86.372 84.9171 85.6511 84.7909 85.2865 84.5363C84.9326 84.3004 84.6855 83.8553 84.5559 83.2165C84.2137 81.5018 84.5559 78.5135 85.5702 74.2285C86.5652 69.9319 87.5928 66.3958 88.6127 63.5871L97.3254 63.3698C101.022 63.2803 103.486 63.1812 104.733 63.0313C105.982 62.8899 106.777 62.5877 107.112 62.1244C107.445 61.6415 107.566 60.7834 107.434 59.5289C107.336 58.3665 107.322 57.5059 107.366 56.935C107.379 56.7911 107.411 56.5869 107.462 56.3515C107.503 56.0734 107.524 55.847 107.483 55.6433C107.155 54.007 104.963 53.1806 100.919 53.1806C97.7927 53.1806 94.3337 53.3929 90.5306 53.8436C91.5983 50.3402 93.1043 46.1503 95.0578 41.2798C96.0106 38.8262 96.7916 37.1869 97.3788 36.3378C97.9635 35.4762 98.7892 34.9581 99.8575 34.7313C100.927 34.5125 102.983 34.4088 106.061 34.4088C106.901 34.4088 109.612 34.5874 114.228 34.9581C114.397 34.9581 114.716 34.9843 115.186 35.018C115.642 35.0532 115.995 35.0718 116.206 35.0718C117.554 35.0718 118.134 34.6422 117.958 33.771C117.84 33.1906 117.263 32.0463 116.227 30.3542C114.381 27.3191 112.828 25.4042 111.536 24.5748C110.246 23.7484 108.386 23.3369 105.96 23.3369C100.572 23.3369 94.4446 23.7484 87.575 24.5748C80.6871 25.4047 77.5002 27.0631 77.9939 29.5846Z" fill="#595959"/>
<path fill-rule="evenodd" clip-rule="evenodd" d="M334.446 88.9639C335.591 87.2215 336.548 85.8604 337.307 84.8896C338.1 83.8907 339.609 82.0034 341.79 79.2073C343.989 76.4232 346.157 73.6728 348.295 70.9908C350.417 68.3114 352.458 65.819 354.377 63.4872C356.328 61.1699 358.485 58.6514 360.867 55.9402L357.981 68.4049C356.937 73.0788 356.262 76.1838 355.965 77.7149C355.684 79.241 355.485 80.7982 355.377 82.3641C355.272 83.951 355.333 85.3539 355.576 86.5852C355.887 88.1716 356.791 89.6444 358.233 90.9804C359.691 92.344 361.267 93.4129 362.996 94.2237C364.731 95.033 366.048 95.4359 366.973 95.4359C368.214 95.4359 369.014 94.4048 369.334 92.3244C369.648 90.2495 370.019 85.9439 370.407 79.4049C370.832 72.8891 371.498 66.5152 372.446 60.3112C373.382 54.0937 374.938 47.6443 377.139 40.9645C381.753 37.0356 383.867 34.1268 383.496 32.22C383.252 31.0027 382.433 29.5279 381.045 27.7851C379.637 26.0457 378.281 25.1775 376.968 25.1775C375.713 25.1775 373.181 27.0034 369.333 30.6707C365.486 34.3446 361.253 38.7167 356.61 43.8135C351.991 48.9194 347.753 53.713 343.902 58.2198C340.039 62.706 337.708 65.5399 336.863 66.6711C338.184 60.528 339.372 55.478 340.423 51.5375C341.499 47.6076 342.61 43.8085 343.748 40.1054C344.901 36.4129 345.603 34.0006 345.907 32.8703C346.186 31.7301 346.257 30.8066 346.12 30.1049C346.006 29.5274 345.319 28.6698 344.095 27.5381C342.877 26.4018 341.55 25.3757 340.131 24.4537C338.724 23.5348 337.739 23.0645 337.17 23.0645C336.172 23.0645 335.265 24.0191 334.443 25.9099C333.619 27.8057 332.748 30.5998 331.877 34.2928C330.989 37.9707 330.515 39.8997 330.472 40.0561C325.706 58.0126 322.752 70.1026 321.596 76.314C320.447 82.5185 319.977 86.2034 320.205 87.4061C320.395 88.2803 321.596 89.5287 323.864 91.088C326.103 92.6453 327.948 93.4264 329.396 93.4264C330.337 93.4264 331.12 93.1241 331.763 92.5075C332.387 91.8908 333.281 90.7143 334.446 88.9639Z" fill="#595959"/>
<path fill-rule="evenodd" clip-rule="evenodd" d="M430.295 31.1199C429.054 30.031 427.747 29.0305 426.347 28.1246C424.943 27.2172 424.072 26.764 423.71 26.764C422.595 26.764 421.276 28.4757 419.783 31.8533C418.29 35.251 416.918 38.9204 415.692 42.8729C414.453 46.827 413.588 49.7117 413.133 51.4902L409.69 52.5008C408.572 52.876 406.943 53.2316 404.81 53.6275C402.704 54.0269 401.162 54.225 400.233 54.225C398.905 54.225 398.081 53.4006 397.766 51.8041C397.562 50.7735 397.855 48.8455 398.599 46.0217C399.373 43.1838 400.186 40.696 401.027 38.5326C401.702 36.9879 402.271 35.6363 402.794 34.5529C403.276 33.4418 403.638 32.5932 403.83 31.976C404.036 31.3604 404.085 30.7834 403.986 30.2945C403.891 29.8122 403.272 28.9681 402.102 27.771C400.957 26.5854 399.734 25.4884 398.428 24.5186C397.137 23.5534 396.21 23.0635 395.662 23.0635C394.733 23.0635 393.311 25.1766 391.387 29.3796C389.447 33.5821 387.79 38.1191 386.423 43.0238C385.031 47.9074 384.582 51.4545 385.005 53.6079C385.463 55.9252 386.828 58.3763 389.084 61.015C391.357 63.6512 393.564 64.9665 395.7 64.9665C396.848 64.9665 399.25 64.4851 402.921 63.5375C406.578 62.6009 409.372 61.8006 411.322 61.1498C410.981 62.2574 410.335 64.9087 409.393 69.0614C408.438 73.2156 407.638 77.1199 407.002 80.748C406.348 84.3836 406.128 86.7638 406.348 87.8679C406.669 89.4739 408.161 90.8758 410.805 92.091C412.143 92.7092 413.439 93.4204 414.657 94.2167C415.9 94.9968 416.685 95.3997 417.033 95.3997C418.069 95.3997 418.811 94.6995 419.205 93.3213C419.596 91.9074 419.886 89.6605 420.079 86.5807C420.264 83.4943 420.366 81.8279 420.399 81.5296C421.276 74.5883 422.082 69.1117 422.796 65.0797C423.511 61.0562 424.305 57.5468 425.2 54.5082C426.089 51.4902 427.457 47.3617 429.286 42.1567C429.918 40.3122 430.627 38.5527 431.352 36.8933C432.093 35.2505 432.428 34.2521 432.371 33.9106C432.21 33.1641 431.52 32.226 430.295 31.1199Z" fill="#595959"/>
<path fill-rule="evenodd" clip-rule="evenodd" d="M73.3296 17.8211C73.3997 17.6597 73.4755 17.4258 73.5385 17.3111C75.074 12.9768 77.4983 15.9384 78.8202 15.7126C80.9038 15.0723 82.0961 13.2288 82.5354 10.6228C82.8069 9.06247 82.9671 5.8604 82.1251 4.52897C81.6182 3.72518 79.831 2.38017 76.6863 1.78211C69.7618 0.452194 57.5414 0.469799 46.9703 1.70868C39.118 2.64777 28.8194 4.85541 15.1515 9.84714C10.4804 11.5533 3.17764 12.4677 1.01472 18.0223C-0.737373 22.508 -0.072329 24.9249 1.87806 26.0612C6.17695 28.5576 16.7261 24.8495 21.4923 23.3526C21.624 23.4577 21.7633 23.5628 21.9631 23.7162C20.214 33.503 16.3499 45.2706 15.1683 56.1051C12.744 63.1792 8.07496 80.7347 11.9717 87.6786C20.0117 92.5224 24.9182 78.7902 24.3111 78.3274C26.3469 72.2784 32.7202 45.7781 33.4737 38.6089C33.6537 36.8042 33.8073 35.3565 34.0895 33.4839C34.633 29.8427 34.7006 26.2196 35.3214 22.7988C35.4917 21.8451 36.0449 21.0574 36.8345 20.4211C40.3342 17.5822 48.5455 17.5394 49.9432 17.5394C51.0308 17.2789 54.0565 16.8207 56.4676 16.0561C57.5327 15.7221 57.5419 17.2452 57.2536 19.0112C56.9648 20.7657 56.3862 22.7651 56.2555 23.3842C55.951 24.8545 55.6551 26.1135 55.3042 27.6637C54.866 29.6058 53.9594 33.5684 51.8814 42.4105C47.1737 63.7506 43.5338 82.7317 47.5413 93.0335C48.5043 94.4273 51.7685 95.9172 52.7127 95.5012C55.1288 95.0591 56.8662 94.0183 58.1205 92.6054C60.3149 90.1342 60.9998 86.5117 61.1829 82.9328C61.5134 76.3788 62.4499 66.3415 63.9646 56.4371C64.9697 49.8639 68.1455 35.2368 70.7487 25.7207C71.7397 22.1071 72.6823 19.2798 73.3296 17.8211Z" fill="#595959"/>
<path fill-rule="evenodd" clip-rule="evenodd" d="M138.3 95.5501C139.182 95.5501 139.77 94.8937 140.054 93.5859C140.32 92.2786 140.933 88.4463 141.868 82.1061C142.805 75.7869 144.079 68.9784 145.693 61.6689C147.306 54.3744 149.66 45.7279 152.774 35.7042C153.953 35.3833 156.19 35.1525 159.453 34.9734C162.719 34.8044 165.128 34.492 166.677 34.0504C168.219 33.5811 168.835 32.6128 168.532 31.128C168.328 30.0762 167.705 28.8937 166.666 27.6458C165.624 26.3752 164.209 25.2963 162.399 24.4125C160.606 23.5111 158.584 23.0635 156.349 23.0635C155.769 23.0635 154.88 23.1304 153.69 23.2732C152.373 23.4136 150.359 23.5489 147.669 23.7033C144.949 23.8416 142.928 23.9809 141.589 24.0991C133.899 24.6705 128.512 25.3078 125.398 26.0166C122.292 26.7107 120.893 27.8978 121.226 29.5848C122.233 34.6334 124.346 37.1489 127.6 37.1489C128.106 37.1489 131.732 36.8707 138.472 36.3179C137.681 39.2946 136.55 43.724 135.075 49.6327C133.621 55.564 132.312 61.0899 131.164 66.232C129.981 71.3686 129.016 76.141 128.238 80.5317C127.437 84.9445 127.17 87.7306 127.408 88.9227C127.635 90.0509 128.458 91.0996 129.886 92.1398C131.326 93.1483 132.903 93.9682 134.639 94.6025C136.379 95.2383 137.612 95.5501 138.3 95.5501Z" fill="#595959"/>
<path fill-rule="evenodd" clip-rule="evenodd" d="M253.635 57.7518C252.807 62.5544 251.438 67.0215 249.553 71.2185C247.643 75.4155 245.553 78.7815 243.277 81.3322C240.991 83.9 238.916 85.1851 237.061 85.1851C236.271 85.1851 235.436 84.6112 234.536 83.4528C233.652 82.2959 233.006 80.7236 232.602 78.7554C231.681 74.0871 231.627 69.1879 232.447 64.1423C233.261 59.0772 234.614 54.4491 236.487 50.2119C238.382 46.0058 240.461 42.6046 242.728 40.0121C244.996 37.4217 246.985 36.1315 248.713 36.1315C250.896 36.1315 252.529 38.8874 253.634 44.4139C254.448 48.5228 254.449 52.9678 253.635 57.7518ZM263.561 35.9781C262.338 33.2293 261.086 31.1147 259.85 29.6283C258.611 28.1611 257.647 27.4182 257.017 27.4182C256.656 27.4182 255.892 27.7044 254.751 28.311C253.609 28.8944 252.781 29.3627 252.307 29.6922C250.921 28.0891 249.299 26.5842 247.439 25.1677C245.598 23.7609 244.087 23.0637 242.964 23.0637C241.236 23.0637 238.752 24.5486 235.559 27.5323C232.367 30.5186 229.29 34.5471 226.315 39.5886C223.351 44.6578 221.162 50.4563 219.742 57.0048C218.314 63.5629 218.297 70.2749 219.666 77.1201C220.471 81.2125 222.009 84.6484 224.224 87.4265C226.447 90.2116 228.924 92.2477 231.628 93.5615C234.333 94.894 236.824 95.5509 239.097 95.5509C244.453 95.5509 249.599 93.1792 254.533 88.4456C259.453 83.6973 263.088 77.4365 265.431 69.6778C267.778 61.9367 268.138 53.8863 266.48 45.5627C265.757 41.9401 264.79 38.7376 263.561 35.9781ZM305.987 44.3465C304.43 46.4057 302.313 48.3186 299.624 50.1032C296.947 51.908 294.137 53.3204 291.19 54.3324C292.795 45.5154 293.419 40.1298 293.038 38.1999C292.819 37.1159 292.081 36.0465 290.841 34.9902C293.357 34.2277 296.167 33.8545 299.274 33.8545C301.729 33.8545 303.699 34.3077 305.186 35.2674C306.655 36.2115 307.525 37.391 307.802 38.807C308.138 40.4618 307.524 42.3073 305.987 44.3465ZM300.715 74.666C299.009 77.0356 296.598 78.9802 293.499 80.4967C290.391 82.0439 287.138 82.7934 283.747 82.7934C285.186 77.9737 286.3 74.2546 287.11 71.6853C287.894 69.0948 288.588 66.5497 289.142 63.9643C291.276 63.3466 293.238 63.0312 295.038 63.0312C299.474 63.0312 301.997 64.6016 302.616 67.6799C303.062 69.9554 302.438 72.2924 300.715 74.666ZM316.836 49.8779C319.204 46.1995 320.004 42.3586 319.204 38.39C318.314 33.865 315.707 30.1897 311.38 27.3457C307.083 24.4978 301.783 23.0642 295.533 23.0642C292.809 23.0642 289.083 23.4797 284.396 24.3066C279.894 25.0767 276.557 25.8584 274.361 26.6355C272.185 27.4187 271.261 28.6439 271.605 30.327C271.956 32.099 272.831 33.865 274.25 35.6507C275.657 37.4172 277.523 38.4991 279.862 38.9111C278.899 47.1647 277.747 54.181 276.351 59.9755C274.958 65.7811 273.635 70.3035 272.366 73.5665C271.103 76.8052 270.052 79.627 269.214 81.9886C268.369 84.3381 268.114 86.3727 268.46 88.0975C268.555 88.5788 269.265 89.442 270.595 90.6688C271.927 91.8755 273.355 93.0012 274.868 94.0187C276.386 95.0278 277.481 95.5514 278.166 95.5514C279.175 95.5514 279.933 95.1022 280.461 94.2124C281 93.308 281.578 91.6969 282.196 89.3268C285.829 93.4921 289.352 95.5514 292.79 95.5514C296.056 95.5514 299.605 94.0449 303.416 90.9807C307.218 87.9194 310.285 84.2591 312.595 80.0229C314.902 75.7575 315.737 71.9901 315.084 68.7377C314.741 67.0134 313.919 65.2042 312.625 63.3466C311.335 61.4689 309.489 59.8322 307.083 58.3876C311.204 56.3675 314.453 53.5498 316.836 49.8779ZM202.576 46.7774C200.557 49.3835 197.909 51.835 194.657 54.1508C191.368 56.4435 188.304 58.0415 185.422 58.8976C185.803 55.9264 186.574 51.6862 187.753 46.1517C188.447 42.8591 188.985 40.6726 189.376 39.57C189.728 38.4544 190.327 37.6747 191.119 37.221C191.928 36.7558 193.297 36.4615 195.261 36.3212C195.771 36.2573 196.552 36.212 197.6 36.212C202.052 36.212 204.529 37.5304 205.057 40.1756C205.424 41.9834 204.595 44.1935 202.576 46.7774ZM213.867 31.6886C211.715 29.2179 208.816 27.1531 205.1 25.5128C201.419 23.8735 197.2 23.0642 192.432 23.0642C189.704 23.0642 186.833 23.357 183.8 23.9435C180.757 24.5093 178.229 25.38 176.194 26.5042C174.157 27.642 173.28 28.9352 173.57 30.4246C174.495 35.0194 176.185 37.8925 178.681 39.0067C176.371 48.636 174.516 56.0844 173.16 61.3391C171.808 66.608 170.395 71.9051 168.947 77.2796C167.492 82.6224 166.642 85.9718 166.385 87.2665C166.152 88.5773 166.099 89.6578 166.259 90.4837C166.514 91.7497 167.052 92.5762 167.903 92.977C168.727 93.3815 170.129 93.7869 172.07 94.2109C173.053 94.4342 174.108 94.7094 175.19 95.0514C176.266 95.3788 177.013 95.5499 177.424 95.5499C178.623 95.5499 179.527 94.893 180.109 93.6033C180.671 92.3126 181.156 90.3242 181.551 87.6674C181.937 85.0031 182.447 81.4298 183.104 76.9647C183.758 72.5132 184.628 68.1789 185.661 63.9628C188.82 68.5923 191.423 70.9051 193.467 70.9051C195.875 70.9051 199.218 68.9218 203.454 64.9512C207.709 60.98 211.319 56.4717 214.294 51.4191C217.266 46.3675 218.446 42.2771 217.808 39.1078C217.334 36.6597 216.009 34.1839 213.867 31.6886Z" fill="#595959"/>
</g>
</svg>
