<svg width="433" height="96" viewBox="0 0 433 96" fill="none" xmlns="http://www.w3.org/2000/svg">
<g style="mix-blend-mode:plus-darker" opacity="0.7">
<path fill-rule="evenodd" clip-rule="evenodd" d="M78.6169 29.4123C79.1401 31.9977 79.7523 33.986 80.4692 35.3843C81.177 36.762 82.3835 37.4526 84.0812 37.4526L79.5794 48.3988C77.8065 52.6793 75.9273 59.182 73.893 67.8607C71.8918 76.5761 71.2557 82.7695 71.9919 86.4806C72.718 90.1434 74.4248 92.5382 77.0855 93.687C79.7345 94.8077 82.2762 95.3776 84.735 95.3776C88.4828 95.3776 92.8 94.9606 97.6815 94.0813C102.549 93.2247 106.218 92.3269 108.687 91.3964C109.846 90.9683 110.568 90.2807 110.917 89.3758C111.237 88.481 111.12 86.6144 110.56 83.7906C110.259 82.2957 109.592 81.5477 108.502 81.5477C107.001 81.5477 105.277 81.8787 103.351 82.5502C101.419 83.2041 99.4611 83.7378 97.4822 84.1281C95.4947 84.5511 92.3658 84.7448 88.0826 84.7448C86.9951 84.7448 86.2741 84.6185 85.9095 84.364C85.5557 84.1281 85.3086 83.6829 85.1789 83.0441C84.8367 81.3294 85.1789 78.3411 86.1933 74.0561C87.1883 69.7595 88.2158 66.2235 89.2358 63.4147L97.9485 63.1974C101.645 63.1079 104.109 63.0088 105.356 62.8589C106.605 62.7176 107.4 62.4153 107.735 61.952C108.069 61.4692 108.19 60.611 108.057 59.3566C107.959 58.1941 107.945 57.3335 107.989 56.7626C108.002 56.6188 108.034 56.4146 108.085 56.1791C108.126 55.901 108.147 55.6746 108.106 55.4709C107.778 53.8347 105.586 53.0083 101.542 53.0083C98.4157 53.0083 94.9568 53.2205 91.1536 53.6712C92.2214 50.1679 93.7274 45.9779 95.6808 41.1074C96.6336 38.6538 97.4146 37.0145 98.0019 36.1655C98.5866 35.3038 99.4123 34.7858 100.481 34.5589C101.55 34.3401 103.606 34.2365 106.684 34.2365C107.524 34.2365 110.235 34.415 114.851 34.7858C115.02 34.7858 115.339 34.8119 115.809 34.8456C116.265 34.8808 116.618 34.8994 116.83 34.8994C118.177 34.8994 118.758 34.4699 118.581 33.5987C118.463 33.0182 117.886 31.8739 116.85 30.1818C115.004 27.1468 113.451 25.2319 112.159 24.4024C110.869 23.576 109.009 23.1646 106.583 23.1646C101.195 23.1646 95.0676 23.576 88.1981 24.4024C81.3102 25.2324 78.1232 26.8907 78.6169 29.4123Z" fill="#595959"/>
<path fill-rule="evenodd" clip-rule="evenodd" d="M335.069 88.7913C336.214 87.0489 337.171 85.6878 337.93 84.717C338.724 83.718 340.232 81.8308 342.413 79.0347C344.612 76.2506 346.78 73.5002 348.918 70.8182C351.04 68.1388 353.081 65.6464 355 63.3146C356.951 60.9973 359.108 58.4788 361.49 55.7676L358.604 68.2323C357.56 72.9062 356.885 76.0112 356.588 77.5423C356.307 79.0684 356.108 80.6256 356 82.1915C355.896 83.7784 355.956 85.1813 356.199 86.4126C356.51 87.999 357.414 89.4718 358.856 90.8078C360.314 92.1714 361.89 93.2403 363.619 94.0511C365.354 94.8604 366.671 95.2633 367.596 95.2633C368.838 95.2633 369.637 94.2322 369.957 92.1518C370.271 90.0769 370.643 85.7713 371.03 79.2323C371.455 72.7165 372.121 66.3426 373.069 60.1386C374.005 53.9211 375.561 47.4717 377.762 40.7919C382.376 36.863 384.49 33.9542 384.119 32.0474C383.875 30.8301 383.056 29.3553 381.669 27.6125C380.26 25.8731 378.904 25.0049 377.591 25.0049C376.337 25.0049 373.804 26.8308 369.957 30.4981C366.109 34.172 361.876 38.5441 357.233 43.6409C352.614 48.7468 348.376 53.5403 344.525 58.0472C340.662 62.5334 338.331 65.3673 337.486 66.4985C338.807 60.3554 339.995 55.3054 341.047 51.3649C342.122 47.435 343.233 43.6359 344.371 39.9328C345.524 36.2403 346.226 33.828 346.53 32.6977C346.809 31.5574 346.88 30.6339 346.743 29.9323C346.629 29.3548 345.942 28.4972 344.719 27.3655C343.5 26.2292 342.173 25.2031 340.754 24.2811C339.347 23.3621 338.362 22.8918 337.793 22.8918C336.795 22.8918 335.888 23.8465 335.066 25.7373C334.242 27.6331 333.371 30.4272 332.501 34.1202C331.612 37.7981 331.139 39.7271 331.095 39.8835C326.329 57.84 323.376 69.9299 322.219 76.1414C321.07 82.3459 320.6 86.0308 320.828 87.2335C321.019 88.1077 322.219 89.3561 324.487 90.9154C326.726 92.4727 328.571 93.2538 330.019 93.2538C330.961 93.2538 331.743 92.9515 332.386 92.3349C333.011 91.7182 333.904 90.5417 335.069 88.7913Z" fill="#595959"/>
<path fill-rule="evenodd" clip-rule="evenodd" d="M430.918 30.9473C429.676 29.8584 428.37 28.8579 426.97 27.952C425.566 27.0446 424.695 26.5914 424.333 26.5914C423.218 26.5914 421.898 28.3031 420.406 31.6807C418.913 35.0784 417.54 38.7478 416.315 42.7003C415.076 46.6544 414.211 49.539 413.756 51.3176L410.313 52.3282C409.194 52.7034 407.565 53.059 405.433 53.4549C403.327 53.8542 401.785 54.0524 400.856 54.0524C399.528 54.0524 398.704 53.228 398.388 51.6315C398.185 50.6009 398.478 48.6729 399.222 45.8491C399.996 43.0112 400.809 40.5234 401.65 38.36C402.325 36.8153 402.894 35.4637 403.416 34.3803C403.899 33.2692 404.261 32.4206 404.453 31.8034C404.659 31.1878 404.708 30.6108 404.609 30.1219C404.514 29.6396 403.894 28.7955 402.725 27.5984C401.58 26.4128 400.357 25.3158 399.051 24.346C397.76 23.3808 396.833 22.8909 396.285 22.8909C395.356 22.8909 393.933 25.004 392.009 29.207C390.07 33.4095 388.413 37.9465 387.046 42.8512C385.653 47.7348 385.204 51.2819 385.628 53.4353C386.086 55.7526 387.451 58.2036 389.707 60.8424C391.98 63.4786 394.187 64.7939 396.323 64.7939C397.471 64.7939 399.873 64.3125 403.544 63.3649C407.201 62.4283 409.995 61.628 411.945 60.9772C411.604 62.0848 410.958 64.736 410.016 68.8888C409.061 73.043 408.261 76.9473 407.625 80.5754C406.97 84.211 406.751 86.5912 406.97 87.6953C407.292 89.3013 408.784 90.7032 411.427 91.9184C412.766 92.5366 414.062 93.2478 415.279 94.0441C416.523 94.8242 417.308 95.2271 417.656 95.2271C418.692 95.2271 419.433 94.5269 419.827 93.1487C420.218 91.7348 420.509 89.4879 420.701 86.4081C420.887 83.3217 420.989 81.6553 421.022 81.357C421.899 74.4157 422.705 68.9391 423.419 64.9071C424.133 60.8836 424.928 57.3742 425.823 54.3356C426.712 51.3176 428.08 47.1891 429.908 41.9841C430.541 40.1396 431.25 38.3801 431.975 36.7207C432.716 35.0779 433.051 34.0795 432.994 33.738C432.832 32.9915 432.143 32.0534 430.918 30.9473Z" fill="#595959"/>
<path fill-rule="evenodd" clip-rule="evenodd" d="M73.9526 17.6485C74.0228 17.4871 74.0985 17.2532 74.1616 17.1385C75.6971 12.8042 78.1213 15.7658 79.4433 15.54C81.5269 14.8996 82.7192 13.0562 83.1585 10.4501C83.43 8.88986 83.5901 5.68779 82.7482 4.35636C82.2412 3.55258 80.4541 2.20757 77.3094 1.60951C70.3849 0.279587 58.1644 0.297192 47.5934 1.53607C39.741 2.47516 29.4425 4.68281 15.7745 9.67453C11.1035 11.3807 3.80069 12.2951 1.63777 17.8497C-0.114326 22.3354 0.550718 24.7523 2.50111 25.8886C6.79999 28.3849 17.3492 24.6769 22.1153 23.18C22.247 23.2851 22.3863 23.3902 22.5861 23.5436C20.8371 33.3304 16.9729 45.098 15.7913 55.9325C13.367 63.0066 8.69801 80.5621 12.5947 87.506C20.6347 92.3498 25.5412 78.6176 24.9341 78.1548C26.9699 72.1058 33.3433 45.6055 34.0968 38.4363C34.2768 36.6316 34.4303 35.1839 34.7125 33.3113C35.256 29.6701 35.3237 26.047 35.9445 22.6262C36.1148 21.6725 36.668 20.8848 37.4576 20.2485C40.9572 17.4096 49.1686 17.3668 50.5663 17.3668C51.6538 17.1063 54.6796 16.6481 57.0906 15.8835C58.1558 15.5495 58.1649 17.0726 57.8767 18.8386C57.5879 20.593 57.0093 22.5925 56.8786 23.2116C56.574 24.6819 56.2781 25.9409 55.9273 27.4911C55.489 29.4332 54.5825 33.3958 52.5045 42.2379C47.7968 63.578 44.1568 82.559 48.1644 92.8609C49.1274 94.2547 52.3916 95.7446 53.3358 95.3286C55.7519 94.8864 57.4892 93.8457 58.7436 92.4328C60.938 89.9616 61.6229 86.339 61.8059 82.7602C62.1364 76.2062 63.0729 66.1689 64.5876 56.2645C65.5928 49.6913 68.7685 35.0642 71.3718 25.5481C72.3627 21.9345 73.3054 19.1072 73.9526 17.6485Z" fill="#595959"/>
<path fill-rule="evenodd" clip-rule="evenodd" d="M138.923 95.3775C139.805 95.3775 140.393 94.7211 140.677 93.4133C140.943 92.106 141.556 88.2737 142.491 81.9335C143.428 75.6143 144.702 68.8058 146.316 61.4963C147.929 54.2018 150.283 45.5553 153.397 35.5316C154.576 35.2107 156.813 34.9799 160.076 34.8008C163.342 34.6318 165.751 34.3194 167.3 33.8778C168.842 33.4085 169.458 32.4402 169.155 30.9554C168.951 29.9036 168.328 28.7211 167.289 27.4732C166.247 26.2026 164.832 25.1237 163.022 24.2399C161.229 23.3385 159.207 22.8909 156.972 22.8909C156.392 22.8909 155.503 22.9578 154.313 23.1006C152.996 23.241 150.982 23.3763 148.292 23.5307C145.572 23.669 143.551 23.8083 142.212 23.9265C134.522 24.4979 129.135 25.1352 126.021 25.844C122.916 26.5381 121.516 27.7252 121.849 29.4122C122.856 34.4608 124.969 36.9762 128.223 36.9762C128.729 36.9762 132.355 36.6981 139.095 36.1453C138.304 39.122 137.173 43.5514 135.698 49.4601C134.244 55.3914 132.935 60.9173 131.787 66.0594C130.604 71.196 129.639 75.9684 128.861 80.3591C128.06 84.7719 127.794 87.5579 128.031 88.75C128.258 89.8783 129.081 90.927 130.509 91.9672C131.949 92.9757 133.526 93.7956 135.262 94.4299C137.002 95.0657 138.235 95.3775 138.923 95.3775Z" fill="#595959"/>
<path fill-rule="evenodd" clip-rule="evenodd" d="M254.258 57.5792C253.43 62.3818 252.061 66.8489 250.176 71.0459C248.266 75.2429 246.176 78.6089 243.9 81.1596C241.614 83.7274 239.539 85.0125 237.685 85.0125C236.894 85.0125 236.059 84.4386 235.159 83.2802C234.275 82.1233 233.629 80.551 233.225 78.5827C232.304 73.9144 232.25 69.0153 233.07 63.9697C233.884 58.9046 235.237 54.2765 237.11 50.0393C239.006 45.8332 241.085 42.432 243.351 39.8395C245.619 37.2491 247.608 35.9589 249.337 35.9589C251.519 35.9589 253.152 38.7148 254.257 44.2413C255.071 48.3502 255.072 52.7952 254.258 57.5792ZM264.184 35.8055C262.961 33.0566 261.709 30.9421 260.474 29.4557C259.234 27.9885 258.27 27.2455 257.64 27.2455C257.279 27.2455 256.515 27.5317 255.374 28.1384C254.232 28.7218 253.404 29.1901 252.93 29.5196C251.544 27.9165 249.922 26.4116 248.062 24.9951C246.221 23.5883 244.71 22.8911 243.587 22.8911C241.859 22.8911 239.375 24.376 236.182 27.3597C232.99 30.346 229.914 34.3745 226.938 39.416C223.974 44.4852 221.786 50.2837 220.366 56.8322C218.937 63.3903 218.921 70.1022 220.289 76.9475C221.094 81.0399 222.632 84.4758 224.847 87.2539C227.07 90.039 229.547 92.0751 232.251 93.3889C234.956 94.7213 237.447 95.3783 239.72 95.3783C245.076 95.3783 250.222 93.0066 255.156 88.2729C260.076 83.5247 263.711 77.2639 266.054 69.5052C268.401 61.7641 268.761 53.7137 267.103 45.3901C266.38 41.7675 265.414 38.5649 264.184 35.8055ZM306.61 44.1738C305.053 46.2331 302.936 48.146 300.247 49.9306C297.57 51.7354 294.76 53.1478 291.814 54.1598C293.418 45.3428 294.042 39.9572 293.661 38.0272C293.443 36.9433 292.704 35.8739 291.464 34.8176C293.98 34.0551 296.791 33.6819 299.897 33.6819C302.353 33.6819 304.322 34.1351 305.809 35.0948C307.278 36.0389 308.148 37.2184 308.425 38.6344C308.761 40.2892 308.147 42.1347 306.61 44.1738ZM301.338 74.4934C299.632 76.863 297.221 78.8076 294.122 80.3241C291.014 81.8713 287.761 82.6208 284.37 82.6208C285.809 77.8011 286.923 74.0819 287.733 71.5126C288.517 68.9222 289.211 66.3771 289.766 63.7917C291.899 63.174 293.861 62.8586 295.661 62.8586C300.097 62.8586 302.62 64.429 303.239 67.5073C303.685 69.7828 303.061 72.1198 301.338 74.4934ZM317.459 49.7053C319.827 46.0269 320.627 42.186 319.827 38.2174C318.937 33.6924 316.33 30.017 312.003 27.1731C307.706 24.3252 302.406 22.8916 296.156 22.8916C293.432 22.8916 289.707 23.3071 285.019 24.134C280.517 24.9041 277.18 25.6858 274.984 26.4629C272.808 27.246 271.884 28.4713 272.228 30.1544C272.58 31.9264 273.454 33.6924 274.873 35.4781C276.28 37.2446 278.147 38.3265 280.485 38.7385C279.522 46.9921 278.37 54.0084 276.974 59.8029C275.581 65.6085 274.258 70.1309 272.989 73.3938C271.726 76.6326 270.675 79.4544 269.838 81.816C268.992 84.1655 268.737 86.2001 269.083 87.9249C269.178 88.4062 269.888 89.2694 271.218 90.4962C272.55 91.7029 273.978 92.8286 275.491 93.8461C277.01 94.8551 278.104 95.3788 278.789 95.3788C279.798 95.3788 280.557 94.9296 281.084 94.0398C281.623 93.1354 282.201 91.5243 282.82 89.1542C286.452 93.3195 289.975 95.3788 293.413 95.3788C296.679 95.3788 300.228 93.8723 304.04 90.808C307.842 87.7468 310.908 84.0865 313.218 79.8503C315.525 75.5849 316.361 71.8175 315.707 68.5651C315.365 66.8408 314.542 65.0316 313.248 63.174C311.958 61.2963 310.112 59.6596 307.706 58.215C311.827 56.1949 315.076 53.3772 317.459 49.7053ZM203.199 46.6048C201.18 49.2108 198.532 51.6624 195.28 53.9782C191.991 56.2709 188.928 57.8689 186.046 58.725C186.426 55.7538 187.197 51.5136 188.376 45.9791C189.07 42.6865 189.608 40.5 189.999 39.3974C190.351 38.2818 190.951 37.5021 191.742 37.0484C192.551 36.5831 193.92 36.2889 195.885 36.1486C196.394 36.0847 197.175 36.0394 198.223 36.0394C202.675 36.0394 205.152 37.3578 205.68 40.003C206.047 41.8108 205.218 44.0209 203.199 46.6048ZM214.49 31.516C212.338 29.0453 209.44 26.9805 205.723 25.3402C202.042 23.7009 197.823 22.8916 193.056 22.8916C190.327 22.8916 187.457 23.1844 184.423 23.7709C181.38 24.3367 178.852 25.2074 176.817 26.3316C174.78 27.4694 173.903 28.7626 174.193 30.2519C175.118 34.8468 176.808 37.7199 179.304 38.8341C176.994 48.4634 175.14 55.9117 173.784 61.1665C172.432 66.4354 171.018 71.7325 169.571 77.107C168.115 82.4498 167.265 85.7992 167.008 87.0939C166.775 88.4047 166.722 89.4852 166.882 90.3111C167.137 91.5771 167.676 92.4035 168.526 92.8044C169.35 93.2088 170.752 93.6143 172.693 94.0383C173.676 94.2616 174.731 94.5368 175.813 94.8788C176.889 95.2062 177.636 95.3773 178.047 95.3773C179.246 95.3773 180.15 94.7203 180.732 93.4307C181.294 92.14 181.779 90.1516 182.174 87.4948C182.56 84.8304 183.07 81.2572 183.728 76.7921C184.382 72.3406 185.251 68.0063 186.285 63.7902C189.443 68.4197 192.046 70.7325 194.09 70.7325C196.498 70.7325 199.841 68.7492 204.078 64.7785C208.332 60.8074 211.942 56.299 214.917 51.2465C217.889 46.1949 219.07 42.1045 218.431 38.9352C217.957 36.4871 216.632 34.0113 214.49 31.516Z" fill="#595959"/>
</g>
</svg>
