<svg width="25" height="20" viewBox="0 0 25 20" fill="none" xmlns="http://www.w3.org/2000/svg">
<path d="M22 0.375C23.5039 0.375 24.75 1.62109 24.75 3.125V16.875C24.75 18.4219 23.5039 19.625 22 19.625H2.75C1.20312 19.625 0 18.4219 0 16.875V3.125C0 1.62109 1.20312 0.375 2.75 0.375H22ZM23.375 16.875V3.125C23.375 2.39453 22.7305 1.75 22 1.75H2.75C1.97656 1.75 1.375 2.39453 1.375 3.125V16.875C1.375 17.6484 1.97656 18.25 2.75 18.25H22C22.7305 18.25 23.375 17.6484 23.375 16.875ZM20.2812 11.375C20.4531 11.375 20.625 11.5469 20.625 11.7188V12.4062C20.625 12.6211 20.4531 12.75 20.2812 12.75H15.4688C15.2539 12.75 15.125 12.6211 15.125 12.4062V11.7188C15.125 11.5469 15.2539 11.375 15.4688 11.375H20.2812ZM20.2812 8.625C20.4531 8.625 20.625 8.79688 20.625 8.96875V9.65625C20.625 9.87109 20.4531 10 20.2812 10H15.4688C15.2539 10 15.125 9.87109 15.125 9.65625V8.96875C15.125 8.79688 15.2539 8.625 15.4688 8.625H20.2812ZM20.2812 5.875C20.4531 5.875 20.625 6.04688 20.625 6.21875V6.90625C20.625 7.12109 20.4531 7.25 20.2812 7.25H15.4688C15.2539 7.25 15.125 7.12109 15.125 6.90625V6.21875C15.125 6.04688 15.2539 5.875 15.4688 5.875H20.2812ZM8.9375 11.375C7.00391 11.375 5.5 9.87109 5.5 7.9375C5.5 6.04688 7.00391 4.5 8.9375 4.5C10.8281 4.5 12.375 6.04688 12.375 7.9375C12.375 9.87109 10.8281 11.375 8.9375 11.375ZM8.9375 5.875C7.77734 5.875 6.875 6.82031 6.875 7.9375C6.875 9.09766 7.77734 10 8.9375 10C10.0547 10 11 9.09766 11 7.9375C11 6.82031 10.0547 5.875 8.9375 5.875ZM10.9141 12.0625C11.8164 12.0625 12.7188 12.4922 13.2344 13.2656C13.5781 13.7383 13.75 14.2539 13.75 14.8555V15.8438C13.75 16.0586 13.5781 16.1875 13.4062 16.1875H12.7188C12.5039 16.1875 12.375 16.0586 12.375 15.8438V14.8555C12.375 14.5547 12.2891 14.2969 12.1172 14.0391C11.8594 13.6953 11.4297 13.4805 10.9141 13.4805C10.3984 13.4805 10.0547 13.7812 8.9375 13.7812C7.82031 13.7812 7.43359 13.4805 6.91797 13.4805C6.40234 13.4805 5.97266 13.6523 5.75781 14.0391C5.58594 14.2969 5.5 14.5547 5.5 14.8555V15.8438C5.5 16.0586 5.32812 16.1875 5.15625 16.1875H4.46875C4.25391 16.1875 4.125 16.0586 4.125 15.8438V14.8555C4.125 14.2539 4.29688 13.7383 4.59766 13.2656C5.11328 12.4922 6.01562 12.0625 6.91797 12.0625C7.73438 12.0625 7.94922 12.3633 8.9375 12.3633C9.88281 12.3633 10.0977 12.0625 10.9141 12.0625Z" fill="#858D9D"/>
</svg>
