<svg width="23" height="15" viewBox="0 0 23 15" fill="none" xmlns="http://www.w3.org/2000/svg">
<path d="M0.433594 7.38632C0.434074 7.50601 0.453989 7.62483 0.492563 7.73814C0.534912 7.85953 0.617417 7.96284 0.726439 8.03098L6.34847 13.653C6.41958 13.7615 6.51601 13.851 6.62943 13.9138C6.74284 13.9767 6.86985 14.0111 6.9995 14.0139C7.12915 14.0168 7.25754 13.988 7.37362 13.9302C7.48969 13.8724 7.58996 13.7872 7.66577 13.682C7.77098 13.6062 7.85617 13.5059 7.91399 13.3898C7.97181 13.2738 8.00054 13.1454 7.99768 13.0157C7.99483 12.8861 7.96049 12.7591 7.89761 12.6456C7.83474 12.5322 7.74523 12.4358 7.63679 12.3647L3.65489 8.32283H21.9852C22.1108 8.32693 22.236 8.30573 22.3533 8.26049C22.4705 8.21525 22.5775 8.14689 22.6678 8.05947C22.7581 7.97206 22.83 7.86738 22.879 7.75165C22.928 7.63592 22.9533 7.51151 22.9533 7.38582C22.9533 7.26013 22.928 7.13572 22.879 7.02C22.83 6.90427 22.7581 6.79959 22.6678 6.71217C22.5775 6.62476 22.4705 6.5564 22.3533 6.51116C22.236 6.46591 22.1108 6.44471 21.9852 6.44882H3.65489L7.63679 2.40795C7.74523 2.33684 7.83474 2.24041 7.89761 2.127C7.96049 2.01358 7.99483 1.88657 7.99768 1.75692C8.00054 1.62728 7.97181 1.49888 7.91399 1.38281C7.85617 1.26673 7.77098 1.16647 7.66577 1.09065C7.58996 0.985442 7.48969 0.900255 7.37362 0.842432C7.25754 0.784609 7.12915 0.755886 6.9995 0.758738C6.86985 0.761591 6.74284 0.795934 6.62943 0.858807C6.51601 0.921679 6.41958 1.01119 6.34847 1.11963L0.726439 6.74166C0.617417 6.80981 0.534912 6.91312 0.492563 7.03451C0.453989 7.14781 0.434074 7.26663 0.433594 7.38632Z" fill="black"/>
</svg>
