<svg width="58" height="58" viewBox="0 0 58 58" fill="none" xmlns="http://www.w3.org/2000/svg">
<path d="M56.3301 11.416C57.332 12.418 58 13.8652 58 15.2012V52.2734C58 55.168 55.5508 57.5059 52.6562 57.5059H22.375C22.041 57.5059 21.8184 57.5059 21.4844 57.3945L15.25 54.166L8.9043 57.3945C8.34766 57.6172 7.67969 57.6172 7.12305 57.2832C6.56641 56.9492 6.34375 56.3926 6.34375 55.7246V44.1465C6.12109 44.1465 6.00977 44.1465 5.78711 44.0352C5.00781 43.8125 4.45117 43.2559 4.22852 42.4766C3.56055 39.8047 3.56055 39.8047 1.55664 37.8008C1 37.2441 0.777344 36.3535 1 35.5742C1.7793 32.9023 1.7793 32.9023 1 30.2305C0.777344 29.4512 1 28.5605 1.55664 28.0039C3.56055 26 3.56055 26.1113 4.22852 23.3281C4.45117 22.5488 5.00781 21.9922 5.78711 21.7695C8.57031 20.9902 8.45898 21.1016 10.4629 18.9863C10.7969 18.6523 11.3535 18.4297 11.9102 18.4297C12.1328 18.4297 12.3555 18.4297 12.4668 18.4297C13.9141 18.875 14.582 18.9863 15.25 18.9863V5.96094C15.25 2.95508 17.5879 0.617188 20.5938 0.505859H43.3047C44.6406 0.505859 46.0879 1.17383 47.0898 2.17578L56.3301 11.416ZM43.75 4.17969V14.8672H54.3262C54.2148 14.5332 54.1035 14.1992 53.8809 13.9766L44.5293 4.625C44.3066 4.40234 43.9727 4.29102 43.75 4.17969ZM4.67383 35.7969C6.45508 37.6895 6.78906 38.3574 7.45703 40.8066C9.12695 41.252 10.1289 41.6973 11.6875 43.0332C12.8008 42.4766 13.9141 42.2539 15.25 42.2539C16.4746 42.2539 17.5879 42.4766 18.7012 42.9219C20.2598 41.5859 21.2617 41.252 22.9316 40.8066C23.5996 38.3574 24.0449 37.5781 25.7148 35.7969C25.0469 33.3477 25.0469 32.457 25.7148 30.0078C23.9336 28.1152 23.5996 27.4473 22.9316 24.998C20.4824 24.3301 19.7031 23.8848 18.0332 22.1035C16.9199 22.4375 16.1406 22.5488 15.25 22.5488C14.248 22.5488 13.4688 22.4375 12.3555 22.1035C10.5742 23.8848 9.90625 24.3301 7.45703 24.998C6.78906 27.4473 6.34375 28.2266 4.67383 30.0078C5.23047 32.457 5.23047 33.3477 4.67383 35.7969ZM16.0293 50.6035L20.5938 52.9414V46.1504C20.4824 46.2617 20.4824 46.2617 20.4824 46.2617C20.0371 46.707 19.5918 46.8184 19.0352 46.8184C18.5898 46.8184 18.2559 46.8184 17.8105 46.4844C17.0312 46.0391 16.1406 45.8164 15.25 45.8164C14.248 45.8164 13.3574 46.0391 12.5781 46.5957C12.1328 46.707 11.7988 46.8184 11.3535 46.8184C10.9082 46.8184 10.3516 46.707 9.90625 46.2617C9.90625 46.2617 9.90625 46.2617 9.90625 46.1504V52.9414L14.3594 50.6035C14.916 50.3809 15.4727 50.3809 16.0293 50.6035ZM54.4375 52.2734V18.3184H42.8594C41.3008 18.3184 40.1875 17.2051 40.1875 15.7578V4.06836H20.5938C19.5918 4.06836 18.8125 4.95898 18.8125 5.96094V18.4297C19.1465 18.541 19.5918 18.6523 19.9258 18.9863C21.9297 21.1016 21.9297 20.9902 24.6016 21.7695C25.3809 21.9922 25.9375 22.5488 26.1602 23.3281C26.8281 26 26.8281 26 28.832 28.0039C29.3887 28.5605 29.6113 29.4512 29.3887 30.2305C28.6094 32.9023 28.6094 32.9023 29.3887 35.5742C29.6113 36.3535 29.3887 37.2441 28.832 37.8008C26.8281 39.8047 26.8281 39.6934 26.1602 42.4766C25.9375 43.2559 25.3809 43.8125 24.6016 44.0352C24.3789 44.1465 24.2676 44.1465 24.1562 44.1465V54.0547H52.6562C53.5469 54.0547 54.4375 53.1641 54.4375 52.2734Z" fill="#FF7735"/>
</svg>
