<svg width="75" height="78" viewBox="0 0 75 78" fill="none" xmlns="http://www.w3.org/2000/svg">
<path d="M24.5805 62.0744C24.5155 62.7616 25.02 63.3715 25.7073 63.4365C26.3946 63.5015 27.0044 62.9971 27.0694 62.3098L24.5805 62.0744ZM26.9732 50.0538L25.7288 49.936L26.9732 50.0538ZM27.2332 49.2445L26.1531 48.6152V48.6152L27.2332 49.2445ZM32.4549 42.7663C32.8024 42.1698 32.6006 41.4045 32.0042 41.0569C31.4077 40.7094 30.6424 40.9111 30.2948 41.5076L32.4549 42.7663ZM18.5081 62.3098C18.5731 62.9971 19.183 63.5015 19.8703 63.4365C20.5576 63.3715 21.062 62.7616 20.997 62.0744L18.5081 62.3098ZM18.6043 50.0538L19.8488 49.936L18.6043 50.0538ZM18.3444 49.2445L19.4244 48.6152V48.6152L18.3444 49.2445ZM15.2827 41.5076C14.9352 40.9111 14.1699 40.7094 13.5734 41.0569C12.9769 41.4045 12.7751 42.1698 13.1227 42.7663L15.2827 41.5076ZM30.591 70.4542C30.6549 69.7668 30.1494 69.1578 29.462 69.0939C28.7746 69.0301 28.1656 69.5356 28.1017 70.223L30.591 70.4542ZM28.949 74.6177L30.181 74.8295C30.1865 74.7976 30.1907 74.7655 30.1937 74.7333L28.949 74.6177ZM16.7164 74.7275L15.4772 74.8916C15.4824 74.9309 15.4895 74.97 15.4984 75.0087L16.7164 74.7275ZM17.3446 69.9489C17.254 69.2645 16.6257 68.7832 15.9413 68.8738C15.257 68.9644 14.7756 69.5927 14.8662 70.2771L17.3446 69.9489ZM2.90906 35.466H4.15906H2.90906ZM42.5426 35.466H41.2926H42.5426ZM52.9379 43.4869L53.4407 44.6313H53.4407L52.9379 43.4869ZM55.9379 42.1688L55.4352 41.0244H55.4351L55.9379 42.1688ZM58.2957 42.5764L59.1522 41.666L59.1522 41.666L58.2957 42.5764ZM59.247 43.4715L58.3905 44.3819L58.3905 44.3819L59.247 43.4715ZM62.2804 43.413L63.1712 44.2899L63.1712 44.2899L62.2804 43.413ZM65.3001 40.3455L66.1909 41.2224V41.2224L65.3001 40.3455ZM65.3575 37.3197L64.4339 38.162L65.3575 37.3197ZM64.6764 36.5729L63.7528 37.4152L63.7528 37.4152L64.6764 36.5729ZM64.2778 34.2294L63.127 33.7413L64.2778 34.2294ZM65.6808 30.9212L64.53 30.4332L65.6808 30.9212ZM65.7135 19.4247L64.5432 19.864L65.7135 19.4247ZM64.5702 16.3791L63.4 16.8184V16.8184L64.5702 16.3791ZM64.9553 14.1757L65.9062 14.987V14.987L64.9553 14.1757ZM66.0617 12.8788L65.1108 12.0675L66.0617 12.8788ZM65.9882 9.94017L65.0792 10.7983V10.7983L65.9882 9.94017ZM63.2506 7.04051L64.1596 6.1824L64.1596 6.1824L63.2506 7.04051ZM60.4545 6.7335L61.1568 7.76753L60.4545 6.7335ZM58.9869 7.73031L59.6892 8.76434V8.76434L58.9869 7.73031ZM56.9773 7.95517L57.4344 6.79177L57.4344 6.79177L56.9773 7.95517ZM53.6119 6.63268L53.1547 7.79608L53.1547 7.79608L53.6119 6.63268ZM42.1633 6.26071L42.6505 7.41185L42.1633 6.26071ZM39.2079 7.51156L39.6952 8.6627V8.6627L39.2079 7.51156ZM37.0499 7.23865L36.2923 8.23289V8.23289L37.0499 7.23865ZM36.0392 6.46851L36.7968 5.47426V5.47426L36.0392 6.46851ZM33.2916 6.56628L32.4656 5.62808V5.62808L33.2916 6.56628ZM30.3576 9.14943L31.1836 10.0876L31.1836 10.0876L30.3576 9.14943ZM29.9499 11.9701L28.891 12.6343V12.6343L29.9499 11.9701ZM30.8477 13.4016L31.9067 12.7374V12.7374L30.8477 13.4016ZM30.9811 15.4963L32.1026 16.0483L32.1094 16.0344L32.1159 16.0204L30.9811 15.4963ZM41.9126 46.9216L40.6846 47.1553L40.6865 47.1647L41.9126 46.9216ZM27.0694 62.3098L28.2177 50.1715L25.7288 49.936L24.5805 62.0744L27.0694 62.3098ZM28.3132 49.8739L32.4549 42.7663L30.2948 41.5076L26.1531 48.6152L28.3132 49.8739ZM28.2177 50.1715C28.2277 50.066 28.2604 49.9645 28.3132 49.8739L26.1531 48.6152C25.9175 49.0195 25.7729 49.4703 25.7288 49.936L28.2177 50.1715ZM20.997 62.0744L19.8488 49.936L17.3599 50.1715L18.5081 62.3098L20.997 62.0744ZM19.4244 48.6152L15.2827 41.5076L13.1227 42.7663L17.2644 49.8739L19.4244 48.6152ZM19.8488 49.936C19.8047 49.4703 19.66 49.0195 19.4244 48.6152L17.2644 49.8739C17.3172 49.9645 17.3499 50.066 17.3599 50.1715L19.8488 49.936ZM28.1017 70.223L27.7044 74.5021L30.1937 74.7333L30.591 70.4542L28.1017 70.223ZM27.0229 75H18.6204V77.5H27.0229V75ZM17.9555 74.5635L17.3446 69.9489L14.8662 70.2771L15.4772 74.8916L17.9555 74.5635ZM18.6204 75C18.2987 75 18.0104 74.776 17.9343 74.4464L15.4984 75.0087C15.8339 76.462 17.1238 77.5 18.6204 77.5V75ZM27.7171 74.4059C27.657 74.7553 27.3592 75 27.0229 75V77.5C28.5885 77.5 29.9167 76.3667 30.181 74.8295L27.7171 74.4059ZM4.15906 35.466C4.15906 25.13 12.4796 16.7653 22.7258 16.7653V14.2653C11.0831 14.2653 1.65906 23.7651 1.65906 35.466H4.15906ZM22.7258 16.7653C32.9721 16.7653 41.2926 25.13 41.2926 35.466H43.7926C43.7926 23.7651 34.3686 14.2653 22.7258 14.2653V16.7653ZM32.3897 63.0157C32.1141 61.6723 32.5054 59.9418 33.4786 57.7839C34.4391 55.6537 35.8601 53.3282 37.3828 50.8446C38.8862 48.3924 40.4808 45.7985 41.6936 43.2345C42.9027 40.6783 43.7926 38.032 43.7926 35.466H41.2926C41.2926 37.4882 40.5815 39.7389 39.4337 42.1655C38.2896 44.5843 36.7714 47.0589 35.2515 49.5378C33.751 51.9852 32.2381 54.4533 31.1996 56.7561C30.1736 59.0312 29.5006 61.3731 29.9407 63.5181L32.3897 63.0157ZM15.5615 63.539C16.0018 61.3926 15.3245 59.0486 14.294 56.7721C13.2506 54.4673 11.7313 51.9967 10.2245 49.5468C8.69834 47.0653 7.17395 44.588 6.02525 42.1674C4.87274 39.7387 4.15906 37.4873 4.15906 35.466H1.65906C1.65906 38.0329 2.55278 40.6812 3.76665 43.2392C4.98433 45.8052 6.5853 48.4017 8.09503 50.8564C9.62414 53.3427 11.0513 55.6709 12.0165 57.8031C12.9944 59.9634 13.3878 61.6943 13.1125 63.0365L15.5615 63.539ZM9.76233 65.2557V68.145H12.2623V65.2557H9.76233ZM12.9671 71.363H32.4847V68.863H12.9671V71.363ZM35.6895 68.145V65.2557H33.1895V68.145H35.6895ZM32.4847 62.0377H12.9671V64.5377H32.4847V62.0377ZM35.6895 65.2557C35.6895 63.4864 34.2626 62.0377 32.4847 62.0377V64.5377C32.866 64.5377 33.1895 64.8512 33.1895 65.2557H35.6895ZM32.4847 71.363C34.2626 71.363 35.6895 69.9143 35.6895 68.145H33.1895C33.1895 68.5495 32.866 68.863 32.4847 68.863V71.363ZM9.76233 68.145C9.76233 69.9143 11.1892 71.363 12.9671 71.363V68.863C12.5858 68.863 12.2623 68.5495 12.2623 68.145H9.76233ZM12.2623 65.2557C12.2623 64.8512 12.5858 64.5377 12.9671 64.5377V62.0377C11.1892 62.0377 9.76233 63.4864 9.76233 65.2557H12.2623ZM43.8295 49.7543H49.4538V47.2543H43.8295V49.7543ZM52.8813 46.312V45.4961H50.3813V46.312H52.8813ZM53.4407 44.6313L56.4407 43.3132L55.4351 41.0244L52.4351 42.3425L53.4407 44.6313ZM57.4391 43.4868L58.3905 44.3819L60.1036 42.5611L59.1522 41.666L57.4391 43.4868ZM63.1712 44.2899L66.1909 41.2224L64.4093 39.4686L61.3896 42.536L63.1712 44.2899ZM66.2811 36.4774L65.6 35.7306L63.7528 37.4152L64.4339 38.162L66.2811 36.4774ZM65.4285 34.7174L66.8316 31.4093L64.53 30.4332L63.127 33.7413L65.4285 34.7174ZM67.6834 30.8399H68.9134V28.3399H67.6834V30.8399ZM72.3409 27.3977V23.0341H69.8409V27.3977H72.3409ZM68.9134 19.5919H67.7504V22.0919H68.9134V19.5919ZM66.8837 18.9854L65.7405 15.9398L63.4 16.8184L64.5432 19.864L66.8837 18.9854ZM65.9062 14.987L67.0126 13.6901L65.1108 12.0675L64.0043 13.3644L65.9062 14.987ZM66.8971 9.08206L64.1596 6.1824L62.3417 7.89862L65.0792 10.7983L66.8971 9.08206ZM59.7521 5.69946L58.2845 6.69628L59.6892 8.76434L61.1568 7.76753L59.7521 5.69946ZM57.4344 6.79177L54.069 5.46929L53.1547 7.79608L56.5201 9.11857L57.4344 6.79177ZM53.4761 4.59051V3.44223H50.9761V4.59051H53.4761ZM50.0486 0H45.6744V2.5H50.0486V0ZM42.2469 3.44223V4.23981H44.7469V3.44223H42.2469ZM41.6761 5.10958L38.7207 6.36042L39.6952 8.6627L42.6505 7.41185L41.6761 5.10958ZM37.8075 6.24441L36.7968 5.47426L35.2816 7.46275L36.2923 8.23289L37.8075 6.24441ZM32.4656 5.62808L29.5316 8.21123L31.1836 10.0876L34.1176 7.50447L32.4656 5.62808ZM28.891 12.6343L29.7888 14.0658L31.9067 12.7374L31.0088 11.3059L28.891 12.6343ZM29.8596 14.9443L29.1195 16.4479L31.3625 17.5519L32.1026 16.0483L29.8596 14.9443ZM29.7888 14.0658C29.9593 14.3377 29.9814 14.6796 29.8463 14.9722L32.1159 16.0204C32.6049 14.9616 32.5265 13.7256 31.9067 12.7374L29.7888 14.0658ZM29.5316 8.21123C28.2631 9.32809 27.9937 11.2038 28.891 12.6343L31.0088 11.3059C30.7608 10.9105 30.8374 10.3924 31.1836 10.0876L29.5316 8.21123ZM36.7968 5.47426C35.4996 4.48577 33.6894 4.55058 32.4656 5.62808L34.1176 7.50447C34.4479 7.21368 34.9326 7.19683 35.2816 7.46275L36.7968 5.47426ZM38.7207 6.36042C38.4183 6.48842 38.0709 6.4451 37.8075 6.2444L36.2923 8.23289C37.2679 8.97629 38.5652 9.14096 39.6952 8.6627L38.7207 6.36042ZM42.2469 4.23981C42.2469 4.62398 42.0182 4.96474 41.6761 5.10958L42.6505 7.41185C43.9244 6.87268 44.7469 5.62058 44.7469 4.23981H42.2469ZM45.6744 0C43.7735 0 42.2469 1.5491 42.2469 3.44223H44.7469C44.7469 2.9139 45.1701 2.5 45.6744 2.5V0ZM53.4761 3.44223C53.4761 1.54909 51.9495 0 50.0486 0V2.5C50.5529 2.5 50.9761 2.9139 50.9761 3.44223H53.4761ZM54.069 5.46929C53.7154 5.33033 53.4761 4.98373 53.4761 4.59051H50.9761C50.9761 6.0035 51.837 7.27828 53.1547 7.79608L54.069 5.46929ZM58.2845 6.69628C58.0329 6.86721 57.7156 6.90228 57.4344 6.79177L56.5201 9.11856C57.5707 9.53144 58.7557 9.39843 59.6892 8.76434L58.2845 6.69628ZM64.1596 6.1824C63.0067 4.96132 61.1422 4.75529 59.7521 5.69946L61.1568 7.76753C61.5297 7.51424 62.0294 7.56778 62.3417 7.89862L64.1596 6.1824ZM67.0126 13.6901C68.1548 12.3514 68.1054 10.3619 66.8971 9.08206L65.0792 10.7983C65.4107 11.1494 65.4248 11.6994 65.1108 12.0675L67.0126 13.6901ZM65.7405 15.9398C65.6183 15.6143 65.6832 15.2485 65.9062 14.987L64.0043 13.3644C63.1895 14.3195 62.959 15.6436 63.4 16.8184L65.7405 15.9398ZM67.7504 19.5919C67.3698 19.5919 67.0223 19.3545 66.8837 18.9854L64.5432 19.864C65.045 21.2006 66.3197 22.0919 67.7504 22.0919V19.5919ZM72.3409 23.0341C72.3409 21.141 70.8142 19.5919 68.9134 19.5919V22.0919C69.4177 22.0919 69.8409 22.5058 69.8409 23.0341H72.3409ZM68.9134 30.8399C70.8142 30.8399 72.3409 29.2908 72.3409 27.3977H69.8409C69.8409 27.926 69.4177 28.3399 68.9134 28.3399V30.8399ZM66.8316 31.4093C66.9796 31.0603 67.3168 30.8399 67.6834 30.8399V28.3399C66.3058 28.3399 65.067 29.1672 64.53 30.4332L66.8316 31.4093ZM65.6 35.7306C65.3514 35.458 65.2828 35.0611 65.4285 34.7174L63.127 33.7413C62.6008 34.982 62.8441 36.4188 63.7528 37.4152L65.6 35.7306ZM66.1909 41.2224C67.4755 39.9175 67.5148 37.8302 66.2811 36.4774L64.4339 38.162C64.7728 38.5337 64.7616 39.1107 64.4093 39.4686L66.1909 41.2224ZM58.3905 44.3819C59.7459 45.6571 61.8658 45.6159 63.1712 44.2899L61.3896 42.536C61.037 42.8943 60.4691 42.9049 60.1036 42.5611L58.3905 44.3819ZM56.4407 43.3132C56.7767 43.1656 57.1685 43.2322 57.4391 43.4868L59.1522 41.666C58.1532 40.7261 56.6917 40.4723 55.4352 41.0244L56.4407 43.3132ZM52.8813 45.4961C52.8813 45.1166 53.1045 44.779 53.4407 44.6313L52.4351 42.3425C51.1841 42.8921 50.3813 44.1321 50.3813 45.4961H52.8813ZM49.4538 49.7543C51.3547 49.7543 52.8813 48.2052 52.8813 46.312H50.3813C50.3813 46.8404 49.9581 47.2543 49.4538 47.2543V49.7543ZM58.0793 25.0448C58.0793 30.6742 53.5486 35.2234 47.9774 35.2234V37.7234C54.9451 37.7234 60.5793 32.0391 60.5793 25.0448H58.0793ZM47.9774 14.8663C53.5486 14.8663 58.0793 19.4154 58.0793 25.0448H60.5793C60.5793 18.0506 54.9451 12.3663 47.9774 12.3663V14.8663ZM47.9774 35.2234C46.2254 35.2234 44.5809 34.7751 43.1468 33.9867L41.9424 36.1774C43.7356 37.1633 45.7932 37.7234 47.9774 37.7234V35.2234ZM38.1198 22.0622C38.8779 20.2109 40.2991 18.3929 42.085 17.0421C43.8709 15.6912 45.9414 14.8663 47.9774 14.8663V12.3663C45.2748 12.3663 42.6883 13.4511 40.5768 15.0482C38.4653 16.6453 36.7486 18.8134 35.8063 21.1149L38.1198 22.0622ZM43.1405 46.6878L42.1762 41.6229L39.7204 42.0904L40.6847 47.1553L43.1405 46.6878ZM43.8295 47.2543C43.4998 47.2543 43.2063 47.019 43.1387 46.6784L40.6865 47.1647C40.9839 48.6645 42.2951 49.7543 43.8295 49.7543V47.2543Z" fill="#FF792D"/>
</svg>
