<svg width="75" height="78" viewBox="0 0 75 78" fill="none" xmlns="http://www.w3.org/2000/svg">
<path d="M23.7076 18.1682C26.5461 16.5103 29.703 14.1158 36.0936 15.5554C44.3665 17.4191 47.1302 18.561 50.7574 18.7584M29.991 39.8587L29.0323 46.2571M29.0323 46.2571L37.4672 52.8156L34.025 55.9349M29.0323 46.2571L22.1292 49.1104M22.1292 49.1104L30.55 59.0541L34.025 55.9349M22.1292 49.1104C16.0765 51.4133 8.82349 54.5009 8.82349 64.4977V75.7701L32.8664 76.186M32.8664 76.186L37.5 76.25L42.1335 76.186M32.8664 76.186L35.6626 62.9732M35.6626 62.9732L34.025 55.9349M35.6626 62.9732H39.3374M45.009 39.8587L45.9676 46.2571M45.9676 46.2571L37.5327 52.8156L40.9749 55.9349M45.9676 46.2571L52.8707 49.1104M52.8707 49.1104L44.4499 59.0541L40.9749 55.9349M52.8707 49.1104C58.9235 51.4133 66.1764 54.5009 66.1764 64.4977V75.7701L42.1335 76.186M42.1335 76.186L39.3374 62.9732M39.3374 62.9732L40.9749 55.9349M43.2068 34.2806H54.8743C56.2159 34.2806 57.3034 33.1917 57.3034 31.8485V30.1885H55.0929M55.0929 30.1885H51.4645M55.0929 30.1885C57.5575 30.1885 59.5554 28.1881 59.5554 25.7205C59.5554 23.2529 57.5575 21.2525 55.0929 21.2525H53.6332M23.4706 30.0255H19.8429C17.3783 30.0255 15.3804 28.0251 15.3804 25.5575C15.3804 23.0899 17.3783 21.0896 19.8429 21.0896H21.3025M55.0576 19.8734V18.7876C55.0576 9.10179 47.2153 1.24992 37.5413 1.25C27.5505 1.25008 19.817 9.10179 19.817 18.7876V19.8734M35.8565 40.8782H39.0179C45.7256 40.8782 51.1634 35.4338 51.1634 28.7178V17.0892C51.1634 10.3732 45.7256 4.92884 39.0179 4.92884H35.8565C29.1488 4.92884 23.711 10.3732 23.711 17.0892V28.7178C23.711 35.4338 29.1488 40.8782 35.8565 40.8782ZM37.15 34.2474C37.15 32.9812 38.1752 31.9548 39.4398 31.9548H40.85C42.1146 31.9548 43.1397 32.9812 43.1397 34.2474C43.1397 35.5135 42.1146 36.5399 40.85 36.5399H39.4398C38.1752 36.5399 37.15 35.5135 37.15 34.2474Z" stroke="#FF792D" stroke-width="2.5" stroke-linecap="round" stroke-linejoin="round"/>
</svg>
