<svg width="79" height="76" viewBox="0 0 79 76" fill="none" xmlns="http://www.w3.org/2000/svg">
<path d="M11.2671 20.543L11.7239 19.3794L11.2671 20.543ZM19.2217 23.6658L19.6784 22.5022L19.2217 23.6658ZM20.1814 25.84L19.0201 25.3774V25.3774L20.1814 25.84ZM13.3311 43.0374L12.1698 42.5749H12.1698L13.3311 43.0374ZM11.0968 43.9862L10.639 45.1493L11.0968 43.9862ZM3.29058 40.9135L3.74841 39.7503H3.74841L3.29058 40.9135ZM2.32716 38.7529L3.49229 39.2057H3.49229L2.32716 38.7529ZM9.02917 21.5054L10.1943 21.9581L9.02917 21.5054ZM14.3184 41.1734C13.7053 40.8561 12.9511 41.0959 12.6338 41.7091C12.3165 42.3222 12.5563 43.0764 13.1694 43.3937L14.3184 41.1734ZM15.7009 47.1348C15.6588 47.8239 16.1833 48.4166 16.8724 48.4587C17.5614 48.5008 18.1542 47.9763 18.1963 47.2872L15.7009 47.1348ZM67.7328 20.543L67.276 19.3794L67.7328 20.543ZM59.7782 23.6658L59.3215 22.5022L59.7782 23.6658ZM58.8185 25.84L59.9798 25.3774V25.3774L58.8185 25.84ZM65.6688 43.0374L66.8301 42.5749L65.6688 43.0374ZM67.9031 43.9862L68.3609 45.1493L67.9031 43.9862ZM75.7093 40.9135L75.2515 39.7503L75.7093 40.9135ZM76.6727 38.7529L75.5076 39.2057L76.6727 38.7529ZM69.9707 21.5054L68.8056 21.9581V21.9581L69.9707 21.5054ZM37.8338 19.7353C37.8338 20.4257 38.3934 20.9853 39.0838 20.9853C39.7741 20.9853 40.3338 20.4257 40.3338 19.7353L37.8338 19.7353ZM40.3337 8.24999C40.3337 7.55963 39.774 6.99999 39.0837 7C38.3933 7.00001 37.8337 7.55965 37.8337 8.25001L40.3337 8.24999ZM48.502 19.9822C48.1088 20.5496 48.25 21.3284 48.8174 21.7216C49.3849 22.1148 50.1636 21.9736 50.5568 21.4062L48.502 19.9822ZM56.6492 12.6147C57.0424 12.0473 56.9012 11.2686 56.3338 10.8753C55.7664 10.4821 54.9876 10.6233 54.5944 11.1908L56.6492 12.6147ZM29.1416 22.2174C29.5348 22.7848 30.3135 22.926 30.881 22.5328C31.4484 22.1396 31.5896 21.3608 31.1964 20.7934L29.1416 22.2174ZM25.104 12.002C24.7108 11.4345 23.932 11.2933 23.3646 11.6865C22.7972 12.0797 22.656 12.8585 23.0492 13.4259L25.104 12.002ZM15.7578 56.6776L16.3207 55.5615H16.3207L15.7578 56.6776ZM14.5168 52.8998L13.408 52.3226L14.5168 52.8998ZM19.9998 55.6649L18.891 55.0877L19.9998 55.6649ZM16.1594 56.8801L15.5966 57.9962H15.5966L16.1594 56.8801ZM22.0882 45.4914L21.5253 46.6075L22.0882 45.4914ZM23.3293 49.2692L24.438 49.8464L23.3293 49.2692ZM21.6866 45.2888L22.2495 44.1727L21.6866 45.2888ZM17.8463 46.504L18.955 47.0812L17.8463 46.504ZM44.8796 56.6622L45.4716 55.5613L44.8796 56.6622ZM42.2482 61.5562L42.8057 60.4375L42.2482 61.5562ZM46.0339 60.3508L44.9259 59.7723L46.0339 60.3508ZM21.7338 24.9067C21.1241 24.583 20.3674 24.8149 20.0436 25.4246C19.7199 26.0344 19.9518 26.7911 20.5615 27.1148L21.7338 24.9067ZM22.4386 26.6962L23.0248 25.5921H23.0247L22.4386 26.6962ZM30.8501 27.6601L31.1699 28.8685L30.8501 27.6601ZM31.7814 27.4136L31.4616 26.2052L31.7814 27.4136ZM36.6348 27.1795L36.433 28.4131L36.6348 27.1795ZM38.1514 28.6942C38.8327 28.8056 39.4753 28.3436 39.5867 27.6623C39.6982 26.981 39.2362 26.3384 38.5549 26.2269L38.1514 28.6942ZM21.1506 59.7979L20.5877 60.914L20.5877 60.914L21.1506 59.7979ZM19.9095 56.0201L21.0182 56.5973L19.9095 56.0201ZM25.3925 58.7853L24.2837 58.2081L25.3925 58.7853ZM21.5522 60.0005L22.115 58.8843L22.115 58.8843L21.5522 60.0005ZM29.0244 45.6468L28.4616 46.7629L29.0244 45.6468ZM30.2655 49.4246L31.3742 50.0018L30.2655 49.4246ZM28.6228 45.4442L29.1857 44.3281L28.6228 45.4442ZM24.7825 46.6594L23.6737 46.0822L24.7825 46.6594ZM48.2716 50.5076C47.675 50.1604 46.9098 50.3626 46.5626 50.9593C46.2154 51.556 46.4176 52.3212 47.0143 52.6684L48.2716 50.5076ZM49.2877 52.5451L49.9164 51.4647L49.2877 52.5451ZM46.5096 57.411L45.934 58.5206L46.5096 57.411ZM40.2849 52.7733C39.6721 52.4553 38.9176 52.6944 38.5997 53.3072C38.2817 53.92 38.5208 54.6745 39.1336 54.9924L40.2849 52.7733ZM50.3678 56.2168L49.2597 55.6383L50.3678 56.2168ZM26.788 62.6594L27.3509 61.5433H27.3509L26.788 62.6594ZM25.547 58.8816L24.4382 58.3044L25.547 58.8816ZM31.03 61.6468L29.9212 61.0696L31.03 61.6468ZM27.1896 62.8619L26.6268 63.978H26.6268L27.1896 62.8619ZM33.507 50.7268L32.9441 51.8429V51.8429L33.507 50.7268ZM34.748 54.5046L35.8568 55.0818L34.748 54.5046ZM33.1053 50.5242L33.6682 49.4081L33.1053 50.5242ZM29.265 51.7394L30.3738 52.3166V52.3166L29.265 51.7394ZM46.1462 43.2242C45.5333 42.9065 44.7789 43.1458 44.4612 43.7587C44.1435 44.3716 44.3827 45.126 44.9956 45.4437L46.1462 43.2242ZM52.7636 48.0627L53.3389 46.9529L52.7636 48.0627ZM50.17 52.8766L49.5937 53.9859L50.17 52.8766ZM43.505 48.0056C42.8924 47.6873 42.1377 47.926 41.8195 48.5386C41.5012 49.1512 41.7399 49.9058 42.3525 50.2241L43.505 48.0056ZM53.9369 51.7118L52.8288 51.1333L53.9369 51.7118ZM32.3441 65.7373L32.9069 64.6212L32.3441 65.7373ZM31.103 61.9594L29.9942 61.3823L31.103 61.9594ZM36.586 64.7246L35.4773 64.1474L36.586 64.7246ZM32.7457 65.9398L32.1828 67.0559L32.7457 65.9398ZM37.9953 55.8556L37.4325 56.9717L37.9953 55.8556ZM39.2364 59.6334L40.3452 60.2106L39.2364 59.6334ZM37.5937 55.653L38.1566 54.5369L37.5937 55.653ZM33.7534 56.8682L34.8622 57.4454L33.7534 56.8682ZM49.3834 40.1542L48.6732 41.1829L48.7445 41.2321L48.8218 41.2709L49.3834 40.1542ZM56.1374 43.5506L55.5758 44.6673L56.1374 43.5506ZM53.6135 48.4224L54.1682 47.3022L53.6135 48.4224ZM46.3792 38.0805L45.6691 39.1092L46.3792 38.0805ZM43.7733 37.7341L43.359 36.5547L43.7733 37.7341ZM32.0054 41.868L31.5911 40.6886H31.5911L32.0054 41.868ZM30.7889 42.0044L30.6168 43.2425L30.7889 42.0044ZM25.7794 39.0873H27.0294H25.7794ZM51.4107 29.7225V30.9725V29.7225ZM57.3457 47.2287L58.4538 47.8072L57.3457 47.2287ZM57.8131 45.1113C57.1566 45.3246 56.7972 46.0298 57.0105 46.6863C57.2238 47.3429 57.929 47.7023 58.5856 47.489L57.8131 45.1113ZM65.8225 44.6139C66.3608 44.1817 66.4468 43.395 66.0146 42.8566C65.5825 42.3183 64.7957 42.2322 64.2574 42.6644L65.8225 44.6139ZM10.8103 21.7065L18.7649 24.8293L19.6784 22.5022L11.7239 19.3794L10.8103 21.7065ZM19.0201 25.3774L12.1698 42.5749L14.4924 43.5L21.3426 26.3025L19.0201 25.3774ZM11.5547 42.823L3.74841 39.7503L2.83274 42.0766L10.639 45.1493L11.5547 42.823ZM3.49229 39.2057L10.1943 21.9581L7.86404 21.0526L1.16204 38.3002L3.49229 39.2057ZM3.74841 39.7503C3.50582 39.6549 3.41416 39.4067 3.49229 39.2057L1.16204 38.3002C0.573729 39.8142 1.33946 41.4888 2.83274 42.0766L3.74841 39.7503ZM12.1698 42.5749C12.0837 42.7911 11.8131 42.9248 11.5547 42.823L10.639 45.1493C12.1486 45.7435 13.8849 45.0249 14.4924 43.5L12.1698 42.5749ZM18.7649 24.8293C19.0091 24.9252 19.1005 25.1756 19.0201 25.3774L21.3426 26.3025C21.9477 24.7835 21.1821 23.0925 19.6784 22.5022L18.7649 24.8293ZM11.7239 19.3794C10.206 18.7835 8.46175 19.5144 7.86404 21.0526L10.1943 21.9581C10.2789 21.7404 10.5503 21.6045 10.8103 21.7065L11.7239 19.3794ZM13.1694 43.3937C13.4437 43.5357 14.1442 44.0959 14.7694 44.9115C15.4034 45.7386 15.7372 46.5404 15.7009 47.1348L18.1963 47.2872C18.2881 45.7848 17.5091 44.3762 16.7535 43.3906C15.9891 42.3933 15.0232 41.5382 14.3184 41.1734L13.1694 43.3937ZM67.276 19.3794L59.3215 22.5022L60.235 24.8293L68.1896 21.7065L67.276 19.3794ZM57.6573 26.3025L64.5075 43.5L66.8301 42.5749L59.9798 25.3774L57.6573 26.3025ZM68.3609 45.1493L76.1671 42.0766L75.2515 39.7503L67.4452 42.823L68.3609 45.1493ZM77.8379 38.3002L71.1358 21.0526L68.8056 21.9581L75.5076 39.2057L77.8379 38.3002ZM76.1671 42.0766C77.6604 41.4888 78.4262 39.8142 77.8379 38.3002L75.5076 39.2057C75.5857 39.4067 75.4941 39.6549 75.2515 39.7503L76.1671 42.0766ZM64.5075 43.5C65.115 45.0249 66.8513 45.7435 68.3609 45.1493L67.4452 42.823C67.1868 42.9248 66.9162 42.7911 66.8301 42.5749L64.5075 43.5ZM59.3215 22.5022C57.8178 23.0925 57.0522 24.7835 57.6573 26.3025L59.9798 25.3774C59.8994 25.1756 59.9907 24.9252 60.235 24.8293L59.3215 22.5022ZM68.1896 21.7065C68.4495 21.6045 68.721 21.7404 68.8056 21.9581L71.1358 21.0526C70.5381 19.5144 68.7939 18.7835 67.276 19.3794L68.1896 21.7065ZM10.9234 38.4836C10.9234 38.8051 10.6513 39.1055 10.266 39.1055V41.6055C11.9876 41.6055 13.4234 40.2298 13.4234 38.4836H10.9234ZM10.266 39.1055C9.8808 39.1055 9.60869 38.8051 9.60869 38.4836H7.10869C7.10869 40.2298 8.54448 41.6055 10.266 41.6055V39.1055ZM9.60869 38.4836C9.60869 38.1621 9.8808 37.8616 10.266 37.8616V35.3616C8.54448 35.3616 7.10869 36.7374 7.10869 38.4836H9.60869ZM10.266 37.8616C10.6513 37.8616 10.9234 38.1621 10.9234 38.4836H13.4234C13.4234 36.7374 11.9876 35.3616 10.266 35.3616V37.8616ZM65.5765 38.4836C65.5765 40.2298 67.0123 41.6055 68.7338 41.6055V39.1055C68.3486 39.1055 68.0765 38.8051 68.0765 38.4836H65.5765ZM68.7338 41.6055C70.4554 41.6055 71.8912 40.2298 71.8912 38.4836H69.3912C69.3912 38.8051 69.1191 39.1055 68.7338 39.1055V41.6055ZM71.8912 38.4836C71.8912 36.7374 70.4554 35.3616 68.7338 35.3616V37.8616C69.1191 37.8616 69.3912 38.1621 69.3912 38.4836H71.8912ZM68.7338 35.3616C67.0123 35.3616 65.5765 36.7374 65.5765 38.4836H68.0765C68.0765 38.1621 68.3486 37.8616 68.7338 37.8616V35.3616ZM40.3338 19.7353L40.3337 8.24999L37.8337 8.25001L37.8338 19.7353L40.3338 19.7353ZM50.5568 21.4062L56.6492 12.6147L54.5944 11.1908L48.502 19.9822L50.5568 21.4062ZM31.1964 20.7934L25.104 12.002L23.0492 13.4259L29.1416 22.2174L31.1964 20.7934ZM21.1237 46.4049L21.5253 46.6075L22.6511 44.3753L22.2495 44.1727L21.1237 46.4049ZM22.2205 48.692L18.891 55.0877L21.1085 56.2421L24.438 49.8464L22.2205 48.692ZM16.7223 55.764L16.3207 55.5615L15.195 57.7937L15.5966 57.9962L16.7223 55.764ZM15.6255 53.477L18.955 47.0812L16.7375 45.9268L13.408 52.3226L15.6255 53.477ZM16.3207 55.5615C15.5278 55.1616 15.2355 54.2262 15.6255 53.477L13.408 52.3226C12.3625 54.3309 13.1815 56.7783 15.195 57.7937L16.3207 55.5615ZM18.891 55.0877C18.495 55.8485 17.526 56.1693 16.7223 55.764L15.5966 57.9962C17.5992 59.0062 20.0691 58.2389 21.1085 56.2421L18.891 55.0877ZM21.5253 46.6075C22.3183 47.0074 22.6105 47.9428 22.2205 48.692L24.438 49.8464C25.4835 47.838 24.6645 45.3907 22.6511 44.3753L21.5253 46.6075ZM22.2495 44.1727C20.2468 43.1628 17.777 43.9301 16.7375 45.9268L18.955 47.0812C19.3511 46.3204 20.32 45.9996 21.1237 46.4049L22.2495 44.1727ZM39.6488 55.2684L44.2875 57.7631L45.4716 55.5613L40.833 53.0667L39.6488 55.2684ZM42.8057 60.4375L39.1743 58.6278L38.0592 60.8654L41.6907 62.675L42.8057 60.4375ZM44.9259 59.7723C44.5387 60.5139 43.5922 60.8294 42.8057 60.4375L41.6907 62.675C43.6738 63.6633 46.1127 62.9008 47.142 60.9293L44.9259 59.7723ZM44.2875 57.7631C45.0344 58.1648 45.2997 59.0562 44.9259 59.7723L47.142 60.9293C48.1605 58.9784 47.4025 56.5997 45.4716 55.5613L44.2875 57.7631ZM20.5615 27.1148L21.8524 27.8002L23.0247 25.5921L21.7338 24.9067L20.5615 27.1148ZM31.1699 28.8685L32.1013 28.622L31.4616 26.2052L30.5303 26.4517L31.1699 28.8685ZM36.433 28.4131L38.1514 28.6942L38.5549 26.2269L36.8365 25.9459L36.433 28.4131ZM32.1013 28.622C33.5129 28.2484 34.9904 28.1771 36.433 28.4131L36.8365 25.9459C35.0468 25.6531 33.2139 25.7415 31.4616 26.2052L32.1013 28.622ZM21.8524 27.8002C24.7059 29.3152 28.0404 29.6968 31.1699 28.8685L30.5303 26.4517C28.0075 27.1194 25.3203 26.8109 23.0248 25.5921L21.8524 27.8002ZM28.0599 46.5603L28.4616 46.7629L29.5873 44.5307L29.1857 44.3281L28.0599 46.5603ZM29.1567 48.8474L24.2837 58.2081L26.5012 59.3625L31.3742 50.0018L29.1567 48.8474ZM22.115 58.8843L21.7134 58.6818L20.5877 60.914L20.9893 61.1166L22.115 58.8843ZM21.0182 56.5973L25.8912 47.2366L23.6737 46.0822L18.8007 55.4429L21.0182 56.5973ZM21.7134 58.6818C20.9205 58.2819 20.6282 57.3465 21.0182 56.5973L18.8007 55.4429C17.7552 57.4513 18.5742 59.8986 20.5877 60.914L21.7134 58.6818ZM24.2837 58.2081C23.8877 58.9689 22.9188 59.2897 22.115 58.8843L20.9893 61.1166C22.992 62.1265 25.4618 61.3592 26.5012 59.3625L24.2837 58.2081ZM28.4616 46.7629C29.2545 47.1627 29.5468 48.0982 29.1567 48.8474L31.3742 50.0018C32.4198 47.9934 31.6007 45.5461 29.5873 44.5307L28.4616 46.7629ZM29.1857 44.3281C27.183 43.3181 24.7132 44.0854 23.6737 46.0822L25.8912 47.2366C26.2873 46.4758 27.2562 46.155 28.0599 46.5603L29.1857 44.3281ZM47.0143 52.6684L48.6591 53.6255L49.9164 51.4647L48.2716 50.5076L47.0143 52.6684ZM47.0853 56.3014L40.2849 52.7733L39.1336 54.9924L45.934 58.5206L47.0853 56.3014ZM49.2597 55.6383C48.8621 56.3999 47.8853 56.7165 47.0853 56.3014L45.934 58.5206C47.9348 59.5587 50.4288 58.801 51.4759 56.7953L49.2597 55.6383ZM48.6591 53.6255C49.383 54.0467 49.6303 54.9285 49.2597 55.6383L51.4759 56.7953C52.475 54.8816 51.7762 52.5469 49.9164 51.4647L48.6591 53.6255ZM32.5425 51.6403L32.9441 51.8429L34.0698 49.6107L33.6682 49.4081L32.5425 51.6403ZM33.6393 53.9274L29.9212 61.0696L32.1387 62.2239L35.8568 55.0818L33.6393 53.9274ZM27.7525 61.7458L27.3509 61.5433L26.2252 63.7755L26.6268 63.978L27.7525 61.7458ZM26.6557 59.4588L30.3738 52.3166L28.1563 51.1622L24.4382 58.3044L26.6557 59.4588ZM27.3509 61.5433C26.558 61.1434 26.2657 60.208 26.6557 59.4588L24.4382 58.3044C23.3927 60.3127 24.2117 62.7601 26.2252 63.7755L27.3509 61.5433ZM29.9212 61.0696C29.5251 61.8304 28.5562 62.1512 27.7525 61.7458L26.6268 63.978C28.6294 64.988 31.0992 64.2207 32.1387 62.2239L29.9212 61.0696ZM32.9441 51.8429C33.737 52.2428 34.0293 53.1782 33.6393 53.9274L35.8568 55.0818C36.9023 53.0734 36.0833 50.6261 34.0698 49.6107L32.9441 51.8429ZM33.6682 49.4081C31.6656 48.3982 29.1957 49.1655 28.1563 51.1622L30.3738 52.3166C30.7698 51.5558 31.7388 51.235 32.5425 51.6403L33.6682 49.4081ZM44.9956 45.4437L52.1883 49.1724L53.3389 46.9529L46.1462 43.2242L44.9956 45.4437ZM50.7462 51.7674L43.505 48.0056L42.3525 50.2241L49.5937 53.9859L50.7462 51.7674ZM52.8288 51.1333C52.4484 51.862 51.5127 52.1656 50.7462 51.7674L49.5937 53.9859C51.5612 55.008 54.0148 54.2635 55.045 52.2903L52.8288 51.1333ZM52.1883 49.1724C52.9284 49.5561 53.1953 50.4313 52.8288 51.1333L55.045 52.2903C56.0635 50.3393 55.2846 47.9616 53.3389 46.9529L52.1883 49.1724ZM37.0309 56.7691L37.4325 56.9717L38.5582 54.7395L38.1566 54.5369L37.0309 56.7691ZM38.1277 59.0562L35.4773 64.1474L37.6948 65.3018L40.3452 60.2106L38.1277 59.0562ZM33.3086 64.8237L32.9069 64.6212L31.7812 66.8534L32.1828 67.0559L33.3086 64.8237ZM32.2118 62.5366L34.8622 57.4454L32.6447 56.291L29.9942 61.3823L32.2118 62.5366ZM32.9069 64.6212C32.114 64.2213 31.8217 63.2859 32.2118 62.5366L29.9942 61.3823C28.9487 63.3906 29.7678 65.8379 31.7812 66.8534L32.9069 64.6212ZM35.4773 64.1474C35.0812 64.9082 34.1123 65.229 33.3086 64.8237L32.1828 67.0559C34.1855 68.0659 36.6553 67.2986 37.6948 65.3018L35.4773 64.1474ZM37.4325 56.9717C38.2254 57.3715 38.5177 58.307 38.1277 59.0562L40.3452 60.2106C41.3907 58.2022 40.5717 55.7549 38.5582 54.7395L37.4325 56.9717ZM38.1566 54.5369C36.1539 53.5269 33.6841 54.2943 32.6447 56.291L34.8622 57.4454C35.2582 56.6846 36.2271 56.3638 37.0309 56.7691L38.1566 54.5369ZM48.8218 41.2709L55.5758 44.6673L56.699 42.4338L49.9449 39.0374L48.8218 41.2709ZM54.1682 47.3022L50.8549 45.6616L49.7456 47.902L53.0588 49.5426L54.1682 47.3022ZM50.0935 39.1255L47.0894 37.0518L45.6691 39.1092L48.6732 41.1829L50.0935 39.1255ZM43.359 36.5547L31.5911 40.6886L32.4197 43.0473L44.1875 38.9134L43.359 36.5547ZM30.9611 40.7663C30.0345 40.6375 28.9195 40.379 28.0731 39.9822C27.1249 39.5378 27.0294 39.1841 27.0294 39.0873H24.5294C24.5294 40.7806 25.9499 41.7481 27.0121 42.2459C28.176 42.7914 29.5657 43.0964 30.6168 43.2425L30.9611 40.7663ZM27.0294 39.0873C27.0294 38.4483 27.414 37.9322 28.0906 37.481C28.7896 37.0149 29.4335 36.8427 29.766 36.7029L28.7967 34.3984C28.809 34.3932 28.8063 34.3948 28.7586 34.412C28.7261 34.4238 28.6606 34.4472 28.6014 34.4687C28.4713 34.516 28.2996 34.5803 28.1028 34.6625C27.7127 34.8253 27.2079 35.0648 26.7037 35.401C25.7181 36.0581 24.5294 37.2357 24.5294 39.0873H27.0294ZM29.766 36.7029C29.8909 36.6503 30.018 36.5717 30.0631 36.5442C30.1409 36.4966 30.2352 36.4367 30.3398 36.369C30.5502 36.2326 30.8263 36.0489 31.1445 35.8343C31.7821 35.4043 32.6056 34.8388 33.4462 34.2545C35.0995 33.1052 36.9047 31.8236 37.4373 31.3834L35.8446 29.4564C35.4129 29.8132 33.7159 31.0223 32.0192 32.2017C31.1849 32.7818 30.3715 33.3402 29.7466 33.7617C29.4335 33.9728 29.1719 34.1468 28.9803 34.2709C28.8838 34.3335 28.8109 34.3796 28.7608 34.4101C28.6779 34.4607 28.7162 34.4323 28.7967 34.3984L29.766 36.7029ZM37.4373 31.3834C37.8443 31.047 39.0658 30.1958 40.3869 29.4939C41.0441 29.1448 41.6832 28.8558 42.2278 28.6838C42.4991 28.5981 42.7209 28.5498 42.8923 28.5312C43.0702 28.5118 43.1394 28.5305 43.1365 28.5296L43.8492 26.1334C43.0517 25.8962 42.1658 26.0816 41.4748 26.2999C40.7283 26.5357 39.94 26.9005 39.214 27.2861C37.769 28.0538 36.402 28.9958 35.8446 29.4564L37.4373 31.3834ZM43.1365 28.5296C43.9425 28.7694 45.2253 29.3132 46.8405 29.8908C48.3111 30.4167 50.07 30.9725 51.4107 30.9725V28.4725C50.5689 28.4725 49.2063 28.0819 47.6824 27.5368C46.303 27.0435 44.7181 26.3918 43.8492 26.1334L43.1365 28.5296ZM51.4107 30.9725C52.0483 30.9725 52.7634 30.7959 53.4276 30.5778C54.115 30.352 54.851 30.0465 55.5632 29.7183C56.9876 29.0619 58.3941 28.2788 59.2625 27.7534L57.9683 25.6145C57.1627 26.1019 55.8397 26.8382 54.5168 27.4478C53.8553 27.7526 53.2131 28.0168 52.6476 28.2026C52.0588 28.3959 51.646 28.4725 51.4107 28.4725V30.9725ZM31.5911 40.6886C31.359 40.7701 31.145 40.7919 30.9611 40.7663L30.6168 43.2425C31.2536 43.3311 31.8713 43.2399 32.4197 43.0473L31.5911 40.6886ZM47.0894 37.0518C45.999 36.2991 44.6089 36.1156 43.359 36.5547L44.1875 38.9134C44.6864 38.7381 45.2402 38.8131 45.6691 39.1092L47.0894 37.0518ZM56.2376 46.6502C55.86 47.3736 54.937 47.6829 54.1682 47.3022L53.0588 49.5426C55.0237 50.5155 57.4352 49.7583 58.4538 47.8072L56.2376 46.6502ZM55.5758 44.6673C56.3328 45.048 56.6098 45.9373 56.2376 46.6502L58.4538 47.8072C59.4841 45.8338 58.6791 43.4296 56.6989 42.4338L55.5758 44.6673ZM58.5856 47.489C59.5843 47.1645 61.1285 46.6407 62.5213 46.1214C63.2166 45.8622 63.887 45.5993 64.4378 45.3596C64.9338 45.1437 65.4871 44.8831 65.8225 44.6139L64.2574 42.6644C64.2661 42.6574 64.2119 42.6982 64.0419 42.7861C63.8884 42.8655 63.6866 42.96 63.4401 43.0673C62.9479 43.2815 62.3243 43.5268 61.648 43.7789C60.2976 44.2824 58.7887 44.7944 57.8131 45.1113L58.5856 47.489Z" fill="#FF792D"/>
</svg>
