<svg width="75" height="76" viewBox="0 0 75 76" fill="none" xmlns="http://www.w3.org/2000/svg">
<path d="M16.3608 7.25V6C15.6705 6 15.1108 6.55964 15.1108 7.25H16.3608ZM57.7541 7.25H59.0041C59.0041 6.55964 58.4445 6 57.7541 6V7.25ZM48.2532 67.25V68.5C48.9436 68.5 49.5032 67.9404 49.5032 67.25H48.2532ZM25.8617 67.25H24.6117C24.6117 67.9404 25.1714 68.5 25.8617 68.5V67.25ZM43.4329 61.2291V62.4791H44.6829V61.2291H43.4329ZM30.6817 61.2291H29.4317V62.4791H30.6817V61.2291ZM34.2326 47.4874V46.2374H32.9826V47.4874H34.2326ZM39.8818 47.4874H41.1318V46.2374H39.8818V47.4874ZM39.8818 53.6159V54.8659H41.1318V53.6159H39.8818ZM34.2326 53.6159H32.9826V54.8659H34.2326V53.6159ZM58.1779 11.9768C57.4876 11.9768 56.9279 12.5365 56.9279 13.2268C56.9279 13.9172 57.4876 14.4768 58.1779 14.4768V11.9768ZM66.6472 13.2268L67.8843 13.0482C67.7956 12.4333 67.2685 11.9768 66.6472 11.9768V13.2268ZM54.7202 36.8574C54.0367 36.9545 53.5613 37.5873 53.6584 38.2708C53.7554 38.9543 54.3882 39.4297 55.0717 39.3326L54.7202 36.8574ZM15.8221 14.4768C16.5124 14.4768 17.0721 13.9172 17.0721 13.2268C17.0721 12.5365 16.5124 11.9768 15.8221 11.9768V14.4768ZM7.35284 13.2268V11.9768C6.73147 11.9768 6.20444 12.4333 6.11566 13.0482L7.35284 13.2268ZM18.9283 39.3326C19.6118 39.4297 20.2446 38.9543 20.3416 38.2708C20.4387 37.5873 19.9633 36.9545 19.2798 36.8574L18.9283 39.3326ZM33.3483 21.0686L33.4647 22.3132L33.3483 21.0686ZM33.8716 20.6854L35.0211 21.1764V21.1764L33.8716 20.6854ZM26.4328 22.7973L25.604 23.733L26.4328 22.7973ZM26.7924 21.6817L26.676 20.4371L26.7924 21.6817ZM31.5792 27.7983L30.3593 27.5256L31.5792 27.7983ZM31.3793 27.1782L32.2081 26.2424L31.3793 27.1782ZM31.0729 34.9633L31.7149 36.0358L31.0729 34.9633ZM30.1315 34.2738L31.3514 34.5465L30.1315 34.2738ZM37.3809 31.5742L38.023 30.5017H38.023L37.3809 31.5742ZM36.7341 31.5742L36.0921 30.5017L36.7341 31.5742ZM43.9835 34.2738L42.7637 34.5465L43.9835 34.2738ZM43.0422 34.9633L42.4002 36.0358L43.0422 34.9633ZM42.7358 27.1782L41.907 26.2424L42.7358 27.1782ZM42.5359 27.7983L43.7558 27.5256L42.5359 27.7983ZM47.3227 21.6817L47.4391 20.4371L47.3227 21.6817ZM47.6823 22.7973L48.511 23.733L47.6823 22.7973ZM40.2435 20.6854L39.094 21.1764V21.1764L40.2435 20.6854ZM40.7668 21.0686L40.6504 22.3132L40.7668 21.0686ZM37.6393 14.5888L38.7888 14.0978L37.6393 14.5888ZM36.4758 14.5888L35.3263 14.0978V14.0978L36.4758 14.5888ZM16.3608 8.5H57.7541V6H16.3608V8.5ZM56.5041 7.25V26.6217H59.0041V7.25H56.5041ZM17.6108 26.6217V7.25H15.1108V26.6217H17.6108ZM37.0575 46.2373C26.327 46.2373 17.6108 37.4647 17.6108 26.6217H15.1108C15.1108 38.8262 24.9271 48.7373 37.0575 48.7373V46.2373ZM56.5041 26.6217C56.5041 37.4647 47.788 46.2373 37.0575 46.2373V48.7373C49.1878 48.7373 59.0041 38.8262 59.0041 26.6217H56.5041ZM28.3954 62.4791H45.7195V59.9791H28.3954V62.4791ZM47.0032 63.7835V67.25H49.5032V63.7835H47.0032ZM48.2532 66H25.8617V68.5H48.2532V66ZM27.1117 67.25V63.7835H24.6117V67.25H27.1117ZM45.7195 62.4791C46.4189 62.4791 47.0032 63.0535 47.0032 63.7835H49.5032C49.5032 61.692 47.8188 59.9791 45.7195 59.9791V62.4791ZM28.3954 59.9791C26.2962 59.9791 24.6117 61.692 24.6117 63.7835H27.1117C27.1117 63.0535 27.696 62.4791 28.3954 62.4791V59.9791ZM33.2154 54.8659H40.8992V52.3659H33.2154V54.8659ZM42.1829 56.1703V61.2291H44.6829V56.1703H42.1829ZM43.4329 59.9791H30.6817V62.4791H43.4329V59.9791ZM31.9317 61.2291V56.1703H29.4317V61.2291H31.9317ZM40.8992 54.8659C41.5986 54.8659 42.1829 55.4403 42.1829 56.1703H44.6829C44.6829 54.0788 42.9984 52.3659 40.8992 52.3659V54.8659ZM33.2154 52.3659C31.1161 52.3659 29.4317 54.0788 29.4317 56.1703H31.9317C31.9317 55.4403 32.516 54.8659 33.2154 54.8659V52.3659ZM34.2326 48.7374H39.8818V46.2374H34.2326V48.7374ZM38.6318 47.4874V53.6159H41.1318V47.4874H38.6318ZM39.8818 52.3659H34.2326V54.8659H39.8818V52.3659ZM35.4826 53.6159V47.4874H32.9826V53.6159H35.4826ZM58.1779 14.4768H66.6472V11.9768H58.1779V14.4768ZM65.41 13.4054C65.9397 17.0751 65.9974 22.6661 64.498 27.4913C63.0075 32.2878 60.0767 36.0969 54.7202 36.8574L55.0717 39.3326C61.7416 38.3855 65.2334 33.5494 66.8854 28.2332C68.5284 22.9457 68.4485 16.9564 67.8843 13.0482L65.41 13.4054ZM15.8221 11.9768H7.35284V14.4768H15.8221V11.9768ZM6.11566 13.0482C5.55149 16.9564 5.47157 22.9457 7.11464 28.2332C8.76664 33.5494 12.2584 38.3855 18.9283 39.3326L19.2798 36.8574C13.9233 36.0969 10.9925 32.2878 9.50203 27.4913C8.00261 22.6661 8.06027 17.0751 8.59001 13.4054L6.11566 13.0482ZM36.4898 15.0798L39.094 21.1764L41.393 20.1943L38.7888 14.0978L36.4898 15.0798ZM40.6504 22.3132L47.2064 22.9262L47.4391 20.4371L40.8831 19.8241L40.6504 22.3132ZM46.8535 21.8615L41.907 26.2424L43.5646 28.1139L48.511 23.733L46.8535 21.8615ZM41.316 28.0711L42.7637 34.5465L45.2034 34.0011L43.7558 27.5256L41.316 28.0711ZM43.6843 33.8908L38.023 30.5017L36.7389 32.6468L42.4002 36.0358L43.6843 33.8908ZM36.0921 30.5017L30.4308 33.8908L31.7149 36.0358L37.3762 32.6468L36.0921 30.5017ZM31.3514 34.5465L32.799 28.0711L30.3593 27.5256L28.9117 34.0011L31.3514 34.5465ZM32.2081 26.2424L27.2616 21.8615L25.604 23.733L30.5505 28.1139L32.2081 26.2424ZM26.9087 22.9262L33.4647 22.3132L33.2319 19.8241L26.676 20.4371L26.9087 22.9262ZM35.0211 21.1764L37.6253 15.0798L35.3263 14.0978L32.7221 20.1943L35.0211 21.1764ZM33.4647 22.3132C34.156 22.2486 34.7508 21.8091 35.0211 21.1764L32.7221 20.1943C32.8089 19.991 33.0024 19.8455 33.2319 19.8241L33.4647 22.3132ZM27.2616 21.8615C27.6504 22.2059 27.4613 22.8746 26.9087 22.9262L26.676 20.4371C25.0165 20.5923 24.3801 22.649 25.604 23.733L27.2616 21.8615ZM32.799 28.0711C32.9488 27.4014 32.7246 26.6999 32.2081 26.2424L30.5505 28.1139C30.3823 27.965 30.3115 27.7393 30.3593 27.5256L32.799 28.0711ZM30.4308 33.8908C30.9186 33.5988 31.4628 34.0485 31.3514 34.5465L28.9117 34.0011C28.5559 35.5923 30.2713 36.9 31.7149 36.0358L30.4308 33.8908ZM38.023 30.5017C37.4283 30.1457 36.6868 30.1457 36.0921 30.5017L37.3762 32.6468C37.1802 32.7641 36.9349 32.7641 36.7389 32.6468L38.023 30.5017ZM42.7637 34.5465C42.6523 34.0485 43.1965 33.5988 43.6843 33.8908L42.4002 36.0358C43.8438 36.9 45.5592 35.5923 45.2034 34.0011L42.7637 34.5465ZM41.907 26.2424C41.3905 26.6999 41.1663 27.4014 41.316 28.0711L43.7558 27.5256C43.8036 27.7393 43.7328 27.965 43.5646 28.1139L41.907 26.2424ZM47.2064 22.9262C46.6538 22.8746 46.4647 22.2059 46.8535 21.8615L48.511 23.733C49.735 22.649 49.0986 20.5923 47.4391 20.4371L47.2064 22.9262ZM39.094 21.1764C39.3643 21.8091 39.9591 22.2486 40.6504 22.3132L40.8831 19.8241C41.1127 19.8455 41.3062 19.991 41.393 20.1943L39.094 21.1764ZM38.7888 14.0978C38.1367 12.5711 35.9784 12.5711 35.3263 14.0978L37.6253 15.0798C37.4129 15.5771 36.7022 15.5771 36.4898 15.0798L38.7888 14.0978Z" fill="#FF792D"/>
</svg>
