<svg width="79" height="76" viewBox="0 0 79 76" fill="none" xmlns="http://www.w3.org/2000/svg">
<path d="M27.5463 62.9772V67.3461C27.5463 67.8453 27.9517 68.25 28.4517 68.25H69.5233C70.0234 68.25 70.4287 67.8453 70.4287 67.3461V62.9772M5.42338 63.4838V44.4308C5.42338 43.9316 5.82874 43.5269 6.32878 43.5269H16.1957C16.6958 43.5269 17.1011 43.9316 17.1011 44.4308V63.4838M9.64587 43.4287V16.9107M13.9369 16.9107V43.4287M16.5426 10.1101L28.9371 10.1101M28.9371 14.3939L16.5426 14.3939M35.9402 16.9106V24.9323C35.9402 25.4315 35.5348 25.8362 35.0348 25.8362H32.5545C32.0544 25.8362 31.6491 25.4315 31.6491 24.9323V16.9106M33.7709 29.9396V25.8126M33.7709 29.9396L27.2921 34.1357C27.0348 34.3024 26.8795 34.5877 26.8795 34.894V39.163M33.7709 29.9396L39.6147 34.1324C39.8514 34.3023 39.9917 34.5754 39.9917 34.8664V39.163M28.8397 38.4513V44.3401C28.8397 44.8393 29.245 45.2439 29.7451 45.2439H37.1263C37.6264 45.2439 38.0317 44.8393 38.0317 44.3401V38.4513C38.0317 37.9521 37.6264 37.5474 37.1263 37.5474H29.7451C29.245 37.5474 28.8397 37.9521 28.8397 38.4513ZM47.4312 41.6494V47.3652C47.4312 47.8644 47.8366 48.2691 48.3366 48.2691H55.5113C56.0113 48.2691 56.4167 47.8644 56.4167 47.3652V41.6494C56.4167 41.1502 56.0113 40.7456 55.5113 40.7456H48.3366C47.8366 40.7456 47.4312 41.1502 47.4312 41.6494ZM60.7099 41.6494V47.3652C60.7099 47.8644 61.1152 48.2691 61.6153 48.2691H68.7899C69.29 48.2691 69.6953 47.8644 69.6953 47.3652V41.6494C69.6953 41.1502 69.29 40.7456 68.7899 40.7456H61.6153C61.1152 40.7456 60.7099 41.1502 60.7099 41.6494ZM27.6283 62.9771H70.6458C74.103 62.9771 76.9056 60.1792 76.9056 56.7279C76.9056 53.2765 74.103 50.4787 70.6458 50.4787H27.6283C24.1711 50.4787 21.3685 53.2765 21.3685 56.7279C21.3685 60.1792 24.1711 62.9771 27.6283 62.9771ZM2.09424 64.3959V66.7632C2.09424 67.2624 2.4996 67.6671 2.99963 67.6671H19.5249C20.0249 67.6671 20.4303 67.2624 20.4303 66.7632V64.3959C20.4303 63.8967 20.0249 63.4921 19.5249 63.4921H2.99964C2.4996 63.4921 2.09424 63.8967 2.09424 64.3959ZM16.8019 12.252C16.8019 15.0145 14.5586 17.254 11.7914 17.254C9.02419 17.254 6.78092 15.0145 6.78092 12.252C6.78092 9.48948 9.02419 7.25 11.7914 7.25C14.5586 7.25 16.8019 9.48948 16.8019 12.252ZM33.4356 56.9409C33.4356 58.9558 31.7995 60.5892 29.7812 60.5892C27.7629 60.5892 26.1268 58.9558 26.1268 56.9409C26.1268 54.926 27.7629 53.2927 29.7812 53.2927C31.7995 53.2927 33.4356 54.926 33.4356 56.9409ZM73.3498 56.9409C73.3498 58.9558 71.7136 60.5892 69.6953 60.5892C67.6771 60.5892 66.0409 58.9558 66.0409 56.9409C66.0409 54.926 67.6771 53.2927 69.6953 53.2927C71.7136 53.2927 73.3498 54.926 73.3498 56.9409ZM60.0451 56.9409C60.0451 58.9558 58.409 60.5892 56.3907 60.5892C54.3724 60.5892 52.7363 58.9558 52.7363 56.9409C52.7363 54.926 54.3724 53.2927 56.3907 53.2927C58.409 53.2927 60.0451 54.926 60.0451 56.9409ZM46.7405 56.9409C46.7405 58.9558 45.1044 60.5892 43.0861 60.5892C41.0678 60.5892 39.4316 58.9558 39.4316 56.9409C39.4316 54.926 41.0678 53.2927 43.0861 53.2927C45.1044 53.2927 46.7405 54.926 46.7405 56.9409ZM38.8051 12.252C38.8051 15.0145 36.5619 17.254 33.7947 17.254C31.0275 17.254 28.7842 15.0145 28.7842 12.252C28.7842 9.48948 31.0275 7.25 33.7947 7.25C36.5619 7.25 38.8051 9.48948 38.8051 12.252Z" stroke="#FF792D" stroke-width="2.5" stroke-linecap="square"/>
</svg>
