<svg width="77" height="79" viewBox="0 0 77 79" fill="none" xmlns="http://www.w3.org/2000/svg">
<path d="M66.1831 36.0914L67.1194 35.2632L66.8627 34.9729L66.4867 34.8788L66.1831 36.0914ZM38.5 77.25L38.1355 78.4457C38.3731 78.5181 38.6269 78.5181 38.8644 78.4457L38.5 77.25ZM67.111 68.5286L67.4755 69.7243L68.361 69.4544V68.5286H67.111ZM67.111 46.4958L66.7783 45.2908L66.761 45.2956L66.7439 45.3009L67.111 46.4958ZM46.6967 52.769L45.8176 53.6576L46.3491 54.1835L47.0639 53.9639L46.6967 52.769ZM73.7612 44.6596L74.0938 45.8645L76.0242 45.3315L74.6975 43.8315L73.7612 44.6596ZM10.8168 36.0914L10.5107 34.8794L10.1363 34.974L9.88049 35.2632L10.8168 36.0914ZM9.88889 68.5286H8.63889V69.4544L9.52442 69.7243L9.88889 68.5286ZM9.88889 46.4958L10.2561 45.3009L10.2389 45.2956L10.2216 45.2908L9.88889 46.4958ZM30.3032 52.769L29.9361 53.9639L30.6508 54.1835L31.1824 53.6576L30.3032 52.769ZM3.23877 44.6596L2.30244 43.8315L0.975742 45.3315L2.90608 45.8645L3.23877 44.6596ZM51.651 31.1642C50.9813 30.9965 50.3025 31.4034 50.1348 32.0731C49.9672 32.7428 50.3741 33.4216 51.0438 33.5893L51.651 31.1642ZM25.8298 33.5887C26.4991 33.4196 26.9046 32.7399 26.7356 32.0706C26.5665 31.4013 25.8869 30.9957 25.2175 31.1648L25.8298 33.5887ZM38.4999 12.3819L39.4685 11.5918L38.4999 10.4043L37.5312 11.5918L38.4999 12.3819ZM45.0767 20.445L46.0497 19.6603L46.0453 19.6549L45.0767 20.445ZM45.0232 28.7203L44.0974 27.8804L44.0907 27.8877L44.0842 27.8952L45.0232 28.7203ZM43.2052 30.7891L44.1233 31.6374L44.1339 31.6259L44.1442 31.6142L43.2052 30.7891ZM33.7945 30.7891L34.7456 29.9779L34.7396 29.9709L34.7335 29.964L33.7945 30.7891ZM31.9765 28.7203L32.9155 27.8952L32.909 27.8877L32.9023 27.8804L31.9765 28.7203ZM31.923 20.445L32.8489 21.2849L32.8709 21.2605L32.8917 21.2351L31.923 20.445ZM38.4999 2.25L39.4673 1.45849L38.4999 0.27593L37.5324 1.45849L38.4999 2.25ZM25.8275 17.7396L24.86 16.9481L24.8448 16.9667L24.8303 16.9858L25.8275 17.7396ZM25.9344 31.5318L26.8719 30.7049L25.9344 31.5318ZM30.4259 36.6242L31.3789 35.8153L31.3712 35.8063L31.3634 35.7974L30.4259 36.6242ZM46.5738 36.6242L47.5048 37.4584L47.5113 37.4511L46.5738 36.6242ZM51.0653 31.5318L52.0028 32.3586L52.0067 32.3541L51.0653 31.5318ZM51.1722 17.7396L52.1694 16.9858L52.1549 16.9667L52.1397 16.9481L51.1722 17.7396ZM38.8696 45.8537L66.5527 37.2855L65.8135 34.8972L38.1304 43.4655L38.8696 45.8537ZM37.25 44.6596V77.25H39.75V44.6596H37.25ZM38.8644 78.4457L67.4755 69.7243L66.7466 67.333L38.1355 76.0543L38.8644 78.4457ZM68.361 68.5286V46.4958H65.861V68.5286H68.361ZM66.7439 45.3009L46.3295 51.5742L47.0639 53.9639L67.4782 47.6906L66.7439 45.3009ZM47.5758 51.8804L39.3791 43.771L37.6208 45.5482L45.8176 53.6576L47.5758 51.8804ZM67.4437 47.7007L74.0938 45.8645L73.4285 43.4547L66.7783 45.2908L67.4437 47.7007ZM74.6975 43.8315L67.1194 35.2632L65.2468 36.9195L72.8248 45.4877L74.6975 43.8315ZM38.8696 43.4655L11.1864 34.8972L10.4472 37.2855L38.1304 45.8537L38.8696 43.4655ZM38.8644 76.0543L10.2534 67.333L9.52442 69.7243L38.1355 78.4457L38.8644 76.0543ZM11.1389 68.5286V46.4958H8.63889V68.5286H11.1389ZM9.52172 47.6906L29.9361 53.9639L30.6704 51.5742L10.2561 45.3009L9.52172 47.6906ZM31.1824 53.6576L39.3791 45.5482L37.6208 43.771L29.4241 51.8804L31.1824 53.6576ZM10.2216 45.2908L3.57146 43.4547L2.90608 45.8645L9.55621 47.7007L10.2216 45.2908ZM4.1751 45.4877L11.7531 36.9195L9.88049 35.2632L2.30244 43.8315L4.1751 45.4877ZM66.4867 34.8788L51.651 31.1642L51.0438 33.5893L65.8795 37.3039L66.4867 34.8788ZM11.1229 37.3033L25.8298 33.5887L25.2175 31.1648L10.5107 34.8794L11.1229 37.3033ZM37.5312 13.172L44.108 21.2351L46.0453 19.6549L39.4685 11.5918L37.5312 13.172ZM44.1036 21.2297C44.3695 21.5594 44.5218 21.9771 44.5218 22.3547H47.0218C47.0218 21.3531 46.6393 20.3915 46.0497 19.6604L44.1036 21.2297ZM44.5218 22.3547V26.7576H47.0218V22.3547H44.5218ZM44.5218 26.7576C44.5218 27.1943 44.3669 27.5833 44.0974 27.8804L45.949 29.5602C46.6419 28.7963 47.0218 27.8061 47.0218 26.7576H44.5218ZM44.0842 27.8952L42.2662 29.964L44.1442 31.6142L45.9622 29.5454L44.0842 27.8952ZM42.2871 29.9408C41.8917 30.3688 41.4065 30.6 40.906 30.6V33.1C42.2234 33.1 43.3424 32.4825 44.1233 31.6374L42.2871 29.9408ZM40.906 30.6H36.0937V33.1H40.906V30.6ZM36.0937 30.6C35.5928 30.6 35.089 30.3806 34.7456 29.9779L32.8434 31.6003C33.6764 32.5768 34.8835 33.1 36.0937 33.1V30.6ZM34.7335 29.964L32.9155 27.8952L31.0375 29.5454L32.8555 31.6142L34.7335 29.964ZM32.9023 27.8804C32.6328 27.5833 32.4779 27.1943 32.4779 26.7576H29.9779C29.9779 27.8061 30.3578 28.7963 31.0507 29.5602L32.9023 27.8804ZM32.4779 26.7576V22.3547H29.9779V26.7576H32.4779ZM32.4779 22.3547C32.4779 21.9161 32.613 21.5448 32.8489 21.2849L30.9972 19.6051C30.2706 20.4061 29.9779 21.414 29.9779 22.3547H32.4779ZM32.8917 21.2351L39.4685 13.172L37.5312 11.5918L30.9544 19.6549L32.8917 21.2351ZM37.5324 1.45849L24.86 16.9481L26.7949 18.5311L39.4673 3.04151L37.5324 1.45849ZM24.8303 16.9858C24.0526 18.0146 23.5615 19.2281 23.5615 20.6041H26.0615C26.0615 19.8583 26.3191 19.1621 26.8246 18.4934L24.8303 16.9858ZM23.5615 20.6041V28.5611H26.0615V20.6041H23.5615ZM23.5615 28.5611C23.5615 29.9161 24.0402 31.2738 24.9969 32.3586L26.8719 30.7049C26.3315 30.0922 26.0615 29.328 26.0615 28.5611H23.5615ZM24.9969 32.3586L29.4884 37.4511L31.3634 35.7974L26.8719 30.7049L24.9969 32.3586ZM29.4729 37.4331C30.5883 38.7472 32.2338 39.4126 33.848 39.4126V36.9126C32.8956 36.9126 31.9745 36.517 31.3789 35.8153L29.4729 37.4331ZM33.848 39.4126H43.1517V36.9126H33.848V39.4126ZM43.1517 39.4126C44.858 39.4126 46.4218 38.6671 47.5048 37.4584L45.6428 35.7901C45.0148 36.491 44.119 36.9126 43.1517 36.9126V39.4126ZM47.5113 37.4511L52.0028 32.3586L50.1278 30.7049L45.6363 35.7974L47.5113 37.4511ZM52.0067 32.3541C52.8911 31.3417 53.4382 29.9919 53.4382 28.5611H50.9382C50.9382 29.3583 50.6297 30.1304 50.1239 30.7094L52.0067 32.3541ZM53.4382 28.5611V20.6041H50.9382V28.5611H53.4382ZM53.4382 20.6041C53.4382 19.2281 52.9471 18.0146 52.1694 16.9858L50.1751 18.4934C50.6806 19.1621 50.9382 19.8583 50.9382 20.6041H53.4382ZM52.1397 16.9481L39.4673 1.45849L37.5324 3.04151L50.2048 18.5311L52.1397 16.9481Z" fill="#FF792D"/>
</svg>
